AfacadFlux-Super.ufo
<glyph name="exclam" format="2">
  <advance width="480"/>
  <unicode hex="0021"/>
  <outline>
    <contour>
      <point x="126" y="330" type="line"/>
      <point x="354" y="330" type="line"/>
      <point x="414" y="900" type="line"/>
      <point x="66" y="900" type="line"/>
    </contour>
    <contour>
      <point x="240" y="-20" type="curve" smooth="yes"/>
      <point x="319" y="-20"/>
      <point x="380" y="41"/>
      <point x="380" y="120" type="curve" smooth="yes"/>
      <point x="380" y="199"/>
      <point x="319" y="260"/>
      <point x="240" y="260" type="curve" smooth="yes"/>
      <point x="161" y="260"/>
      <point x="100" y="199"/>
      <point x="100" y="120" type="curve" smooth="yes"/>
      <point x="100" y="41"/>
      <point x="161" y="-20"/>
    </contour>
  </outline>
</glyph>
<glyph name="numbersign" format="2">
  <advance width="750"/>
  <unicode hex="0023"/>
  <outline>
    <contour>
      <point x="28" y="0" type="line"/>
      <point x="250" y="0" type="line"/>
      <point x="277" y="168" type="line"/>
      <point x="378" y="168" type="line"/>
      <point x="351" y="0" type="line"/>
      <point x="573" y="0" type="line"/>
      <point x="600" y="168" type="line"/>
      <point x="661" y="168" type="line"/>
      <point x="698" y="384" type="line"/>
      <point x="637" y="384" type="line"/>
      <point x="659" y="516" type="line"/>
      <point x="716" y="516" type="line"/>
      <point x="750" y="732" type="line"/>
      <point x="693" y="732" type="line"/>
      <point x="723" y="900" type="line"/>
      <point x="501" y="900" type="line"/>
      <point x="471" y="732" type="line"/>
      <point x="370" y="732" type="line"/>
      <point x="400" y="900" type="line"/>
      <point x="178" y="900" type="line"/>
      <point x="148" y="732" type="line"/>
      <point x="89" y="732" type="line"/>
      <point x="55" y="516" type="line"/>
      <point x="114" y="516" type="line"/>
      <point x="92" y="384" type="line"/>
      <point x="37" y="384" type="line"/>
      <point x="0" y="168" type="line"/>
      <point x="55" y="168" type="line"/>
    </contour>
    <contour>
      <point x="301" y="372" type="line"/>
      <point x="325" y="528" type="line"/>
      <point x="450" y="528" type="line"/>
      <point x="426" y="372" type="line"/>
    </contour>
  </outline>
</glyph>
<glyph name="dollar" format="2">
  <advance width="750"/>
  <unicode hex="0024"/>
  <outline>
    <contour>
      <point x="321" y="-120" type="line"/>
      <point x="459" y="-120" type="line"/>
      <point x="459" y="-11" type="line"/>
      <point x="611" y="18"/>
      <point x="707" y="123"/>
      <point x="707" y="268" type="curve" smooth="yes"/>
      <point x="707" y="395"/>
      <point x="644" y="484"/>
      <point x="499" y="554" type="curve" smooth="yes"/>
      <point x="379" y="612" type="line" smooth="yes"/>
      <point x="349" y="627"/>
      <point x="337" y="636"/>
      <point x="337" y="648" type="curve" smooth="yes"/>
      <point x="337" y="664"/>
      <point x="356" y="673"/>
      <point x="388" y="673" type="curve" smooth="yes"/>
      <point x="459" y="673"/>
      <point x="551" y="633"/>
      <point x="616" y="573" type="curve"/>
      <point x="682" y="839" type="line"/>
      <point x="612" y="882"/>
      <point x="537" y="909"/>
      <point x="459" y="918" type="curve"/>
      <point x="459" y="990" type="line"/>
      <point x="321" y="990" type="line"/>
      <point x="321" y="914" type="line"/>
      <point x="165" y="887"/>
      <point x="67" y="779"/>
      <point x="67" y="626" type="curve" smooth="yes"/>
      <point x="67" y="503"/>
      <point x="130" y="421"/>
      <point x="292" y="343" type="curve" smooth="yes"/>
      <point x="385" y="298" type="line" smooth="yes"/>
      <point x="421" y="280"/>
      <point x="437" y="268"/>
      <point x="437" y="253" type="curve" smooth="yes"/>
      <point x="437" y="236"/>
      <point x="418" y="228"/>
      <point x="380" y="228" type="curve" smooth="yes"/>
      <point x="294" y="228"/>
      <point x="194" y="278"/>
      <point x="125" y="357" type="curve"/>
      <point x="55" y="79" type="line"/>
      <point x="117" y="27"/>
      <point x="217" y="-10"/>
      <point x="321" y="-18" type="curve"/>
    </contour>
  </outline>
</glyph>
<glyph name="ampersand" format="2">
  <advance width="860"/>
  <unicode hex="0026"/>
  <outline>
    <contour>
      <point x="342" y="-18" type="curve" smooth="yes"/>
      <point x="422" y="-18"/>
      <point x="499" y="5"/>
      <point x="560" y="48" type="curve"/>
      <point x="596" y="0" type="line"/>
      <point x="872" y="0" type="line"/>
      <point x="754" y="161" type="line"/>
      <point x="784" y="195"/>
      <point x="809" y="233"/>
      <point x="828" y="274" type="curve"/>
      <point x="679" y="479" type="line"/>
      <point x="671" y="431"/>
      <point x="652" y="383"/>
      <point x="624" y="341" type="curve"/>
      <point x="523" y="482" type="line"/>
      <point x="537" y="491" type="line" smooth="yes"/>
      <point x="616" y="542"/>
      <point x="657" y="608"/>
      <point x="657" y="682" type="curve" smooth="yes"/>
      <point x="657" y="810"/>
      <point x="538" y="918"/>
      <point x="396" y="918" type="curve" smooth="yes"/>
      <point x="257" y="918"/>
      <point x="145" y="812"/>
      <point x="145" y="681" type="curve" smooth="yes"/>
      <point x="145" y="634"/>
      <point x="160" y="591"/>
      <point x="191" y="546" type="curve" smooth="yes"/>
      <point x="197" y="538" type="line"/>
      <point x="84" y="471"/>
      <point x="27" y="381"/>
      <point x="27" y="270" type="curve" smooth="yes"/>
      <point x="27" y="103"/>
      <point x="159" y="-18"/>
    </contour>
    <contour>
      <point x="360" y="208" type="curve" smooth="yes"/>
      <point x="308" y="208"/>
      <point x="273" y="241"/>
      <point x="273" y="288" type="curve" smooth="yes"/>
      <point x="273" y="318"/>
      <point x="288" y="342"/>
      <point x="313" y="357" type="curve"/>
      <point x="412" y="219" type="line"/>
      <point x="393" y="211"/>
      <point x="377" y="208"/>
    </contour>
    <contour>
      <point x="389" y="616" type="line"/>
      <point x="375" y="636" type="line" smooth="yes"/>
      <point x="358" y="664"/>
      <point x="353" y="673"/>
      <point x="353" y="685" type="curve" smooth="yes"/>
      <point x="353" y="711"/>
      <point x="374" y="732"/>
      <point x="402" y="732" type="curve" smooth="yes"/>
      <point x="428" y="732"/>
      <point x="449" y="711"/>
      <point x="449" y="683" type="curve" smooth="yes"/>
      <point x="449" y="662"/>
      <point x="434" y="642"/>
      <point x="408" y="627" type="curve" smooth="yes"/>
    </contour>
  </outline>
</glyph>
<glyph name="quotesingle" format="2">
  <advance width="330"/>
  <unicode hex="0027"/>
  <outline>
    <contour>
      <point x="67" y="510" type="line"/>
      <point x="263" y="510" type="line"/>
      <point x="297" y="900" type="line"/>
      <point x="33" y="900" type="line"/>
    </contour>
  </outline>
</glyph>
<glyph name="parenleft" format="2">
  <advance width="480"/>
  <unicode hex="0028"/>
  <outline>
    <contour>
      <point x="208" y="-180" type="curve"/>
      <point x="472" y="-180" type="line"/>
      <point x="361" y="-20"/>
      <point x="298" y="175"/>
      <point x="298" y="390" type="curve" smooth="yes"/>
      <point x="298" y="606"/>
      <point x="361" y="800"/>
      <point x="472" y="960" type="curve"/>
      <point x="208" y="960" type="line"/>
      <point x="108" y="794"/>
      <point x="48" y="599"/>
      <point x="48" y="390" type="curve" smooth="yes"/>
      <point x="48" y="181"/>
      <point x="108" y="-14"/>
    </contour>
  </outline>
</glyph>
<glyph name="parenright" format="2">
  <advance width="480"/>
  <unicode hex="0029"/>
  <outline>
    <contour>
      <point x="8" y="-180" type="curve"/>
      <point x="272" y="-180" type="line"/>
      <point x="377" y="-5"/>
      <point x="432" y="190"/>
      <point x="432" y="390" type="curve" smooth="yes"/>
      <point x="432" y="591"/>
      <point x="377" y="787"/>
      <point x="272" y="960" type="curve"/>
      <point x="8" y="960" type="line"/>
      <point x="122" y="794"/>
      <point x="183" y="598"/>
      <point x="183" y="390" type="curve" smooth="yes"/>
      <point x="183" y="182"/>
      <point x="122" y="-14"/>
    </contour>
  </outline>
</glyph>
<glyph name="asterisk" format="2">
  <advance width="660"/>
  <unicode hex="002A"/>
  <outline>
    <contour>
      <point x="245" y="314" type="line"/>
      <point x="330" y="457" type="line"/>
      <point x="415" y="314" type="line"/>
      <point x="585" y="438" type="line"/>
      <point x="474" y="565" type="line"/>
      <point x="634" y="601" type="line"/>
      <point x="569" y="801" type="line"/>
      <point x="420" y="737" type="line"/>
      <point x="435" y="900" type="line"/>
      <point x="225" y="900" type="line"/>
      <point x="240" y="737" type="line"/>
      <point x="91" y="801" type="line"/>
      <point x="26" y="601" type="line"/>
      <point x="186" y="565" type="line"/>
      <point x="75" y="438" type="line"/>
    </contour>
  </outline>
</glyph>
<glyph name="plus" format="2">
  <advance width="750"/>
  <unicode hex="002B"/>
  <outline>
    <contour>
      <point x="273" y="115" type="line"/>
      <point x="477" y="115" type="line"/>
      <point x="477" y="352" type="line"/>
      <point x="710" y="352" type="line"/>
      <point x="710" y="548" type="line"/>
      <point x="477" y="548" type="line"/>
      <point x="477" y="785" type="line"/>
      <point x="273" y="785" type="line"/>
      <point x="273" y="548" type="line"/>
      <point x="40" y="548" type="line"/>
      <point x="40" y="352" type="line"/>
      <point x="273" y="352" type="line"/>
    </contour>
  </outline>
</glyph>
<glyph name="comma" format="2">
  <advance width="330"/>
  <unicode hex="002C"/>
  <outline>
    <contour>
      <point x="-27" y="-120" type="curve"/>
      <point x="216" y="-120" type="line"/>
      <point x="275" y="-13"/>
      <point x="300" y="119"/>
      <point x="300" y="270" type="curve"/>
      <point x="60" y="270" type="line"/>
      <point x="60" y="101"/>
      <point x="21" y="-24"/>
    </contour>
  </outline>
</glyph>
<glyph name="hyphen" format="2">
  <advance width="400"/>
  <unicode hex="002D"/>
  <outline>
    <contour>
      <point x="30" y="217" type="line"/>
      <point x="370" y="217" type="line"/>
      <point x="370" y="413" type="line"/>
      <point x="30" y="413" type="line"/>
    </contour>
  </outline>
</glyph>
<glyph name="period" format="2">
  <advance width="330"/>
  <unicode hex="002E"/>
  <outline>
    <contour>
      <point x="165" y="-20" type="curve" smooth="yes"/>
      <point x="248" y="-20"/>
      <point x="312" y="44"/>
      <point x="312" y="127" type="curve" smooth="yes"/>
      <point x="312" y="210"/>
      <point x="248" y="274"/>
      <point x="165" y="274" type="curve" smooth="yes"/>
      <point x="82" y="274"/>
      <point x="18" y="210"/>
      <point x="18" y="127" type="curve" smooth="yes"/>
      <point x="18" y="44"/>
      <point x="82" y="-20"/>
    </contour>
  </outline>
</glyph>
<glyph name="one" format="2">
  <advance width="750"/>
  <unicode hex="0031"/>
  <outline>
    <contour>
      <point x="108" y="0" type="line"/>
      <point x="690" y="0" type="line"/>
      <point x="690" y="216" type="line"/>
      <point x="562" y="216" type="line"/>
      <point x="562" y="920" type="line"/>
      <point x="502" y="920" type="line"/>
      <point x="120" y="728" type="line"/>
      <point x="120" y="499" type="line"/>
      <point x="286" y="578" type="line"/>
      <point x="286" y="216" type="line"/>
      <point x="108" y="216" type="line"/>
    </contour>
  </outline>
</glyph>
<glyph name="two" format="2">
  <advance width="750"/>
  <unicode hex="0032"/>
  <outline>
    <contour>
      <point x="6" y="0" type="line"/>
      <point x="702" y="0" type="line"/>
      <point x="702" y="222" type="line"/>
      <point x="464" y="222" type="line"/>
      <point x="598" y="382" type="line" smooth="yes"/>
      <point x="666" y="463"/>
      <point x="696" y="534"/>
      <point x="696" y="614" type="curve" smooth="yes"/>
      <point x="696" y="784"/>
      <point x="553" y="920"/>
      <point x="368" y="920" type="curve" smooth="yes"/>
      <point x="180" y="920"/>
      <point x="30" y="778"/>
      <point x="30" y="599" type="curve" smooth="yes"/>
      <point x="30" y="561"/>
      <point x="38" y="529"/>
      <point x="53" y="500" type="curve"/>
      <point x="316" y="500" type="line"/>
      <point x="295" y="528"/>
      <point x="282" y="560"/>
      <point x="282" y="594" type="curve" smooth="yes"/>
      <point x="282" y="646"/>
      <point x="315" y="680"/>
      <point x="360" y="680" type="curve" smooth="yes"/>
      <point x="404" y="680"/>
      <point x="438" y="648"/>
      <point x="438" y="600" type="curve" smooth="yes"/>
      <point x="438" y="576"/>
      <point x="429" y="552"/>
      <point x="400" y="515" type="curve" smooth="yes"/>
      <point x="6" y="2" type="line"/>
    </contour>
  </outline>
</glyph>
<glyph name="three" format="2">
  <advance width="750"/>
  <unicode hex="0033"/>
  <outline>
    <contour>
      <point x="324" y="-20" type="curve" smooth="yes"/>
      <point x="539" y="-20"/>
      <point x="694" y="121"/>
      <point x="694" y="310" type="curve" smooth="yes"/>
      <point x="694" y="428"/>
      <point x="633" y="531"/>
      <point x="532" y="589" type="curve"/>
      <point x="695" y="898" type="line"/>
      <point x="695" y="900" type="line"/>
      <point x="56" y="900" type="line"/>
      <point x="56" y="678" type="line"/>
      <point x="304" y="678" type="line"/>
      <point x="158" y="387" type="line"/>
      <point x="160" y="385" type="line"/>
      <point x="202" y="397"/>
      <point x="251" y="404"/>
      <point x="287" y="404" type="curve" smooth="yes"/>
      <point x="368" y="404"/>
      <point x="412" y="367"/>
      <point x="412" y="314" type="curve" smooth="yes"/>
      <point x="412" y="261"/>
      <point x="367" y="226"/>
      <point x="306" y="226" type="curve" smooth="yes"/>
      <point x="245" y="226"/>
      <point x="185" y="261"/>
      <point x="128" y="328" type="curve"/>
      <point x="14" y="102" type="line"/>
      <point x="87" y="24"/>
      <point x="204" y="-20"/>
    </contour>
  </outline>
</glyph>
<glyph name="four" format="2">
  <advance width="750"/>
  <unicode hex="0034"/>
  <outline>
    <contour>
      <point x="412" y="0" type="line"/>
      <point x="676" y="0" type="line"/>
      <point x="676" y="194" type="line"/>
      <point x="732" y="194" type="line"/>
      <point x="732" y="398" type="line"/>
      <point x="676" y="398" type="line"/>
      <point x="676" y="638" type="line"/>
      <point x="442" y="508" type="line"/>
      <point x="442" y="398" type="line"/>
      <point x="359" y="398" type="line"/>
      <point x="578" y="900" type="line"/>
      <point x="290" y="900" type="line"/>
      <point x="-18" y="196" type="line"/>
      <point x="-18" y="194" type="line"/>
      <point x="412" y="194" type="line"/>
    </contour>
  </outline>
</glyph>
<glyph name="five" format="2">
  <advance width="750"/>
  <unicode hex="0035"/>
  <outline>
    <contour>
      <point x="337" y="-20" type="curve" smooth="yes"/>
      <point x="549" y="-20"/>
      <point x="694" y="107"/>
      <point x="694" y="293" type="curve" smooth="yes"/>
      <point x="694" y="457"/>
      <point x="582" y="583"/>
      <point x="421" y="602" type="curve" smooth="yes"/>
      <point x="403" y="604"/>
      <point x="387" y="605"/>
      <point x="360" y="605" type="curve"/>
      <point x="360" y="666" type="line"/>
      <point x="664" y="666" type="line"/>
      <point x="664" y="900" type="line"/>
      <point x="114" y="900" type="line"/>
      <point x="114" y="369" type="line"/>
      <point x="116" y="369" type="line"/>
      <point x="176" y="391"/>
      <point x="223" y="400"/>
      <point x="270" y="400" type="curve" smooth="yes"/>
      <point x="362" y="400"/>
      <point x="412" y="366"/>
      <point x="412" y="310" type="curve" smooth="yes"/>
      <point x="412" y="259"/>
      <point x="371" y="226"/>
      <point x="310" y="226" type="curve" smooth="yes"/>
      <point x="248" y="226"/>
      <point x="185" y="261"/>
      <point x="128" y="328" type="curve"/>
      <point x="14" y="102" type="line"/>
      <point x="84" y="27"/>
      <point x="208" y="-20"/>
    </contour>
  </outline>
</glyph>
<glyph name="seven" format="2">
  <advance width="750"/>
  <unicode hex="0037"/>
  <outline>
    <contour>
      <point x="44" y="0" type="line"/>
      <point x="354" y="0" type="line"/>
      <point x="732" y="898" type="line"/>
      <point x="732" y="900" type="line"/>
      <point x="42" y="900" type="line"/>
      <point x="42" y="648" type="line"/>
      <point x="332" y="648" type="line"/>
    </contour>
  </outline>
</glyph>
<glyph name="nine" format="2">
  <advance width="750"/>
  <unicode hex="0039"/>
  <outline>
    <contour>
      <point x="161" y="0" type="line"/>
      <point x="453" y="0" type="line"/>
      <point x="674" y="418" type="line" smooth="yes"/>
      <point x="705" y="477"/>
      <point x="716" y="526"/>
      <point x="716" y="585" type="curve" smooth="yes"/>
      <point x="716" y="774"/>
      <point x="567" y="920"/>
      <point x="373" y="920" type="curve" smooth="yes"/>
      <point x="179" y="920"/>
      <point x="30" y="777"/>
      <point x="30" y="591" type="curve" smooth="yes"/>
      <point x="30" y="420"/>
      <point x="152" y="284"/>
      <point x="304" y="270" type="curve"/>
      <point x="306" y="270"/>
      <point x="308" y="270"/>
      <point x="310" y="270" type="curve"/>
    </contour>
    <contour>
      <point x="373" y="490" type="curve" smooth="yes"/>
      <point x="321" y="490"/>
      <point x="280" y="532"/>
      <point x="280" y="585" type="curve" smooth="yes"/>
      <point x="280" y="638"/>
      <point x="321" y="680"/>
      <point x="373" y="680" type="curve" smooth="yes"/>
      <point x="425" y="680"/>
      <point x="466" y="638"/>
      <point x="466" y="585" type="curve" smooth="yes"/>
      <point x="466" y="532"/>
      <point x="425" y="490"/>
    </contour>
  </outline>
</glyph>
<glyph name="less" format="2">
  <advance width="750"/>
  <unicode hex="003C"/>
  <outline>
    <contour>
      <point x="678" y="95" type="line"/>
      <point x="678" y="325" type="line"/>
      <point x="478" y="408" type="line" smooth="yes"/>
      <point x="444" y="422"/>
      <point x="405" y="437"/>
      <point x="371" y="450" type="curve"/>
      <point x="406" y="465"/>
      <point x="445" y="480"/>
      <point x="478" y="494" type="curve" smooth="yes"/>
      <point x="678" y="577" type="line"/>
      <point x="678" y="805" type="line"/>
      <point x="60" y="531" type="line"/>
      <point x="60" y="369" type="line"/>
    </contour>
  </outline>
</glyph>
<glyph name="equal" format="2">
  <advance width="750"/>
  <unicode hex="003D"/>
  <outline>
    <contour>
      <point x="70" y="486" type="line"/>
      <point x="680" y="486" type="line"/>
      <point x="680" y="660" type="line"/>
      <point x="70" y="660" type="line"/>
    </contour>
    <contour>
      <point x="70" y="240" type="line"/>
      <point x="680" y="240" type="line"/>
      <point x="680" y="414" type="line"/>
      <point x="70" y="414" type="line"/>
    </contour>
  </outline>
</glyph>
<glyph name="greater" format="2">
  <advance width="750"/>
  <unicode hex="003E"/>
  <outline>
    <contour>
      <point x="60" y="95" type="line"/>
      <point x="678" y="369" type="line"/>
      <point x="678" y="531" type="line"/>
      <point x="60" y="805" type="line"/>
      <point x="60" y="575" type="line"/>
      <point x="260" y="492" type="line" smooth="yes"/>
      <point x="294" y="478"/>
      <point x="333" y="463"/>
      <point x="367" y="450" type="curve"/>
      <point x="332" y="435"/>
      <point x="293" y="420"/>
      <point x="260" y="406" type="curve" smooth="yes"/>
      <point x="60" y="323" type="line"/>
    </contour>
  </outline>
</glyph>
<glyph name="question" format="2">
  <advance width="480"/>
  <unicode hex="003F"/>
  <outline>
    <contour>
      <point x="126" y="330" type="curve"/>
      <point x="354" y="330" type="line"/>
      <point x="354" y="471"/>
      <point x="480" y="532"/>
      <point x="480" y="695" type="curve" smooth="yes"/>
      <point x="480" y="836"/>
      <point x="378" y="920"/>
      <point x="228" y="920" type="curve" smooth="yes"/>
      <point x="137" y="920"/>
      <point x="77" y="899"/>
      <point x="24" y="864" type="curve"/>
      <point x="24" y="624" type="line"/>
      <point x="62" y="661"/>
      <point x="110" y="692"/>
      <point x="153" y="692" type="curve" smooth="yes"/>
      <point x="184" y="692"/>
      <point x="204" y="675"/>
      <point x="204" y="649" type="curve" smooth="yes"/>
      <point x="204" y="593"/>
      <point x="126" y="531"/>
    </contour>
    <contour>
      <point x="240" y="-20" type="curve" smooth="yes"/>
      <point x="319" y="-20"/>
      <point x="380" y="41"/>
      <point x="380" y="120" type="curve" smooth="yes"/>
      <point x="380" y="199"/>
      <point x="319" y="260"/>
      <point x="240" y="260" type="curve" smooth="yes"/>
      <point x="161" y="260"/>
      <point x="100" y="199"/>
      <point x="100" y="120" type="curve" smooth="yes"/>
      <point x="100" y="41"/>
      <point x="161" y="-20"/>
    </contour>
  </outline>
</glyph>
<glyph name="at" format="2">
  <advance width="1260"/>
  <unicode hex="0040"/>
  <outline>
    <contour>
      <point x="636" y="-192" type="curve" smooth="yes"/>
      <point x="756" y="-192"/>
      <point x="881" y="-160"/>
      <point x="960" y="-111" type="curve"/>
      <point x="926" y="59" type="line"/>
      <point x="858" y="13"/>
      <point x="753" y="-17"/>
      <point x="652" y="-17" type="curve" smooth="yes"/>
      <point x="422" y="-17"/>
      <point x="261" y="135"/>
      <point x="261" y="356" type="curve" smooth="yes"/>
      <point x="261" y="580"/>
      <point x="428" y="737"/>
      <point x="661" y="737" type="curve" smooth="yes"/>
      <point x="879" y="737"/>
      <point x="1019" y="599"/>
      <point x="1019" y="405" type="curve" smooth="yes"/>
      <point x="1019" y="309"/>
      <point x="984" y="258"/>
      <point x="949" y="258" type="curve" smooth="yes"/>
      <point x="927" y="258"/>
      <point x="915" y="279"/>
      <point x="915" y="314" type="curve" smooth="yes"/>
      <point x="915" y="619" type="line"/>
      <point x="732" y="619" type="line"/>
      <point x="732" y="594" type="line"/>
      <point x="703" y="625"/>
      <point x="655" y="644"/>
      <point x="599" y="644" type="curve" smooth="yes"/>
      <point x="453" y="644"/>
      <point x="334" y="517"/>
      <point x="334" y="359" type="curve" smooth="yes"/>
      <point x="334" y="200"/>
      <point x="457" y="76"/>
      <point x="612" y="76" type="curve" smooth="yes"/>
      <point x="690" y="76"/>
      <point x="753" y="107"/>
      <point x="787" y="155" type="curve"/>
      <point x="825" y="109"/>
      <point x="874" y="87"/>
      <point x="937" y="87" type="curve" smooth="yes"/>
      <point x="1095" y="87"/>
      <point x="1200" y="228"/>
      <point x="1200" y="417" type="curve" smooth="yes"/>
      <point x="1200" y="694"/>
      <point x="976" y="912"/>
      <point x="655" y="912" type="curve" smooth="yes"/>
      <point x="319" y="912"/>
      <point x="66" y="672"/>
      <point x="66" y="355" type="curve" smooth="yes"/>
      <point x="66" y="43"/>
      <point x="312" y="-192"/>
    </contour>
    <contour>
      <point x="632" y="283" type="curve" smooth="yes"/>
      <point x="587" y="283"/>
      <point x="555" y="316"/>
      <point x="555" y="360" type="curve" smooth="yes"/>
      <point x="555" y="404"/>
      <point x="587" y="437"/>
      <point x="632" y="437" type="curve" smooth="yes"/>
      <point x="675" y="437"/>
      <point x="706" y="404"/>
      <point x="706" y="360" type="curve" smooth="yes"/>
      <point x="706" y="316"/>
      <point x="675" y="283"/>
    </contour>
  </outline>
</glyph>
<glyph name="A" format="2">
  <advance width="860"/>
  <unicode hex="0041"/>
  <anchor x="430" y="0" name="bottom"/>
  <anchor x="728" y="0" name="ogonek"/>
  <anchor x="430" y="900" name="top"/>
  <anchor x="150" y="720" name="top-vertical"/>
  <outline>
    <contour>
      <point x="-16" y="0" type="line"/>
      <point x="274" y="0" type="line"/>
      <point x="306" y="75" type="line"/>
      <point x="548" y="75" type="line"/>
      <point x="580" y="0" type="line"/>
      <point x="876" y="0" type="line"/>
      <point x="505" y="900" type="line"/>
      <point x="353" y="900" type="line"/>
    </contour>
    <contour>
      <point x="363" y="237" type="line"/>
      <point x="374" y="266" type="line" smooth="yes"/>
      <point x="396" y="324"/>
      <point x="408" y="362"/>
      <point x="427" y="431" type="curve"/>
      <point x="445" y="362"/>
      <point x="458" y="322"/>
      <point x="480" y="266" type="curve" smooth="yes"/>
      <point x="491" y="237" type="line"/>
    </contour>
  </outline>
</glyph>
<glyph name="B" format="2">
  <advance width="830"/>
  <unicode hex="0042"/>
  <outline>
    <contour>
      <point x="60" y="0" type="line"/>
      <point x="453" y="0" type="line" smooth="yes"/>
      <point x="659" y="0"/>
      <point x="806" y="119"/>
      <point x="806" y="296" type="curve" smooth="yes"/>
      <point x="806" y="379"/>
      <point x="772" y="452"/>
      <point x="706" y="503" type="curve"/>
      <point x="744" y="542"/>
      <point x="761" y="592"/>
      <point x="761" y="646" type="curve" smooth="yes"/>
      <point x="761" y="798"/>
      <point x="636" y="900"/>
      <point x="461" y="900" type="curve" smooth="yes"/>
      <point x="60" y="900" type="line"/>
    </contour>
    <contour>
      <point x="348" y="222" type="line"/>
      <point x="348" y="396" type="line"/>
      <point x="426" y="396" type="line" smooth="yes"/>
      <point x="481" y="396"/>
      <point x="518" y="364"/>
      <point x="518" y="309" type="curve" smooth="yes"/>
      <point x="518" y="256"/>
      <point x="479" y="222"/>
      <point x="426" y="222" type="curve" smooth="yes"/>
    </contour>
    <contour>
      <point x="348" y="564" type="line"/>
      <point x="348" y="708" type="line"/>
      <point x="420" y="708" type="line" smooth="yes"/>
      <point x="464" y="708"/>
      <point x="497" y="680"/>
      <point x="497" y="636" type="curve" smooth="yes"/>
      <point x="497" y="591"/>
      <point x="465" y="564"/>
      <point x="420" y="564" type="curve" smooth="yes"/>
    </contour>
  </outline>
</glyph>
<glyph name="C" format="2">
  <advance width="830"/>
  <unicode hex="0043"/>
  <anchor x="523" y="0" name="bottom"/>
  <anchor x="523" y="900" name="top"/>
  <outline>
    <contour>
      <point x="522" y="-20" type="curve" smooth="yes"/>
      <point x="629" y="-20"/>
      <point x="736" y="12"/>
      <point x="814" y="68" type="curve"/>
      <point x="738" y="377" type="line"/>
      <point x="685" y="306"/>
      <point x="615" y="268"/>
      <point x="540" y="268" type="curve" smooth="yes"/>
      <point x="436" y="268"/>
      <point x="356" y="348"/>
      <point x="356" y="450" type="curve" smooth="yes"/>
      <point x="356" y="552"/>
      <point x="436" y="632"/>
      <point x="540" y="632" type="curve" smooth="yes"/>
      <point x="615" y="632"/>
      <point x="685" y="594"/>
      <point x="738" y="523" type="curve"/>
      <point x="814" y="832" type="line"/>
      <point x="736" y="888"/>
      <point x="629" y="920"/>
      <point x="522" y="920" type="curve" smooth="yes"/>
      <point x="249" y="920"/>
      <point x="38" y="715"/>
      <point x="38" y="450" type="curve" smooth="yes"/>
      <point x="38" y="185"/>
      <point x="249" y="-20"/>
    </contour>
  </outline>
</glyph>
<glyph name="D" format="2">
  <advance width="940"/>
  <unicode hex="0044"/>
  <anchor x="432" y="0" name="bottom"/>
  <anchor x="195" y="456" name="center"/>
  <anchor x="432" y="900" name="top"/>
  <outline>
    <contour>
      <point x="60" y="0" type="line"/>
      <point x="432" y="0" type="line" smooth="yes"/>
      <point x="698" y="0"/>
      <point x="902" y="196"/>
      <point x="902" y="450" type="curve" smooth="yes"/>
      <point x="902" y="704"/>
      <point x="697" y="900"/>
      <point x="432" y="900" type="curve" smooth="yes"/>
      <point x="60" y="900" type="line"/>
    </contour>
    <contour>
      <point x="348" y="276" type="line"/>
      <point x="348" y="624" type="line"/>
      <point x="415" y="624" type="line" smooth="yes"/>
      <point x="523" y="624"/>
      <point x="604" y="550"/>
      <point x="604" y="450" type="curve" smooth="yes"/>
      <point x="604" y="350"/>
      <point x="523" y="276"/>
      <point x="415" y="276" type="curve" smooth="yes"/>
    </contour>
  </outline>
</glyph>
<glyph name="E" format="2">
  <advance width="660"/>
  <unicode hex="0045"/>
  <anchor x="339" y="0" name="bottom"/>
  <anchor x="513" y="0" name="ogonek"/>
  <anchor x="339" y="900" name="top"/>
  <anchor x="60" y="900" name="topleft"/>
  <outline>
    <contour>
      <point x="60" y="0" type="line"/>
      <point x="618" y="0" type="line"/>
      <point x="618" y="240" type="line"/>
      <point x="342" y="240" type="line"/>
      <point x="342" y="378" type="line"/>
      <point x="576" y="378" type="line"/>
      <point x="576" y="570" type="line"/>
      <point x="342" y="570" type="line"/>
      <point x="342" y="666" type="line"/>
      <point x="618" y="666" type="line"/>
      <point x="618" y="900" type="line"/>
      <point x="60" y="900" type="line"/>
    </contour>
  </outline>
</glyph>
<glyph name="F" format="2">
  <advance width="630"/>
  <unicode hex="0046"/>
  <outline>
    <contour>
      <point x="60" y="0" type="line"/>
      <point x="360" y="0" type="line"/>
      <point x="360" y="351" type="line"/>
      <point x="564" y="351" type="line"/>
      <point x="564" y="549" type="line"/>
      <point x="360" y="549" type="line"/>
      <point x="360" y="660" type="line"/>
      <point x="594" y="660" type="line"/>
      <point x="594" y="900" type="line"/>
      <point x="60" y="900" type="line"/>
    </contour>
  </outline>
</glyph>
<glyph name="G" format="2">
  <advance width="910"/>
  <unicode hex="0047"/>
  <anchor x="519" y="0" name="bottom"/>
  <anchor x="766" y="270" name="center"/>
  <anchor x="520" y="900" name="top"/>
  <outline>
    <contour>
      <point x="528" y="-20" type="curve" smooth="yes"/>
      <point x="649" y="-20"/>
      <point x="776" y="19"/>
      <point x="859" y="87" type="curve"/>
      <point x="859" y="524" type="line"/>
      <point x="477" y="524" type="line"/>
      <point x="477" y="338" type="line"/>
      <point x="613" y="338" type="line"/>
      <point x="614" y="256" type="line"/>
      <point x="588" y="243"/>
      <point x="563" y="238"/>
      <point x="536" y="238" type="curve" smooth="yes"/>
      <point x="422" y="238"/>
      <point x="336" y="321"/>
      <point x="336" y="445" type="curve" smooth="yes"/>
      <point x="336" y="569"/>
      <point x="422" y="656"/>
      <point x="546" y="656" type="curve" smooth="yes"/>
      <point x="628" y="656"/>
      <point x="715" y="618"/>
      <point x="780" y="550" type="curve"/>
      <point x="847" y="826" type="line"/>
      <point x="763" y="887"/>
      <point x="645" y="920"/>
      <point x="532" y="920" type="curve" smooth="yes"/>
      <point x="252" y="920"/>
      <point x="38" y="716"/>
      <point x="38" y="450" type="curve" smooth="yes"/>
      <point x="38" y="185"/>
      <point x="252" y="-20"/>
    </contour>
  </outline>
</glyph>
<glyph name="H" format="2">
  <advance width="900"/>
  <unicode hex="0048"/>
  <anchor x="449" y="0" name="bottom"/>
  <anchor x="449" y="750" name="center"/>
  <anchor x="449" y="900" name="top"/>
  <anchor x="115" y="900" name="topleft"/>
  <outline>
    <contour>
      <point x="60" y="0" type="line"/>
      <point x="354" y="0" type="line"/>
      <point x="354" y="378" type="line"/>
      <point x="546" y="378" type="line"/>
      <point x="546" y="0" type="line"/>
      <point x="840" y="0" type="line"/>
      <point x="840" y="900" type="line"/>
      <point x="546" y="900" type="line"/>
      <point x="546" y="630" type="line"/>
      <point x="354" y="630" type="line"/>
      <point x="354" y="900" type="line"/>
      <point x="60" y="900" type="line"/>
    </contour>
  </outline>
</glyph>
<glyph name="I" format="2">
  <advance width="420"/>
  <unicode hex="0049"/>
  <anchor x="210" y="0" name="bottom"/>
  <anchor x="210" y="0" name="ogonek"/>
  <anchor x="210" y="900" name="top"/>
  <anchor x="8" y="900" name="topleft"/>
  <outline>
    <contour>
      <point x="60" y="0" type="line"/>
      <point x="360" y="0" type="line"/>
      <point x="360" y="900" type="line"/>
      <point x="60" y="900" type="line"/>
    </contour>
  </outline>
</glyph>
<glyph name="J" format="2">
  <advance width="580"/>
  <unicode hex="004A"/>
  <anchor x="302" y="0" name="bottom"/>
  <anchor x="387" y="900" name="top"/>
  <outline>
    <contour>
      <point x="214" y="-20" type="curve" smooth="yes"/>
      <point x="405" y="-20"/>
      <point x="528" y="104"/>
      <point x="528" y="296" type="curve" smooth="yes"/>
      <point x="528" y="900" type="line"/>
      <point x="234" y="900" type="line"/>
      <point x="234" y="334" type="line" smooth="yes"/>
      <point x="234" y="276"/>
      <point x="204" y="238"/>
      <point x="158" y="238" type="curve" smooth="yes"/>
      <point x="124" y="238"/>
      <point x="95" y="253"/>
      <point x="74" y="282" type="curve"/>
      <point x="6" y="46" type="line"/>
      <point x="53" y="4"/>
      <point x="129" y="-20"/>
    </contour>
  </outline>
</glyph>
<glyph name="K" format="2">
  <advance width="880"/>
  <unicode hex="004B"/>
  <anchor x="446" y="0" name="bottom"/>
  <anchor x="378" y="900" name="top"/>
  <outline>
    <contour>
      <point x="560" y="0" type="line"/>
      <point x="886" y="0" type="line"/>
      <point x="629" y="530" type="line"/>
      <point x="830" y="900" type="line"/>
      <point x="512" y="900" type="line"/>
      <point x="312" y="525" type="line"/>
    </contour>
    <contour>
      <point x="60" y="0" type="line"/>
      <point x="348" y="0" type="line"/>
      <point x="348" y="900" type="line"/>
      <point x="60" y="900" type="line"/>
    </contour>
  </outline>
</glyph>
<glyph name="L" format="2">
  <advance width="630"/>
  <unicode hex="004C"/>
  <anchor x="327" y="0" name="bottom"/>
  <anchor x="219" y="450" name="center"/>
  <anchor x="500" y="510" name="periodcentered"/>
  <anchor x="219" y="900" name="top"/>
  <anchor x="354" y="900" name="topright"/>
  <outline>
    <contour>
      <point x="60" y="0" type="line"/>
      <point x="594" y="0" type="line"/>
      <point x="594" y="252" type="line"/>
      <point x="366" y="252" type="line"/>
      <point x="366" y="900" type="line"/>
      <point x="60" y="900" type="line"/>
    </contour>
  </outline>
</glyph>
<glyph name="M" format="2">
  <advance width="1080"/>
  <unicode hex="004D"/>
  <outline>
    <contour>
      <point x="60" y="0" type="line"/>
      <point x="346" y="0" type="line"/>
      <point x="346" y="122" type="line" smooth="yes"/>
      <point x="346" y="182"/>
      <point x="346" y="253"/>
      <point x="336" y="340" type="curve"/>
      <point x="378" y="276"/>
      <point x="417" y="225"/>
      <point x="449" y="187" type="curve" smooth="yes"/>
      <point x="534" y="85" type="line"/>
      <point x="619" y="187" type="line" smooth="yes"/>
      <point x="651" y="225"/>
      <point x="690" y="276"/>
      <point x="732" y="340" type="curve"/>
      <point x="722" y="253"/>
      <point x="722" y="182"/>
      <point x="722" y="122" type="curve" smooth="yes"/>
      <point x="722" y="0" type="line"/>
      <point x="1020" y="0" type="line"/>
      <point x="1020" y="900" type="line"/>
      <point x="840" y="900" type="line"/>
      <point x="540" y="484" type="line"/>
      <point x="240" y="900" type="line"/>
      <point x="60" y="900" type="line"/>
    </contour>
  </outline>
</glyph>
<glyph name="N" format="2">
  <advance width="920"/>
  <unicode hex="004E"/>
  <anchor x="520" y="30" name="bottom"/>
  <anchor x="430" y="870" name="top"/>
  <outline>
    <contour>
      <point x="698" y="0" type="line"/>
      <point x="860" y="0" type="line"/>
      <point x="860" y="900" type="line"/>
      <point x="578" y="900" type="line"/>
      <point x="578" y="521" type="line"/>
      <point x="222" y="900" type="line"/>
      <point x="60" y="900" type="line"/>
      <point x="60" y="0" type="line"/>
      <point x="342" y="0" type="line"/>
      <point x="342" y="381" type="line"/>
    </contour>
  </outline>
</glyph>
<glyph name="O" format="2">
  <advance width="1040"/>
  <unicode hex="004F"/>
  <anchor x="520" y="0" name="bottom"/>
  <anchor x="520" y="450" name="center"/>
  <anchor x="552" y="0" name="ogonek"/>
  <anchor x="520" y="900" name="top"/>
  <anchor x="520" y="450" name="top-vertical"/>
  <anchor x="50" y="900" name="topleft"/>
  <anchor x="990" y="900" name="topright"/>
  <outline>
    <contour>
      <point x="520" y="-20" type="curve" smooth="yes"/>
      <point x="790" y="-20"/>
      <point x="1002" y="189"/>
      <point x="1002" y="450" type="curve" smooth="yes"/>
      <point x="1002" y="710"/>
      <point x="790" y="920"/>
      <point x="520" y="920" type="curve" smooth="yes"/>
      <point x="250" y="920"/>
      <point x="38" y="710"/>
      <point x="38" y="450" type="curve" smooth="yes"/>
      <point x="38" y="189"/>
      <point x="250" y="-20"/>
    </contour>
    <contour>
      <point x="520" y="268" type="curve" smooth="yes"/>
      <point x="417" y="268"/>
      <point x="336" y="350"/>
      <point x="336" y="450" type="curve" smooth="yes"/>
      <point x="336" y="550"/>
      <point x="417" y="632"/>
      <point x="520" y="632" type="curve" smooth="yes"/>
      <point x="623" y="632"/>
      <point x="704" y="550"/>
      <point x="704" y="450" type="curve" smooth="yes"/>
      <point x="704" y="350"/>
      <point x="623" y="268"/>
    </contour>
  </outline>
</glyph>
<glyph name="P" format="2">
  <advance width="800"/>
  <unicode hex="0050"/>
  <outline>
    <contour>
      <point x="60" y="0" type="line"/>
      <point x="348" y="0" type="line"/>
      <point x="348" y="258" type="line"/>
      <point x="429" y="258" type="line" smooth="yes"/>
      <point x="634" y="258"/>
      <point x="782" y="388"/>
      <point x="782" y="578" type="curve" smooth="yes"/>
      <point x="782" y="771"/>
      <point x="635" y="900"/>
      <point x="429" y="900" type="curve" smooth="yes"/>
      <point x="60" y="900" type="line"/>
    </contour>
    <contour>
      <point x="348" y="480" type="line"/>
      <point x="348" y="666" type="line"/>
      <point x="396" y="666" type="line" smooth="yes"/>
      <point x="452" y="666"/>
      <point x="494" y="630"/>
      <point x="494" y="573" type="curve" smooth="yes"/>
      <point x="494" y="514"/>
      <point x="454" y="480"/>
      <point x="396" y="480" type="curve" smooth="yes"/>
    </contour>
  </outline>
</glyph>
<glyph name="Q" format="2">
  <advance width="1040"/>
  <unicode hex="0051"/>
  <outline>
    <contour>
      <point x="742" y="-30" type="line"/>
      <point x="1066" y="-30" type="line"/>
      <point x="904" y="165" type="line"/>
      <point x="965" y="244"/>
      <point x="1002" y="343"/>
      <point x="1002" y="450" type="curve" smooth="yes"/>
      <point x="1002" y="710"/>
      <point x="790" y="920"/>
      <point x="520" y="920" type="curve" smooth="yes"/>
      <point x="250" y="920"/>
      <point x="38" y="710"/>
      <point x="38" y="450" type="curve" smooth="yes"/>
      <point x="38" y="189"/>
      <point x="250" y="-20"/>
      <point x="520" y="-20" type="curve" smooth="yes"/>
      <point x="586" y="-20"/>
      <point x="648" y="-8"/>
      <point x="705" y="15" type="curve"/>
    </contour>
    <contour>
      <point x="520" y="248" type="curve" smooth="yes"/>
      <point x="421" y="248"/>
      <point x="336" y="335"/>
      <point x="336" y="440" type="curve" smooth="yes"/>
      <point x="336" y="546"/>
      <point x="421" y="632"/>
      <point x="530" y="632" type="curve" smooth="yes"/>
      <point x="639" y="632"/>
      <point x="724" y="546"/>
      <point x="724" y="440" type="curve" smooth="yes"/>
      <point x="724" y="417"/>
      <point x="720" y="394"/>
      <point x="712" y="374" type="curve"/>
      <point x="648" y="450" type="line"/>
      <point x="359" y="450" type="line"/>
      <point x="525" y="248" type="line"/>
      <point x="523" y="248"/>
      <point x="522" y="248"/>
    </contour>
  </outline>
</glyph>
<glyph name="R" format="2">
  <advance width="850"/>
  <unicode hex="0052"/>
  <anchor x="448" y="0" name="bottom"/>
  <anchor x="392" y="900" name="top"/>
  <outline>
    <contour>
      <point x="60" y="0" type="line"/>
      <point x="348" y="0" type="line"/>
      <point x="348" y="294" type="line"/>
      <point x="409" y="294" type="line"/>
      <point x="544" y="0" type="line"/>
      <point x="856" y="0" type="line"/>
      <point x="675" y="366" type="line"/>
      <point x="743" y="420"/>
      <point x="783" y="501"/>
      <point x="783" y="596" type="curve" smooth="yes"/>
      <point x="783" y="778"/>
      <point x="641" y="900"/>
      <point x="443" y="900" type="curve" smooth="yes"/>
      <point x="60" y="900" type="line"/>
    </contour>
    <contour>
      <point x="348" y="504" type="line"/>
      <point x="348" y="678" type="line"/>
      <point x="403" y="678" type="line" smooth="yes"/>
      <point x="456" y="678"/>
      <point x="495" y="644"/>
      <point x="495" y="591" type="curve" smooth="yes"/>
      <point x="495" y="536"/>
      <point x="458" y="504"/>
      <point x="403" y="504" type="curve" smooth="yes"/>
    </contour>
  </outline>
</glyph>
<glyph name="S" format="2">
  <advance width="700"/>
  <unicode hex="0053"/>
  <anchor x="342" y="0" name="bottom"/>
  <anchor x="377" y="900" name="top"/>
  <outline>
    <contour>
      <point x="342" y="-20" type="curve" smooth="yes"/>
      <point x="546" y="-20"/>
      <point x="682" y="95"/>
      <point x="682" y="268" type="curve" smooth="yes"/>
      <point x="682" y="395"/>
      <point x="619" y="484"/>
      <point x="474" y="554" type="curve" smooth="yes"/>
      <point x="354" y="612" type="line" smooth="yes"/>
      <point x="324" y="627"/>
      <point x="312" y="636"/>
      <point x="312" y="648" type="curve" smooth="yes"/>
      <point x="312" y="664"/>
      <point x="331" y="672"/>
      <point x="363" y="672" type="curve" smooth="yes"/>
      <point x="434" y="672"/>
      <point x="526" y="633"/>
      <point x="591" y="573" type="curve"/>
      <point x="657" y="839" type="line"/>
      <point x="570" y="893"/>
      <point x="475" y="920"/>
      <point x="377" y="920" type="curve" smooth="yes"/>
      <point x="175" y="920"/>
      <point x="42" y="804"/>
      <point x="42" y="626" type="curve" smooth="yes"/>
      <point x="42" y="503"/>
      <point x="105" y="421"/>
      <point x="267" y="343" type="curve" smooth="yes"/>
      <point x="360" y="298" type="line" smooth="yes"/>
      <point x="396" y="280"/>
      <point x="412" y="268"/>
      <point x="412" y="253" type="curve" smooth="yes"/>
      <point x="412" y="236"/>
      <point x="393" y="228"/>
      <point x="355" y="228" type="curve" smooth="yes"/>
      <point x="269" y="228"/>
      <point x="169" y="278"/>
      <point x="100" y="357" type="curve"/>
      <point x="30" y="79" type="line"/>
      <point x="101" y="19"/>
      <point x="223" y="-20"/>
    </contour>
  </outline>
</glyph>
<glyph name="T" format="2">
  <advance width="730"/>
  <unicode hex="0054"/>
  <anchor x="365" y="0" name="bottom"/>
  <anchor x="365" y="443" name="center"/>
  <anchor x="365" y="900" name="top"/>
  <outline>
    <contour>
      <point x="215" y="0" type="line"/>
      <point x="515" y="0" type="line"/>
      <point x="515" y="648" type="line"/>
      <point x="694" y="648" type="line"/>
      <point x="694" y="900" type="line"/>
      <point x="36" y="900" type="line"/>
      <point x="36" y="648" type="line"/>
      <point x="215" y="648" type="line"/>
    </contour>
  </outline>
</glyph>
<glyph name="U" format="2">
  <advance width="860"/>
  <unicode hex="0055"/>
  <anchor x="431" y="0" name="bottom"/>
  <anchor x="463" y="0" name="ogonek"/>
  <anchor x="433" y="900" name="top"/>
  <anchor x="433" y="720" name="top-vertical"/>
  <anchor x="790" y="900" name="topright"/>
  <outline>
    <contour>
      <point x="430" y="-20" type="curve" smooth="yes"/>
      <point x="651" y="-20"/>
      <point x="808" y="97"/>
      <point x="808" y="329" type="curve" smooth="yes"/>
      <point x="808" y="900" type="line"/>
      <point x="520" y="900" type="line"/>
      <point x="520" y="364" type="line" smooth="yes"/>
      <point x="520" y="290"/>
      <point x="483" y="256"/>
      <point x="433" y="256" type="curve" smooth="yes"/>
      <point x="383" y="256"/>
      <point x="346" y="290"/>
      <point x="346" y="364" type="curve" smooth="yes"/>
      <point x="346" y="900" type="line"/>
      <point x="52" y="900" type="line"/>
      <point x="52" y="329" type="line" smooth="yes"/>
      <point x="52" y="97"/>
      <point x="209" y="-20"/>
    </contour>
  </outline>
</glyph>
<glyph name="V" format="2">
  <advance width="880"/>
  <unicode hex="0056"/>
  <outline>
    <contour>
      <point x="364" y="1" type="line"/>
      <point x="516" y="1" type="line"/>
      <point x="896" y="900" type="line"/>
      <point x="580" y="900" type="line"/>
      <point x="489" y="676" type="line" smooth="yes"/>
      <point x="468" y="625"/>
      <point x="455" y="589"/>
      <point x="443" y="533" type="curve"/>
      <point x="431" y="589"/>
      <point x="418" y="626"/>
      <point x="397" y="676" type="curve" smooth="yes"/>
      <point x="306" y="900" type="line"/>
      <point x="-16" y="900" type="line"/>
    </contour>
  </outline>
</glyph>
<glyph name="W" format="2">
  <advance width="1280"/>
  <unicode hex="0057"/>
  <anchor x="652" y="0" name="bottom"/>
  <anchor x="643" y="900" name="top"/>
  <outline>
    <contour>
      <point x="341" y="0" type="line"/>
      <point x="521" y="0" type="line"/>
      <point x="588" y="191" type="line" smooth="yes"/>
      <point x="605" y="240"/>
      <point x="623" y="288"/>
      <point x="640" y="342" type="curve"/>
      <point x="657" y="288"/>
      <point x="675" y="240"/>
      <point x="692" y="191" type="curve" smooth="yes"/>
      <point x="759" y="0" type="line"/>
      <point x="939" y="0" type="line"/>
      <point x="1296" y="900" type="line"/>
      <point x="978" y="900" type="line"/>
      <point x="887" y="659" type="line" smooth="yes"/>
      <point x="868" y="609"/>
      <point x="856" y="574"/>
      <point x="844" y="523" type="curve"/>
      <point x="830" y="573"/>
      <point x="818" y="610"/>
      <point x="802" y="659" type="curve" smooth="yes"/>
      <point x="721" y="900" type="line"/>
      <point x="565" y="900" type="line"/>
      <point x="483" y="659" type="line" smooth="yes"/>
      <point x="466" y="609"/>
      <point x="455" y="574"/>
      <point x="443" y="523" type="curve"/>
      <point x="430" y="574"/>
      <point x="417" y="611"/>
      <point x="399" y="659" type="curve" smooth="yes"/>
      <point x="308" y="900" type="line"/>
      <point x="-16" y="900" type="line"/>
    </contour>
  </outline>
</glyph>
<glyph name="X" format="2">
  <advance width="890"/>
  <unicode hex="0058"/>
  <outline>
    <contour>
      <point x="-16" y="0" type="line"/>
      <point x="299" y="0" type="line"/>
      <point x="394" y="192" type="line" smooth="yes"/>
      <point x="410" y="224"/>
      <point x="425" y="254"/>
      <point x="440" y="290" type="curve"/>
      <point x="455" y="254"/>
      <point x="470" y="224"/>
      <point x="486" y="192" type="curve" smooth="yes"/>
      <point x="581" y="0" type="line"/>
      <point x="906" y="0" type="line"/>
      <point x="642" y="510" type="line"/>
      <point x="860" y="900" type="line"/>
      <point x="553" y="900" type="line"/>
      <point x="483" y="768" type="line" smooth="yes"/>
      <point x="472" y="747"/>
      <point x="461" y="727"/>
      <point x="450" y="703" type="curve"/>
      <point x="439" y="727"/>
      <point x="428" y="747"/>
      <point x="417" y="767" type="curve" smooth="yes"/>
      <point x="347" y="900" type="line"/>
      <point x="30" y="900" type="line"/>
      <point x="248" y="510" type="line"/>
    </contour>
  </outline>
</glyph>
<glyph name="Y" format="2">
  <advance width="770"/>
  <unicode hex="0059"/>
  <anchor x="386" y="0" name="bottom"/>
  <anchor x="386" y="900" name="top"/>
  <anchor x="63" y="900" name="topleft"/>
  <outline>
    <contour>
      <point x="238" y="0" type="line"/>
      <point x="532" y="0" type="line"/>
      <point x="532" y="390" type="line"/>
      <point x="788" y="900" type="line"/>
      <point x="483" y="900" type="line"/>
      <point x="436" y="792" type="line" smooth="yes"/>
      <point x="422" y="761"/>
      <point x="406" y="725"/>
      <point x="390" y="682" type="curve"/>
      <point x="374" y="724"/>
      <point x="358" y="760"/>
      <point x="344" y="791" type="curve" smooth="yes"/>
      <point x="296" y="900" type="line"/>
      <point x="-18" y="900" type="line"/>
      <point x="238" y="390" type="line"/>
    </contour>
  </outline>
</glyph>
<glyph name="Z" format="2">
  <advance width="730"/>
  <unicode hex="005A"/>
  <anchor x="363" y="0" name="bottom"/>
  <anchor x="372" y="450" name="center"/>
  <anchor x="393" y="900" name="top"/>
  <outline>
    <contour>
      <point x="6" y="0" type="line"/>
      <point x="700" y="0" type="line"/>
      <point x="700" y="252" type="line"/>
      <point x="422" y="252" type="line"/>
      <point x="724" y="898" type="line"/>
      <point x="724" y="900" type="line"/>
      <point x="36" y="900" type="line"/>
      <point x="36" y="648" type="line"/>
      <point x="308" y="648" type="line"/>
      <point x="6" y="2" type="line"/>
    </contour>
  </outline>
</glyph>
<glyph name="backslash" format="2">
  <advance width="560"/>
  <unicode hex="005C"/>
  <outline>
    <contour>
      <point x="428" y="-180" type="line"/>
      <point x="638" y="-180" type="line"/>
      <point x="132" y="960" type="line"/>
      <point x="-78" y="960" type="line"/>
    </contour>
  </outline>
</glyph>
<glyph name="bracketright" format="2">
  <advance width="480"/>
  <unicode hex="005D"/>
  <outline>
    <contour>
      <point x="48" y="-180" type="line"/>
      <point x="420" y="-180" type="line"/>
      <point x="420" y="960" type="line"/>
      <point x="48" y="960" type="line"/>
      <point x="48" y="784" type="line"/>
      <point x="180" y="784" type="line"/>
      <point x="180" y="-3" type="line"/>
      <point x="48" y="-3" type="line"/>
    </contour>
  </outline>
</glyph>
<glyph name="asciicircum" format="2">
  <advance width="750"/>
  <unicode hex="005E"/>
  <outline>
    <contour>
      <point x="20" y="150" type="line"/>
      <point x="250" y="150" type="line"/>
      <point x="333" y="350" type="line" smooth="yes"/>
      <point x="347" y="384"/>
      <point x="362" y="423"/>
      <point x="375" y="457" type="curve"/>
      <point x="390" y="422"/>
      <point x="405" y="383"/>
      <point x="419" y="350" type="curve" smooth="yes"/>
      <point x="502" y="150" type="line"/>
      <point x="730" y="150" type="line"/>
      <point x="456" y="768" type="line"/>
      <point x="294" y="768" type="line"/>
    </contour>
  </outline>
</glyph>
<glyph name="a" format="2">
  <advance width="760"/>
  <unicode hex="0061"/>
  <anchor x="415" y="0" name="bottom"/>
  <anchor x="607" y="0" name="ogonek"/>
  <anchor x="390" y="630" name="top"/>
  <outline>
    <contour>
      <point x="340" y="-14" type="curve" smooth="yes"/>
      <point x="405" y="-14"/>
      <point x="460" y="6"/>
      <point x="502" y="44" type="curve"/>
      <point x="502" y="0" type="line"/>
      <point x="712" y="0" type="line"/>
      <point x="712" y="630" type="line"/>
      <point x="502" y="630" type="line"/>
      <point x="502" y="586" type="line"/>
      <point x="460" y="624"/>
      <point x="405" y="644"/>
      <point x="340" y="644" type="curve" smooth="yes"/>
      <point x="167" y="644"/>
      <point x="27" y="497"/>
      <point x="27" y="315" type="curve" smooth="yes"/>
      <point x="27" y="133"/>
      <point x="167" y="-14"/>
    </contour>
    <contour>
      <point x="370" y="220" type="curve" smooth="yes"/>
      <point x="317" y="220"/>
      <point x="277" y="260"/>
      <point x="277" y="315" type="curve" smooth="yes"/>
      <point x="277" y="370"/>
      <point x="317" y="410"/>
      <point x="370" y="410" type="curve" smooth="yes"/>
      <point x="423" y="410"/>
      <point x="463" y="369"/>
      <point x="463" y="315" type="curve" smooth="yes"/>
      <point x="463" y="261"/>
      <point x="423" y="220"/>
    </contour>
  </outline>
</glyph>
<glyph name="b" format="2">
  <advance width="760"/>
  <unicode hex="0062"/>
  <anchor x="386" y="0" name="bottom"/>
  <anchor x="386" y="914" name="top"/>
  <outline>
    <contour>
      <point x="432" y="-14" type="curve" smooth="yes"/>
      <point x="601" y="-14"/>
      <point x="733" y="130"/>
      <point x="733" y="315" type="curve" smooth="yes"/>
      <point x="733" y="500"/>
      <point x="598" y="644"/>
      <point x="424" y="644" type="curve" smooth="yes"/>
      <point x="383" y="644"/>
      <point x="342" y="636"/>
      <point x="306" y="620" type="curve"/>
      <point x="306" y="960" type="line"/>
      <point x="48" y="960" type="line"/>
      <point x="48" y="0" type="line"/>
      <point x="270" y="0" type="line"/>
      <point x="270" y="42" type="line"/>
      <point x="312" y="5"/>
      <point x="367" y="-14"/>
    </contour>
    <contour>
      <point x="390" y="220" type="curve" smooth="yes"/>
      <point x="337" y="220"/>
      <point x="297" y="260"/>
      <point x="297" y="315" type="curve" smooth="yes"/>
      <point x="297" y="370"/>
      <point x="337" y="410"/>
      <point x="390" y="410" type="curve" smooth="yes"/>
      <point x="443" y="410"/>
      <point x="483" y="369"/>
      <point x="483" y="315" type="curve" smooth="yes"/>
      <point x="483" y="261"/>
      <point x="443" y="220"/>
    </contour>
  </outline>
</glyph>
<glyph name="c" format="2">
  <advance width="600"/>
  <unicode hex="0063"/>
  <anchor x="371" y="0" name="bottom"/>
  <anchor x="377" y="630" name="top"/>
  <outline>
    <contour>
      <point x="380" y="-20" type="curve" smooth="yes"/>
      <point x="458" y="-20"/>
      <point x="532" y="1"/>
      <point x="588" y="39" type="curve"/>
      <point x="529" y="279" type="line"/>
      <point x="491" y="238"/>
      <point x="448" y="220"/>
      <point x="402" y="220" type="curve" smooth="yes"/>
      <point x="342" y="220"/>
      <point x="297" y="257"/>
      <point x="297" y="315" type="curve" smooth="yes"/>
      <point x="297" y="372"/>
      <point x="340" y="410"/>
      <point x="399" y="410" type="curve" smooth="yes"/>
      <point x="442" y="410"/>
      <point x="486" y="392"/>
      <point x="523" y="351" type="curve"/>
      <point x="582" y="591" type="line"/>
      <point x="526" y="629"/>
      <point x="453" y="650"/>
      <point x="377" y="650" type="curve" smooth="yes"/>
      <point x="178" y="650"/>
      <point x="27" y="506"/>
      <point x="27" y="315" type="curve" smooth="yes"/>
      <point x="27" y="124"/>
      <point x="178" y="-20"/>
    </contour>
  </outline>
</glyph>
<glyph name="e" format="2">
  <advance width="720"/>
  <unicode hex="0065"/>
  <anchor x="411" y="0" name="bottom"/>
  <anchor x="516" y="0" name="ogonek"/>
  <anchor x="370" y="630" name="top"/>
  <outline>
    <contour>
      <point x="404" y="-20" type="curve" smooth="yes"/>
      <point x="492" y="-20"/>
      <point x="572" y="1"/>
      <point x="629" y="39" type="curve"/>
      <point x="580" y="235" type="line"/>
      <point x="540" y="201"/>
      <point x="481" y="184"/>
      <point x="419" y="184" type="curve" smooth="yes"/>
      <point x="350" y="184"/>
      <point x="304" y="205"/>
      <point x="276" y="253" type="curve"/>
      <point x="306" y="249"/>
      <point x="335" y="247"/>
      <point x="358" y="247" type="curve" smooth="yes"/>
      <point x="699" y="247" type="line"/>
      <point x="699" y="323" type="line" smooth="yes"/>
      <point x="699" y="512"/>
      <point x="561" y="650"/>
      <point x="370" y="650" type="curve" smooth="yes"/>
      <point x="173" y="650"/>
      <point x="27" y="508"/>
      <point x="27" y="316" type="curve" smooth="yes"/>
      <point x="27" y="116"/>
      <point x="179" y="-20"/>
    </contour>
    <contour>
      <point x="271" y="385" type="curve"/>
      <point x="287" y="435"/>
      <point x="321" y="460"/>
      <point x="365" y="460" type="curve" smooth="yes"/>
      <point x="409" y="460"/>
      <point x="443" y="435"/>
      <point x="460" y="385" type="curve"/>
      <point x="436" y="388"/>
      <point x="399" y="391"/>
      <point x="378" y="391" type="curve" smooth="yes"/>
      <point x="350" y="391" type="line" smooth="yes"/>
      <point x="328" y="391"/>
      <point x="299" y="388"/>
    </contour>
  </outline>
</glyph>
<glyph name="f" format="2">
  <advance width="450"/>
  <unicode hex="0066"/>
  <anchor x="223" y="0" name="bottom"/>
  <anchor x="367" y="960" name="top"/>
  <outline>
    <contour>
      <point x="93" y="0" type="line"/>
      <point x="351" y="0" type="line"/>
      <point x="351" y="426" type="line"/>
      <point x="432" y="426" type="line"/>
      <point x="432" y="630" type="line"/>
      <point x="348" y="630" type="line"/>
      <point x="348" y="711" type="line" smooth="yes"/>
      <point x="348" y="739"/>
      <point x="365" y="756"/>
      <point x="387" y="756" type="curve" smooth="yes"/>
      <point x="402" y="756"/>
      <point x="416" y="750"/>
      <point x="426" y="740" type="curve"/>
      <point x="476" y="942" type="line"/>
      <point x="447" y="959"/>
      <point x="403" y="972"/>
      <point x="344" y="972" type="curve" smooth="yes"/>
      <point x="188" y="972"/>
      <point x="96" y="886"/>
      <point x="96" y="739" type="curve" smooth="yes"/>
      <point x="96" y="630" type="line"/>
      <point x="18" y="630" type="line"/>
      <point x="18" y="426" type="line"/>
      <point x="93" y="426" type="line"/>
    </contour>
  </outline>
</glyph>
<glyph name="g" format="2">
  <advance width="760"/>
  <unicode hex="0067"/>
  <anchor x="345" y="-270" name="bottom"/>
  <anchor x="588" y="315" name="center"/>
  <anchor x="384" y="630" name="top"/>
  <outline>
    <contour>
      <point x="345" y="-290" type="curve" smooth="yes"/>
      <point x="566" y="-290"/>
      <point x="712" y="-155"/>
      <point x="712" y="52" type="curve" smooth="yes"/>
      <point x="712" y="630" type="line"/>
      <point x="490" y="630" type="line"/>
      <point x="490" y="586" type="line"/>
      <point x="449" y="624"/>
      <point x="395" y="644"/>
      <point x="335" y="644" type="curve" smooth="yes"/>
      <point x="163" y="644"/>
      <point x="27" y="499"/>
      <point x="27" y="315" type="curve" smooth="yes"/>
      <point x="27" y="131"/>
      <point x="163" y="-8"/>
      <point x="335" y="-8" type="curve" smooth="yes"/>
      <point x="395" y="-8"/>
      <point x="449" y="6"/>
      <point x="490" y="44" type="curve"/>
      <point x="490" y="32" type="line" smooth="yes"/>
      <point x="490" y="-20"/>
      <point x="429" y="-68"/>
      <point x="337" y="-68" type="curve" smooth="yes"/>
      <point x="252" y="-68"/>
      <point x="180" y="-40"/>
      <point x="124" y="10" type="curve"/>
      <point x="70" y="-209" type="line"/>
      <point x="137" y="-259"/>
      <point x="240" y="-290"/>
    </contour>
    <contour>
      <point x="370" y="220" type="curve" smooth="yes"/>
      <point x="317" y="220"/>
      <point x="277" y="260"/>
      <point x="277" y="315" type="curve" smooth="yes"/>
      <point x="277" y="370"/>
      <point x="317" y="410"/>
      <point x="370" y="410" type="curve" smooth="yes"/>
      <point x="423" y="410"/>
      <point x="463" y="369"/>
      <point x="463" y="315" type="curve" smooth="yes"/>
      <point x="463" y="261"/>
      <point x="423" y="220"/>
    </contour>
  </outline>
</glyph>
<glyph name="k" format="2">
  <advance width="740"/>
  <unicode hex="006B"/>
  <anchor x="387" y="0" name="bottom"/>
  <anchor x="181" y="960" name="top"/>
  <outline>
    <contour>
      <point x="460" y="0" type="line"/>
      <point x="756" y="0" type="line"/>
      <point x="554" y="355" type="line"/>
      <point x="709" y="630" type="line"/>
      <point x="437" y="630" type="line"/>
      <point x="280" y="335" type="line"/>
    </contour>
    <contour>
      <point x="48" y="0" type="line"/>
      <point x="312" y="0" type="line"/>
      <point x="312" y="960" type="line"/>
      <point x="48" y="960" type="line"/>
    </contour>
  </outline>
</glyph>
<glyph name="l" format="2">
  <advance width="360"/>
  <unicode hex="006C"/>
  <anchor x="180" y="0" name="bottom"/>
  <anchor x="180" y="480" name="center"/>
  <anchor x="441" y="420" name="periodcentered"/>
  <anchor x="180" y="960" name="top"/>
  <anchor x="312" y="960" name="topright"/>
  <outline>
    <contour>
      <point x="48" y="0" type="line"/>
      <point x="312" y="0" type="line"/>
      <point x="312" y="960" type="line"/>
      <point x="48" y="960" type="line"/>
    </contour>
  </outline>
</glyph>
<glyph name="m" format="2">
  <advance width="1100"/>
  <unicode hex="006D"/>
  <anchor x="553" y="0" name="bottom"/>
  <anchor x="626" y="600" name="top"/>
  <outline>
    <contour>
      <point x="48" y="0" type="line"/>
      <point x="312" y="0" type="line"/>
      <point x="312" y="355" type="line" smooth="yes"/>
      <point x="312" y="392"/>
      <point x="336" y="416"/>
      <point x="365" y="416" type="curve" smooth="yes"/>
      <point x="395" y="416"/>
      <point x="421" y="392"/>
      <point x="421" y="355" type="curve" smooth="yes"/>
      <point x="421" y="0" type="line"/>
      <point x="685" y="0" type="line"/>
      <point x="685" y="355" type="line" smooth="yes"/>
      <point x="685" y="392"/>
      <point x="709" y="416"/>
      <point x="738" y="416" type="curve" smooth="yes"/>
      <point x="768" y="416"/>
      <point x="794" y="392"/>
      <point x="794" y="355" type="curve" smooth="yes"/>
      <point x="794" y="0" type="line"/>
      <point x="1058" y="0" type="line"/>
      <point x="1058" y="383" type="line" smooth="yes"/>
      <point x="1058" y="556"/>
      <point x="932" y="650"/>
      <point x="803" y="650" type="curve" smooth="yes"/>
      <point x="730" y="650"/>
      <point x="663" y="630"/>
      <point x="611" y="585" type="curve"/>
      <point x="570" y="627"/>
      <point x="510" y="650"/>
      <point x="448" y="650" type="curve" smooth="yes"/>
      <point x="380" y="650"/>
      <point x="322" y="628"/>
      <point x="270" y="581" type="curve"/>
      <point x="270" y="630" type="line"/>
      <point x="48" y="630" type="line"/>
    </contour>
  </outline>
</glyph>
<glyph name="n" format="2">
  <advance width="740"/>
  <unicode hex="006E"/>
  <anchor x="373" y="0" name="bottom"/>
  <anchor x="373" y="630" name="top"/>
  <outline>
    <contour>
      <point x="48" y="0" type="line"/>
      <point x="312" y="0" type="line"/>
      <point x="312" y="351" type="line" smooth="yes"/>
      <point x="312" y="390"/>
      <point x="337" y="416"/>
      <point x="373" y="416" type="curve" smooth="yes"/>
      <point x="408" y="416"/>
      <point x="434" y="390"/>
      <point x="434" y="351" type="curve" smooth="yes"/>
      <point x="434" y="0" type="line"/>
      <point x="698" y="0" type="line"/>
      <point x="698" y="383" type="line" smooth="yes"/>
      <point x="698" y="556"/>
      <point x="573" y="650"/>
      <point x="444" y="650" type="curve" smooth="yes"/>
      <point x="377" y="650"/>
      <point x="316" y="625"/>
      <point x="270" y="574" type="curve"/>
      <point x="270" y="630" type="line"/>
      <point x="48" y="630" type="line"/>
    </contour>
  </outline>
</glyph>
<glyph name="o" format="2">
  <advance width="740"/>
  <unicode hex="006F"/>
  <anchor x="370" y="0" name="bottom"/>
  <anchor x="370" y="315" name="center"/>
  <anchor x="385" y="0" name="ogonek"/>
  <anchor x="370" y="630" name="top"/>
  <anchor x="510" y="630" name="topright"/>
  <outline>
    <contour>
      <point x="370" y="-20" type="curve" smooth="yes"/>
      <point x="564" y="-20"/>
      <point x="713" y="126"/>
      <point x="713" y="315" type="curve" smooth="yes"/>
      <point x="713" y="504"/>
      <point x="564" y="650"/>
      <point x="370" y="650" type="curve" smooth="yes"/>
      <point x="176" y="650"/>
      <point x="27" y="504"/>
      <point x="27" y="315" type="curve" smooth="yes"/>
      <point x="27" y="126"/>
      <point x="176" y="-20"/>
    </contour>
    <contour>
      <point x="370" y="220" type="curve" smooth="yes"/>
      <point x="318" y="220"/>
      <point x="277" y="262"/>
      <point x="277" y="315" type="curve" smooth="yes"/>
      <point x="277" y="368"/>
      <point x="318" y="410"/>
      <point x="370" y="410" type="curve" smooth="yes"/>
      <point x="422" y="410"/>
      <point x="463" y="368"/>
      <point x="463" y="315" type="curve" smooth="yes"/>
      <point x="463" y="262"/>
      <point x="422" y="220"/>
    </contour>
  </outline>
</glyph>
<glyph name="p" format="2">
  <advance width="760"/>
  <unicode hex="0070"/>
  <anchor x="390" y="0" name="bottom"/>
  <anchor x="390" y="630" name="top"/>
  <outline>
    <contour>
      <point x="48" y="-270" type="line"/>
      <point x="306" y="-270" type="line"/>
      <point x="306" y="10" type="line"/>
      <point x="342" y="-6"/>
      <point x="383" y="-14"/>
      <point x="424" y="-14" type="curve" smooth="yes"/>
      <point x="598" y="-14"/>
      <point x="733" y="130"/>
      <point x="733" y="315" type="curve" smooth="yes"/>
      <point x="733" y="500"/>
      <point x="601" y="644"/>
      <point x="432" y="644" type="curve" smooth="yes"/>
      <point x="367" y="644"/>
      <point x="312" y="625"/>
      <point x="270" y="588" type="curve"/>
      <point x="270" y="630" type="line"/>
      <point x="48" y="630" type="line"/>
    </contour>
    <contour>
      <point x="390" y="220" type="curve" smooth="yes"/>
      <point x="337" y="220"/>
      <point x="297" y="260"/>
      <point x="297" y="315" type="curve" smooth="yes"/>
      <point x="297" y="370"/>
      <point x="337" y="410"/>
      <point x="390" y="410" type="curve" smooth="yes"/>
      <point x="443" y="410"/>
      <point x="483" y="369"/>
      <point x="483" y="315" type="curve" smooth="yes"/>
      <point x="483" y="261"/>
      <point x="443" y="220"/>
    </contour>
  </outline>
</glyph>
<glyph name="q" format="2">
  <advance width="760"/>
  <unicode hex="0071"/>
  <outline>
    <contour>
      <point x="454" y="-270" type="line"/>
      <point x="712" y="-270" type="line"/>
      <point x="712" y="630" type="line"/>
      <point x="490" y="630" type="line"/>
      <point x="490" y="588" type="line"/>
      <point x="448" y="625"/>
      <point x="393" y="644"/>
      <point x="328" y="644" type="curve" smooth="yes"/>
      <point x="159" y="644"/>
      <point x="27" y="500"/>
      <point x="27" y="315" type="curve" smooth="yes"/>
      <point x="27" y="130"/>
      <point x="162" y="-14"/>
      <point x="336" y="-14" type="curve" smooth="yes"/>
      <point x="377" y="-14"/>
      <point x="418" y="-6"/>
      <point x="454" y="10" type="curve"/>
    </contour>
    <contour>
      <point x="370" y="220" type="curve" smooth="yes"/>
      <point x="317" y="220"/>
      <point x="277" y="261"/>
      <point x="277" y="315" type="curve" smooth="yes"/>
      <point x="277" y="369"/>
      <point x="317" y="410"/>
      <point x="370" y="410" type="curve" smooth="yes"/>
      <point x="423" y="410"/>
      <point x="463" y="370"/>
      <point x="463" y="315" type="curve" smooth="yes"/>
      <point x="463" y="260"/>
      <point x="423" y="220"/>
    </contour>
  </outline>
</glyph>
<glyph name="r" format="2">
  <advance width="480"/>
  <unicode hex="0072"/>
  <anchor x="177" y="0" name="bottom"/>
  <anchor x="283" y="630" name="top"/>
  <outline>
    <contour>
      <point x="48" y="0" type="line"/>
      <point x="312" y="0" type="line"/>
      <point x="312" y="268" type="line" smooth="yes"/>
      <point x="312" y="356"/>
      <point x="357" y="414"/>
      <point x="429" y="414" type="curve" smooth="yes"/>
      <point x="446" y="414"/>
      <point x="462" y="411"/>
      <point x="480" y="406" type="curve"/>
      <point x="421" y="642" type="line"/>
      <point x="361" y="642"/>
      <point x="309" y="618"/>
      <point x="270" y="570" type="curve"/>
      <point x="270" y="630" type="line"/>
      <point x="48" y="630" type="line"/>
    </contour>
  </outline>
</glyph>
<glyph name="s" format="2">
  <advance width="560"/>
  <unicode hex="0073"/>
  <anchor x="269" y="0" name="bottom"/>
  <anchor x="287" y="630" name="top"/>
  <outline>
    <contour>
      <point x="262" y="-20" type="curve" smooth="yes"/>
      <point x="430" y="-20"/>
      <point x="542" y="67"/>
      <point x="542" y="200" type="curve" smooth="yes"/>
      <point x="542" y="292"/>
      <point x="493" y="347"/>
      <point x="367" y="397" type="curve" smooth="yes"/>
      <point x="292" y="427" type="line" smooth="yes"/>
      <point x="279" y="432"/>
      <point x="273" y="439"/>
      <point x="273" y="446" type="curve" smooth="yes"/>
      <point x="273" y="455"/>
      <point x="283" y="460"/>
      <point x="300" y="460" type="curve" smooth="yes"/>
      <point x="347" y="460"/>
      <point x="434" y="420"/>
      <point x="477" y="379" type="curve"/>
      <point x="529" y="583" type="line"/>
      <point x="464" y="626"/>
      <point x="379" y="650"/>
      <point x="295" y="650" type="curve" smooth="yes"/>
      <point x="135" y="650"/>
      <point x="25" y="561"/>
      <point x="25" y="431" type="curve" smooth="yes"/>
      <point x="25" y="339"/>
      <point x="78" y="278"/>
      <point x="196" y="233" type="curve" smooth="yes"/>
      <point x="274" y="203" type="line" smooth="yes"/>
      <point x="287" y="198"/>
      <point x="294" y="192"/>
      <point x="294" y="185" type="curve" smooth="yes"/>
      <point x="294" y="175"/>
      <point x="283" y="170"/>
      <point x="262" y="170" type="curve" smooth="yes"/>
      <point x="203" y="170"/>
      <point x="122" y="204"/>
      <point x="66" y="251" type="curve"/>
      <point x="14" y="47" type="line"/>
      <point x="80" y="4"/>
      <point x="170" y="-20"/>
    </contour>
  </outline>
</glyph>
<glyph name="t" format="2">
  <advance width="450"/>
  <unicode hex="0074"/>
  <anchor x="222" y="0" name="bottom"/>
  <anchor x="225" y="300" name="center"/>
  <anchor x="222" y="822" name="top"/>
  <anchor x="348" y="960" name="topright"/>
  <outline>
    <contour>
      <point x="93" y="0" type="line"/>
      <point x="351" y="0" type="line"/>
      <point x="351" y="426" type="line"/>
      <point x="432" y="426" type="line"/>
      <point x="432" y="630" type="line"/>
      <point x="348" y="630" type="line"/>
      <point x="348" y="822" type="line"/>
      <point x="96" y="822" type="line"/>
      <point x="96" y="630" type="line"/>
      <point x="18" y="630" type="line"/>
      <point x="18" y="426" type="line"/>
      <point x="93" y="426" type="line"/>
    </contour>
  </outline>
</glyph>
<glyph name="u" format="2">
  <advance width="740"/>
  <unicode hex="0075"/>
  <anchor x="367" y="0" name="bottom"/>
  <anchor x="574" y="0" name="ogonek"/>
  <anchor x="367" y="630" name="top"/>
  <anchor x="551" y="630" name="topright"/>
  <outline>
    <contour>
      <point x="296" y="-20" type="curve" smooth="yes"/>
      <point x="363" y="-20"/>
      <point x="423" y="5"/>
      <point x="469" y="56" type="curve"/>
      <point x="469" y="0" type="line"/>
      <point x="692" y="0" type="line"/>
      <point x="692" y="630" type="line"/>
      <point x="428" y="630" type="line"/>
      <point x="428" y="278" type="line" smooth="yes"/>
      <point x="428" y="240"/>
      <point x="402" y="214"/>
      <point x="367" y="214" type="curve" smooth="yes"/>
      <point x="333" y="214"/>
      <point x="306" y="240"/>
      <point x="306" y="278" type="curve" smooth="yes"/>
      <point x="306" y="630" type="line"/>
      <point x="42" y="630" type="line"/>
      <point x="42" y="247" type="line" smooth="yes"/>
      <point x="42" y="74"/>
      <point x="167" y="-20"/>
    </contour>
  </outline>
</glyph>
<glyph name="v" format="2">
  <advance width="730"/>
  <unicode hex="0076"/>
  <outline>
    <contour>
      <point x="291" y="0" type="line"/>
      <point x="439" y="0" type="line"/>
      <point x="742" y="630" type="line"/>
      <point x="455" y="630" type="line"/>
      <point x="412" y="528" type="line" smooth="yes"/>
      <point x="400" y="500"/>
      <point x="387" y="467"/>
      <point x="371" y="417" type="curve"/>
      <point x="356" y="467"/>
      <point x="342" y="500"/>
      <point x="330" y="528" type="curve" smooth="yes"/>
      <point x="287" y="630" type="line"/>
      <point x="-12" y="630" type="line"/>
    </contour>
  </outline>
</glyph>
<glyph name="w" format="2">
  <advance width="1060"/>
  <unicode hex="0077"/>
  <anchor x="536" y="0" name="bottom"/>
  <anchor x="536" y="630" name="top"/>
  <outline>
    <contour>
      <point x="266" y="0" type="line"/>
      <point x="418" y="0" type="line"/>
      <point x="471" y="121" type="line" smooth="yes"/>
      <point x="491" y="167"/>
      <point x="506" y="205"/>
      <point x="526" y="269" type="curve"/>
      <point x="548" y="205"/>
      <point x="562" y="167"/>
      <point x="584" y="120" type="curve" smooth="yes"/>
      <point x="640" y="0" type="line"/>
      <point x="794" y="0" type="line"/>
      <point x="1072" y="630" type="line"/>
      <point x="784" y="630" type="line"/>
      <point x="744" y="528" type="line" smooth="yes"/>
      <point x="731" y="494"/>
      <point x="717" y="452"/>
      <point x="699" y="380" type="curve"/>
      <point x="682" y="452"/>
      <point x="665" y="494"/>
      <point x="654" y="528" type="curve" smooth="yes"/>
      <point x="622" y="630" type="line"/>
      <point x="450" y="630" type="line"/>
      <point x="418" y="528" type="line" smooth="yes"/>
      <point x="407" y="494"/>
      <point x="391" y="452"/>
      <point x="373" y="380" type="curve"/>
      <point x="356" y="452"/>
      <point x="341" y="494"/>
      <point x="328" y="528" type="curve" smooth="yes"/>
      <point x="288" y="630" type="line"/>
      <point x="-12" y="630" type="line"/>
    </contour>
  </outline>
</glyph>
<glyph name="x" format="2">
  <advance width="730"/>
  <unicode hex="0078"/>
  <outline>
    <contour>
      <point x="-6" y="0" type="line"/>
      <point x="285" y="0" type="line"/>
      <point x="318" y="66" type="line" smooth="yes"/>
      <point x="331" y="92"/>
      <point x="344" y="118"/>
      <point x="360" y="156" type="curve"/>
      <point x="376" y="118"/>
      <point x="389" y="92"/>
      <point x="402" y="66" type="curve" smooth="yes"/>
      <point x="435" y="0" type="line"/>
      <point x="736" y="0" type="line"/>
      <point x="544" y="335" type="line"/>
      <point x="709" y="630" type="line"/>
      <point x="441" y="630" type="line"/>
      <point x="411" y="573" type="line" smooth="yes"/>
      <point x="397" y="547"/>
      <point x="385" y="521"/>
      <point x="369" y="483" type="curve"/>
      <point x="353" y="521"/>
      <point x="341" y="547"/>
      <point x="327" y="573" type="curve" smooth="yes"/>
      <point x="297" y="630" type="line"/>
      <point x="21" y="630" type="line"/>
      <point x="186" y="335" type="line"/>
    </contour>
  </outline>
</glyph>
<glyph name="y" format="2">
  <advance width="730"/>
  <unicode hex="0079"/>
  <anchor x="569" y="30" name="bottom"/>
  <anchor x="371" y="630" name="top"/>
  <outline>
    <contour>
      <point x="12" y="-270" type="line"/>
      <point x="306" y="-270" type="line"/>
      <point x="742" y="630" type="line"/>
      <point x="454" y="630" type="line"/>
      <point x="411" y="528" type="line" smooth="yes"/>
      <point x="399" y="500"/>
      <point x="387" y="467"/>
      <point x="371" y="417" type="curve"/>
      <point x="356" y="467"/>
      <point x="342" y="500"/>
      <point x="330" y="528" type="curve" smooth="yes"/>
      <point x="287" y="630" type="line"/>
      <point x="-12" y="630" type="line"/>
      <point x="223" y="153" type="line"/>
    </contour>
  </outline>
</glyph>
<glyph name="z" format="2">
  <advance width="580"/>
  <unicode hex="007A"/>
  <anchor x="273" y="0" name="bottom"/>
  <anchor x="285" y="304" name="center"/>
  <anchor x="297" y="630" name="top"/>
  <outline>
    <contour>
      <point x="-6" y="0" type="line"/>
      <point x="550" y="0" type="line"/>
      <point x="550" y="204" type="line"/>
      <point x="362" y="204" type="line"/>
      <point x="586" y="628" type="line"/>
      <point x="586" y="630" type="line"/>
      <point x="30" y="630" type="line"/>
      <point x="30" y="426" type="line"/>
      <point x="216" y="426" type="line"/>
      <point x="-6" y="2" type="line"/>
    </contour>
  </outline>
</glyph>
<glyph name="braceleft" format="2">
  <advance width="480"/>
  <unicode hex="007B"/>
  <outline>
    <contour>
      <point x="432" y="-187" type="curve"/>
      <point x="432" y="-11" type="line"/>
      <point x="360" y="-11"/>
      <point x="322" y="20"/>
      <point x="322" y="77" type="curve" smooth="yes"/>
      <point x="322" y="122"/>
      <point x="344" y="192"/>
      <point x="344" y="254" type="curve" smooth="yes"/>
      <point x="344" y="329"/>
      <point x="291" y="369"/>
      <point x="253" y="390" type="curve"/>
      <point x="291" y="411"/>
      <point x="344" y="451"/>
      <point x="344" y="526" type="curve" smooth="yes"/>
      <point x="344" y="588"/>
      <point x="322" y="658"/>
      <point x="322" y="703" type="curve" smooth="yes"/>
      <point x="322" y="756"/>
      <point x="354" y="791"/>
      <point x="432" y="791" type="curve"/>
      <point x="432" y="967" type="line"/>
      <point x="202" y="967"/>
      <point x="82" y="895"/>
      <point x="82" y="739" type="curve" smooth="yes"/>
      <point x="82" y="668"/>
      <point x="104" y="610"/>
      <point x="104" y="552" type="curve" smooth="yes"/>
      <point x="104" y="465"/>
      <point x="75" y="427"/>
      <point x="12" y="390" type="curve"/>
      <point x="75" y="353"/>
      <point x="104" y="315"/>
      <point x="104" y="228" type="curve" smooth="yes"/>
      <point x="104" y="170"/>
      <point x="82" y="112"/>
      <point x="82" y="41" type="curve" smooth="yes"/>
      <point x="82" y="-113"/>
      <point x="202" y="-187"/>
    </contour>
  </outline>
</glyph>
<glyph name="braceright" format="2">
  <advance width="480"/>
  <unicode hex="007D"/>
  <outline>
    <contour>
      <point x="48" y="-187" type="line"/>
      <point x="278" y="-187"/>
      <point x="398" y="-115"/>
      <point x="398" y="41" type="curve" smooth="yes"/>
      <point x="398" y="112"/>
      <point x="376" y="170"/>
      <point x="376" y="228" type="curve" smooth="yes"/>
      <point x="376" y="315"/>
      <point x="405" y="353"/>
      <point x="468" y="390" type="curve"/>
      <point x="405" y="427"/>
      <point x="376" y="465"/>
      <point x="376" y="552" type="curve" smooth="yes"/>
      <point x="376" y="610"/>
      <point x="398" y="668"/>
      <point x="398" y="739" type="curve" smooth="yes"/>
      <point x="398" y="893"/>
      <point x="278" y="967"/>
      <point x="48" y="967" type="curve"/>
      <point x="48" y="791" type="line"/>
      <point x="120" y="791"/>
      <point x="158" y="760"/>
      <point x="158" y="703" type="curve" smooth="yes"/>
      <point x="158" y="658"/>
      <point x="136" y="588"/>
      <point x="136" y="526" type="curve" smooth="yes"/>
      <point x="136" y="451"/>
      <point x="189" y="411"/>
      <point x="227" y="390" type="curve"/>
      <point x="189" y="369"/>
      <point x="136" y="329"/>
      <point x="136" y="254" type="curve" smooth="yes"/>
      <point x="136" y="192"/>
      <point x="158" y="122"/>
      <point x="158" y="77" type="curve" smooth="yes"/>
      <point x="158" y="24"/>
      <point x="126" y="-11"/>
      <point x="48" y="-11" type="curve"/>
    </contour>
  </outline>
</glyph>
<glyph name="asciitilde" format="2">
  <advance width="750"/>
  <unicode hex="007E"/>
  <outline>
    <contour>
      <point x="107" y="312" type="line"/>
      <point x="138" y="357"/>
      <point x="173" y="394"/>
      <point x="233" y="394" type="curve" smooth="yes"/>
      <point x="324" y="394"/>
      <point x="395" y="310"/>
      <point x="511" y="310" type="curve" smooth="yes"/>
      <point x="602" y="310"/>
      <point x="685" y="361"/>
      <point x="732" y="438" type="curve"/>
      <point x="643" y="588" type="line"/>
      <point x="612" y="543"/>
      <point x="577" y="506"/>
      <point x="517" y="506" type="curve" smooth="yes"/>
      <point x="426" y="506"/>
      <point x="355" y="590"/>
      <point x="239" y="590" type="curve" smooth="yes"/>
      <point x="148" y="590"/>
      <point x="65" y="539"/>
      <point x="18" y="462" type="curve"/>
    </contour>
  </outline>
</glyph>
<glyph name="exclamdown" format="2">
  <advance width="480"/>
  <unicode hex="00A1"/>
  <outline>
    <contour>
      <point x="78" y="-270" type="line"/>
      <point x="402" y="-270" type="line"/>
      <point x="348" y="300" type="line"/>
      <point x="132" y="300" type="line"/>
    </contour>
    <contour>
      <point x="240" y="370" type="curve" smooth="yes"/>
      <point x="319" y="370"/>
      <point x="380" y="431"/>
      <point x="380" y="510" type="curve" smooth="yes"/>
      <point x="380" y="589"/>
      <point x="319" y="650"/>
      <point x="240" y="650" type="curve" smooth="yes"/>
      <point x="161" y="650"/>
      <point x="100" y="589"/>
      <point x="100" y="510" type="curve" smooth="yes"/>
      <point x="100" y="431"/>
      <point x="161" y="370"/>
    </contour>
  </outline>
</glyph>
<glyph name="cent" format="2">
  <advance width="750"/>
  <unicode hex="00A2"/>
  <outline>
    <contour>
      <point x="351" y="0" type="line"/>
      <point x="489" y="0" type="line"/>
      <point x="489" y="119" type="line"/>
      <point x="545" y="127"/>
      <point x="596" y="146"/>
      <point x="638" y="174" type="curve"/>
      <point x="579" y="414" type="line"/>
      <point x="541" y="373"/>
      <point x="498" y="355"/>
      <point x="452" y="355" type="curve" smooth="yes"/>
      <point x="392" y="355"/>
      <point x="347" y="392"/>
      <point x="347" y="450" type="curve" smooth="yes"/>
      <point x="347" y="507"/>
      <point x="390" y="545"/>
      <point x="449" y="545" type="curve" smooth="yes"/>
      <point x="492" y="545"/>
      <point x="536" y="527"/>
      <point x="573" y="486" type="curve"/>
      <point x="632" y="726" type="line"/>
      <point x="591" y="754"/>
      <point x="542" y="772"/>
      <point x="489" y="780" type="curve"/>
      <point x="489" y="870" type="line"/>
      <point x="351" y="870" type="line"/>
      <point x="351" y="778" type="line"/>
      <point x="191" y="746"/>
      <point x="77" y="616"/>
      <point x="77" y="450" type="curve" smooth="yes"/>
      <point x="77" y="285"/>
      <point x="190" y="155"/>
      <point x="351" y="123" type="curve"/>
    </contour>
  </outline>
</glyph>
<glyph name="sterling" format="2">
  <advance width="750"/>
  <unicode hex="00A3"/>
  <outline>
    <contour>
      <point x="73" y="0" type="line"/>
      <point x="702" y="0" type="line"/>
      <point x="702" y="222" type="line"/>
      <point x="418" y="222" type="line"/>
      <point x="422" y="238"/>
      <point x="424" y="256"/>
      <point x="424" y="275" type="curve" smooth="yes"/>
      <point x="424" y="291"/>
      <point x="422" y="307"/>
      <point x="420" y="324" type="curve"/>
      <point x="600" y="324" type="line"/>
      <point x="600" y="486" type="line"/>
      <point x="388" y="486" type="line"/>
      <point x="386" y="499"/>
      <point x="385" y="514"/>
      <point x="385" y="525" type="curve" smooth="yes"/>
      <point x="385" y="607"/>
      <point x="432" y="662"/>
      <point x="510" y="662" type="curve" smooth="yes"/>
      <point x="563" y="662"/>
      <point x="613" y="635"/>
      <point x="651" y="587" type="curve"/>
      <point x="714" y="847" type="line"/>
      <point x="652" y="894"/>
      <point x="570" y="920"/>
      <point x="480" y="920" type="curve" smooth="yes"/>
      <point x="264" y="920"/>
      <point x="109" y="776"/>
      <point x="109" y="554" type="curve" smooth="yes"/>
      <point x="109" y="530"/>
      <point x="111" y="507"/>
      <point x="114" y="486" type="curve"/>
      <point x="30" y="486" type="line"/>
      <point x="30" y="324" type="line"/>
      <point x="147" y="324" type="line"/>
      <point x="160" y="283"/>
      <point x="168" y="251"/>
      <point x="168" y="213" type="curve" smooth="yes"/>
      <point x="168" y="128"/>
      <point x="128" y="67"/>
      <point x="73" y="2" type="curve"/>
    </contour>
  </outline>
</glyph>
<glyph name="currency" format="2">
  <advance width="750"/>
  <unicode hex="00A4"/>
  <outline>
    <contour>
      <point x="375" y="115" type="curve" smooth="yes"/>
      <point x="443" y="115"/>
      <point x="506" y="135"/>
      <point x="559" y="170" type="curve"/>
      <point x="645" y="84" type="line"/>
      <point x="741" y="180" type="line"/>
      <point x="655" y="266" type="line"/>
      <point x="690" y="319"/>
      <point x="710" y="382"/>
      <point x="710" y="450" type="curve" smooth="yes"/>
      <point x="710" y="518"/>
      <point x="690" y="581"/>
      <point x="655" y="634" type="curve"/>
      <point x="741" y="720" type="line"/>
      <point x="645" y="816" type="line"/>
      <point x="559" y="730" type="line"/>
      <point x="506" y="765"/>
      <point x="443" y="785"/>
      <point x="375" y="785" type="curve" smooth="yes"/>
      <point x="307" y="785"/>
      <point x="244" y="765"/>
      <point x="191" y="730" type="curve"/>
      <point x="105" y="816" type="line"/>
      <point x="9" y="720" type="line"/>
      <point x="95" y="634" type="line"/>
      <point x="60" y="581"/>
      <point x="40" y="518"/>
      <point x="40" y="450" type="curve" smooth="yes"/>
      <point x="40" y="382"/>
      <point x="60" y="319"/>
      <point x="95" y="266" type="curve"/>
      <point x="9" y="180" type="line"/>
      <point x="105" y="84" type="line"/>
      <point x="191" y="170" type="line"/>
      <point x="244" y="135"/>
      <point x="307" y="115"/>
    </contour>
    <contour>
      <point x="375" y="355" type="curve" smooth="yes"/>
      <point x="322" y="355"/>
      <point x="280" y="397"/>
      <point x="280" y="450" type="curve" smooth="yes"/>
      <point x="280" y="503"/>
      <point x="322" y="545"/>
      <point x="375" y="545" type="curve" smooth="yes"/>
      <point x="428" y="545"/>
      <point x="470" y="503"/>
      <point x="470" y="450" type="curve" smooth="yes"/>
      <point x="470" y="397"/>
      <point x="428" y="355"/>
    </contour>
  </outline>
</glyph>
<glyph name="yen" format="2">
  <advance width="750"/>
  <unicode hex="00A5"/>
  <outline>
    <contour>
      <point x="228" y="0" type="line"/>
      <point x="522" y="0" type="line"/>
      <point x="522" y="288" type="line"/>
      <point x="720" y="288" type="line"/>
      <point x="720" y="420" type="line"/>
      <point x="536" y="420" type="line"/>
      <point x="536" y="426" type="line"/>
      <point x="564" y="480" type="line"/>
      <point x="720" y="480" type="line"/>
      <point x="720" y="612" type="line"/>
      <point x="626" y="612" type="line"/>
      <point x="762" y="900" type="line"/>
      <point x="469" y="900" type="line"/>
      <point x="424" y="792" type="line" smooth="yes"/>
      <point x="411" y="761"/>
      <point x="395" y="725"/>
      <point x="380" y="682" type="curve"/>
      <point x="364" y="724"/>
      <point x="349" y="760"/>
      <point x="336" y="791" type="curve" smooth="yes"/>
      <point x="290" y="900" type="line"/>
      <point x="-12" y="900" type="line"/>
      <point x="124" y="612" type="line"/>
      <point x="30" y="612" type="line"/>
      <point x="30" y="480" type="line"/>
      <point x="186" y="480" type="line"/>
      <point x="214" y="426" type="line"/>
      <point x="214" y="420" type="line"/>
      <point x="30" y="420" type="line"/>
      <point x="30" y="288" type="line"/>
      <point x="228" y="288" type="line"/>
    </contour>
  </outline>
</glyph>
<glyph name="brokenbar" format="2">
  <advance width="480"/>
  <unicode hex="00A6"/>
  <outline>
    <contour>
      <point x="144" y="-180" type="line"/>
      <point x="336" y="-180" type="line"/>
      <point x="336" y="300" type="line"/>
      <point x="144" y="300" type="line"/>
    </contour>
    <contour>
      <point x="144" y="480" type="line"/>
      <point x="336" y="480" type="line"/>
      <point x="336" y="960" type="line"/>
      <point x="144" y="960" type="line"/>
    </contour>
  </outline>
</glyph>
<glyph name="section" format="2">
  <advance width="750"/>
  <unicode hex="00A7"/>
  <outline>
    <contour>
      <point x="354" y="-200" type="curve" smooth="yes"/>
      <point x="540" y="-200"/>
      <point x="664" y="-99"/>
      <point x="664" y="54" type="curve" smooth="yes"/>
      <point x="664" y="112"/>
      <point x="649" y="159"/>
      <point x="615" y="199" type="curve"/>
      <point x="684" y="244"/>
      <point x="724" y="314"/>
      <point x="724" y="401" type="curve" smooth="yes"/>
      <point x="724" y="511"/>
      <point x="669" y="582"/>
      <point x="533" y="643" type="curve" smooth="yes"/>
      <point x="375" y="714" type="line" smooth="yes"/>
      <point x="354" y="724"/>
      <point x="345" y="732"/>
      <point x="345" y="741" type="curve" smooth="yes"/>
      <point x="345" y="754"/>
      <point x="359" y="761"/>
      <point x="384" y="761" type="curve" smooth="yes"/>
      <point x="443" y="761"/>
      <point x="532" y="721"/>
      <point x="586" y="670" type="curve"/>
      <point x="645" y="905" type="line"/>
      <point x="569" y="954"/>
      <point x="479" y="980"/>
      <point x="388" y="980" type="curve" smooth="yes"/>
      <point x="207" y="980"/>
      <point x="86" y="877"/>
      <point x="86" y="723" type="curve" smooth="yes"/>
      <point x="86" y="668"/>
      <point x="102" y="622"/>
      <point x="135" y="582" type="curve"/>
      <point x="66" y="537"/>
      <point x="26" y="465"/>
      <point x="26" y="376" type="curve" smooth="yes"/>
      <point x="26" y="268"/>
      <point x="82" y="198"/>
      <point x="224" y="135" type="curve" smooth="yes"/>
      <point x="369" y="71" type="line" smooth="yes"/>
      <point x="393" y="61"/>
      <point x="405" y="50"/>
      <point x="405" y="39" type="curve" smooth="yes"/>
      <point x="405" y="26"/>
      <point x="390" y="19"/>
      <point x="361" y="19" type="curve" smooth="yes"/>
      <point x="288" y="19"/>
      <point x="198" y="61"/>
      <point x="135" y="124" type="curve"/>
      <point x="74" y="-117" type="line"/>
      <point x="143" y="-168"/>
      <point x="249" y="-200"/>
    </contour>
    <contour>
      <point x="397" y="334" type="curve" smooth="yes"/>
      <point x="392" y="334"/>
      <point x="386" y="335"/>
      <point x="380" y="337" type="curve" smooth="yes"/>
      <point x="358" y="344"/>
      <point x="352" y="349"/>
      <point x="345" y="352" type="curve" smooth="yes"/>
      <point x="326" y="363"/>
      <point x="300" y="374"/>
      <point x="300" y="401" type="curve" smooth="yes"/>
      <point x="300" y="427"/>
      <point x="320" y="448"/>
      <point x="353" y="448" type="curve" smooth="yes"/>
      <point x="358" y="448"/>
      <point x="365" y="447"/>
      <point x="370" y="445" type="curve" smooth="yes"/>
      <point x="381" y="442"/>
      <point x="393" y="436"/>
      <point x="406" y="429" type="curve" smooth="yes"/>
      <point x="425" y="419"/>
      <point x="450" y="407"/>
      <point x="450" y="380" type="curve" smooth="yes"/>
      <point x="450" y="355"/>
      <point x="429" y="334"/>
    </contour>
  </outline>
</glyph>
<glyph name="copyright" format="2">
  <advance width="1260"/>
  <unicode hex="00A9"/>
  <outline>
    <contour>
      <point x="630" y="-102" type="curve" smooth="yes"/>
      <point x="942" y="-102"/>
      <point x="1194" y="145"/>
      <point x="1194" y="450" type="curve" smooth="yes"/>
      <point x="1194" y="755"/>
      <point x="942" y="1002"/>
      <point x="630" y="1002" type="curve" smooth="yes"/>
      <point x="319" y="1002"/>
      <point x="66" y="755"/>
      <point x="66" y="450" type="curve" smooth="yes"/>
      <point x="66" y="145"/>
      <point x="319" y="-102"/>
    </contour>
    <contour>
      <point x="630" y="73" type="curve" smooth="yes"/>
      <point x="422" y="73"/>
      <point x="253" y="242"/>
      <point x="253" y="450" type="curve" smooth="yes"/>
      <point x="253" y="658"/>
      <point x="422" y="827"/>
      <point x="630" y="827" type="curve" smooth="yes"/>
      <point x="838" y="827"/>
      <point x="1007" y="658"/>
      <point x="1007" y="450" type="curve" smooth="yes"/>
      <point x="1007" y="242"/>
      <point x="838" y="73"/>
    </contour>
    <contour>
      <point x="664" y="168" type="curve" smooth="yes"/>
      <point x="729" y="168"/>
      <point x="791" y="186"/>
      <point x="839" y="218" type="curve"/>
      <point x="789" y="420" type="line"/>
      <point x="754" y="385"/>
      <point x="721" y="370"/>
      <point x="682" y="370" type="curve" smooth="yes"/>
      <point x="629" y="370"/>
      <point x="594" y="401"/>
      <point x="594" y="450" type="curve" smooth="yes"/>
      <point x="594" y="498"/>
      <point x="628" y="530"/>
      <point x="680" y="530" type="curve" smooth="yes"/>
      <point x="716" y="530"/>
      <point x="750" y="515"/>
      <point x="784" y="480" type="curve"/>
      <point x="834" y="682" type="line"/>
      <point x="786" y="714"/>
      <point x="725" y="732"/>
      <point x="661" y="732" type="curve" smooth="yes"/>
      <point x="493" y="732"/>
      <point x="366" y="611"/>
      <point x="366" y="450" type="curve" smooth="yes"/>
      <point x="366" y="289"/>
      <point x="493" y="168"/>
    </contour>
  </outline>
</glyph>
<glyph name="ordfeminine" format="2">
  <advance width="540"/>
  <unicode hex="00AA"/>
  <outline>
    <contour>
      <point x="247" y="348" type="curve" smooth="yes"/>
      <point x="292" y="348"/>
      <point x="330" y="362"/>
      <point x="359" y="387" type="curve"/>
      <point x="359" y="360" type="line"/>
      <point x="504" y="360" type="line"/>
      <point x="504" y="780" type="line"/>
      <point x="359" y="780" type="line"/>
      <point x="359" y="753" type="line"/>
      <point x="330" y="778"/>
      <point x="292" y="792"/>
      <point x="247" y="792" type="curve" smooth="yes"/>
      <point x="127" y="792"/>
      <point x="30" y="693"/>
      <point x="30" y="570" type="curve" smooth="yes"/>
      <point x="30" y="447"/>
      <point x="127" y="348"/>
    </contour>
    <contour>
      <point x="270" y="506" type="curve" smooth="yes"/>
      <point x="235" y="506"/>
      <point x="207" y="534"/>
      <point x="207" y="570" type="curve" smooth="yes"/>
      <point x="207" y="606"/>
      <point x="235" y="634"/>
      <point x="270" y="634" type="curve" smooth="yes"/>
      <point x="305" y="634"/>
      <point x="333" y="606"/>
      <point x="333" y="570" type="curve" smooth="yes"/>
      <point x="333" y="534"/>
      <point x="305" y="506"/>
    </contour>
  </outline>
</glyph>
<glyph name="logicalnot" format="2">
  <advance width="750"/>
  <unicode hex="00AC"/>
  <outline>
    <contour>
      <point x="494" y="190" type="line"/>
      <point x="680" y="190" type="line"/>
      <point x="680" y="552" type="line"/>
      <point x="40" y="552" type="line"/>
      <point x="40" y="352" type="line"/>
      <point x="494" y="352" type="line"/>
    </contour>
  </outline>
</glyph>
<glyph name="registered" format="2">
  <advance width="660"/>
  <unicode hex="00AE"/>
  <outline>
    <contour>
      <point x="330" y="378" type="curve" smooth="yes"/>
      <point x="489" y="378"/>
      <point x="618" y="504"/>
      <point x="618" y="660" type="curve" smooth="yes"/>
      <point x="618" y="816"/>
      <point x="489" y="942"/>
      <point x="330" y="942" type="curve" smooth="yes"/>
      <point x="171" y="942"/>
      <point x="42" y="816"/>
      <point x="42" y="660" type="curve" smooth="yes"/>
      <point x="42" y="504"/>
      <point x="171" y="378"/>
    </contour>
    <contour>
      <point x="330" y="478" type="curve" smooth="yes"/>
      <point x="230" y="478"/>
      <point x="148" y="560"/>
      <point x="148" y="660" type="curve" smooth="yes"/>
      <point x="148" y="760"/>
      <point x="230" y="842"/>
      <point x="330" y="842" type="curve" smooth="yes"/>
      <point x="430" y="842"/>
      <point x="512" y="760"/>
      <point x="512" y="660" type="curve" smooth="yes"/>
      <point x="512" y="560"/>
      <point x="430" y="478"/>
    </contour>
    <contour>
      <point x="208" y="546" type="line"/>
      <point x="310" y="546" type="line"/>
      <point x="310" y="604" type="line"/>
      <point x="330" y="604" type="line"/>
      <point x="356" y="546" type="line"/>
      <point x="470" y="546" type="line"/>
      <point x="425" y="630" type="line"/>
      <point x="449" y="645"/>
      <point x="464" y="669"/>
      <point x="464" y="700" type="curve" smooth="yes"/>
      <point x="464" y="747"/>
      <point x="427" y="786"/>
      <point x="366" y="786" type="curve" smooth="yes"/>
      <point x="208" y="786" type="line"/>
    </contour>
    <contour>
      <point x="310" y="668" type="line"/>
      <point x="310" y="718" type="line"/>
      <point x="329" y="718" type="line" smooth="yes"/>
      <point x="346" y="718"/>
      <point x="359" y="709"/>
      <point x="359" y="693" type="curve" smooth="yes"/>
      <point x="359" y="679"/>
      <point x="347" y="668"/>
      <point x="329" y="668" type="curve" smooth="yes"/>
    </contour>
  </outline>
</glyph>
<glyph name="degree" format="2">
  <advance width="480"/>
  <unicode hex="00B0"/>
  <outline>
    <contour>
      <point x="240" y="498" type="curve" smooth="yes"/>
      <point x="360" y="498"/>
      <point x="454" y="591"/>
      <point x="454" y="705" type="curve" smooth="yes"/>
      <point x="454" y="819"/>
      <point x="360" y="912"/>
      <point x="240" y="912" type="curve" smooth="yes"/>
      <point x="121" y="912"/>
      <point x="26" y="819"/>
      <point x="26" y="705" type="curve" smooth="yes"/>
      <point x="26" y="591"/>
      <point x="121" y="498"/>
    </contour>
    <contour>
      <point x="240" y="646" type="curve" smooth="yes"/>
      <point x="205" y="646"/>
      <point x="179" y="672"/>
      <point x="179" y="705" type="curve" smooth="yes"/>
      <point x="179" y="738"/>
      <point x="205" y="764"/>
      <point x="240" y="764" type="curve" smooth="yes"/>
      <point x="274" y="764"/>
      <point x="301" y="738"/>
      <point x="301" y="705" type="curve" smooth="yes"/>
      <point x="301" y="672"/>
      <point x="274" y="646"/>
    </contour>
  </outline>
</glyph>
<glyph name="plusminus" format="2">
  <advance width="750"/>
  <unicode hex="00B1"/>
  <outline>
    <contour>
      <point x="276" y="222" type="line"/>
      <point x="474" y="222" type="line"/>
      <point x="474" y="412" type="line"/>
      <point x="710" y="412" type="line"/>
      <point x="710" y="608" type="line"/>
      <point x="474" y="608" type="line"/>
      <point x="474" y="823" type="line"/>
      <point x="276" y="823" type="line"/>
      <point x="276" y="608" type="line"/>
      <point x="40" y="608" type="line"/>
      <point x="40" y="412" type="line"/>
      <point x="276" y="412" type="line"/>
    </contour>
    <contour>
      <point x="60" y="0" type="line"/>
      <point x="690" y="0" type="line"/>
      <point x="690" y="162" type="line"/>
      <point x="60" y="162" type="line"/>
    </contour>
  </outline>
</glyph>
<glyph name="micro" format="2">
  <advance width="770"/>
  <unicode hex="00B5"/>
  <unicode hex="03BC"/>
  <outline>
    <contour>
      <point x="48" y="-270" type="line"/>
      <point x="306" y="-270" type="line"/>
      <point x="306" y="-16" type="line"/>
      <point x="321" y="-19"/>
      <point x="337" y="-20"/>
      <point x="352" y="-20" type="curve" smooth="yes"/>
      <point x="414" y="-20"/>
      <point x="471" y="-1"/>
      <point x="518" y="37" type="curve"/>
      <point x="564" y="0"/>
      <point x="626" y="-20"/>
      <point x="697" y="-20" type="curve"/>
      <point x="752" y="220" type="line"/>
      <point x="718" y="220"/>
      <point x="698" y="241"/>
      <point x="698" y="275" type="curve" smooth="yes"/>
      <point x="698" y="630" type="line"/>
      <point x="434" y="630" type="line"/>
      <point x="434" y="278" type="line" smooth="yes"/>
      <point x="434" y="240"/>
      <point x="408" y="214"/>
      <point x="373" y="214" type="curve" smooth="yes"/>
      <point x="339" y="214"/>
      <point x="312" y="240"/>
      <point x="312" y="278" type="curve" smooth="yes"/>
      <point x="312" y="630" type="line"/>
      <point x="48" y="630" type="line"/>
    </contour>
  </outline>
</glyph>
<glyph name="paragraph" format="2">
  <advance width="750"/>
  <unicode hex="00B6"/>
  <outline>
    <contour>
      <point x="234" y="-180" type="line"/>
      <point x="432" y="-180" type="line"/>
      <point x="432" y="798" type="line"/>
      <point x="504" y="798" type="line"/>
      <point x="504" y="-180" type="line"/>
      <point x="702" y="-180" type="line"/>
      <point x="702" y="960" type="line"/>
      <point x="342" y="960" type="line" smooth="yes"/>
      <point x="150" y="960"/>
      <point x="18" y="836"/>
      <point x="18" y="654" type="curve" smooth="yes"/>
      <point x="18" y="512"/>
      <point x="104" y="395"/>
      <point x="234" y="361" type="curve"/>
    </contour>
  </outline>
</glyph>
<glyph name="ordmasculine" format="2">
  <advance width="540"/>
  <unicode hex="00BA"/>
  <outline>
    <contour>
      <point x="270" y="342" type="curve" smooth="yes"/>
      <point x="406" y="342"/>
      <point x="510" y="441"/>
      <point x="510" y="570" type="curve" smooth="yes"/>
      <point x="510" y="699"/>
      <point x="406" y="798"/>
      <point x="270" y="798" type="curve" smooth="yes"/>
      <point x="134" y="798"/>
      <point x="30" y="699"/>
      <point x="30" y="570" type="curve" smooth="yes"/>
      <point x="30" y="441"/>
      <point x="134" y="342"/>
    </contour>
    <contour>
      <point x="270" y="506" type="curve" smooth="yes"/>
      <point x="235" y="506"/>
      <point x="207" y="534"/>
      <point x="207" y="570" type="curve" smooth="yes"/>
      <point x="207" y="606"/>
      <point x="235" y="634"/>
      <point x="270" y="634" type="curve" smooth="yes"/>
      <point x="305" y="634"/>
      <point x="333" y="606"/>
      <point x="333" y="570" type="curve" smooth="yes"/>
      <point x="333" y="534"/>
      <point x="305" y="506"/>
    </contour>
  </outline>
</glyph>
<glyph name="questiondown" format="2">
  <advance width="480"/>
  <unicode hex="00BF"/>
  <outline>
    <contour>
      <point x="252" y="-290" type="curve" smooth="yes"/>
      <point x="343" y="-290"/>
      <point x="403" y="-269"/>
      <point x="456" y="-234" type="curve"/>
      <point x="456" y="6" type="line"/>
      <point x="418" y="-31"/>
      <point x="370" y="-62"/>
      <point x="327" y="-62" type="curve" smooth="yes"/>
      <point x="296" y="-62"/>
      <point x="276" y="-45"/>
      <point x="276" y="-19" type="curve" smooth="yes"/>
      <point x="276" y="37"/>
      <point x="354" y="99"/>
      <point x="354" y="300" type="curve"/>
      <point x="126" y="300" type="line"/>
      <point x="126" y="159"/>
      <point x="0" y="98"/>
      <point x="0" y="-65" type="curve" smooth="yes"/>
      <point x="0" y="-206"/>
      <point x="102" y="-290"/>
    </contour>
    <contour>
      <point x="240" y="370" type="curve" smooth="yes"/>
      <point x="319" y="370"/>
      <point x="380" y="431"/>
      <point x="380" y="510" type="curve" smooth="yes"/>
      <point x="380" y="589"/>
      <point x="319" y="650"/>
      <point x="240" y="650" type="curve" smooth="yes"/>
      <point x="161" y="650"/>
      <point x="100" y="589"/>
      <point x="100" y="510" type="curve" smooth="yes"/>
      <point x="100" y="431"/>
      <point x="161" y="370"/>
    </contour>
  </outline>
</glyph>
<glyph name="Aring" format="2">
  <advance width="860"/>
  <unicode hex="00C5"/>
  <outline>
    <contour>
      <point x="-16" y="0" type="line"/>
      <point x="274" y="0" type="line"/>
      <point x="306" y="75" type="line"/>
      <point x="548" y="75" type="line"/>
      <point x="580" y="0" type="line"/>
      <point x="876" y="0" type="line"/>
      <point x="533" y="832" type="line"/>
      <point x="583" y="864"/>
      <point x="616" y="919"/>
      <point x="616" y="984" type="curve" smooth="yes"/>
      <point x="616" y="1088"/>
      <point x="533" y="1166"/>
      <point x="430" y="1166" type="curve" smooth="yes"/>
      <point x="327" y="1166"/>
      <point x="244" y="1088"/>
      <point x="244" y="984" type="curve" smooth="yes"/>
      <point x="244" y="920"/>
      <point x="276" y="865"/>
      <point x="325" y="833" type="curve"/>
    </contour>
    <contour>
      <point x="363" y="237" type="line"/>
      <point x="374" y="266" type="line" smooth="yes"/>
      <point x="396" y="324"/>
      <point x="408" y="362"/>
      <point x="427" y="431" type="curve"/>
      <point x="445" y="362"/>
      <point x="458" y="322"/>
      <point x="480" y="266" type="curve" smooth="yes"/>
      <point x="491" y="237" type="line"/>
    </contour>
    <contour>
      <point x="430" y="930" type="curve" smooth="yes"/>
      <point x="400" y="930"/>
      <point x="376" y="954"/>
      <point x="376" y="984" type="curve" smooth="yes"/>
      <point x="376" y="1013"/>
      <point x="400" y="1038"/>
      <point x="430" y="1038" type="curve" smooth="yes"/>
      <point x="459" y="1038"/>
      <point x="484" y="1013"/>
      <point x="484" y="984" type="curve" smooth="yes"/>
      <point x="484" y="954"/>
      <point x="459" y="930"/>
    </contour>
  </outline>
</glyph>
<glyph name="AE" format="2">
  <advance width="1060"/>
  <unicode hex="00C6"/>
  <anchor x="434" y="0" name="bottom"/>
  <anchor x="555" y="900" name="top"/>
  <outline>
    <contour>
      <point x="-16" y="0" type="line"/>
      <point x="274" y="0" type="line"/>
      <point x="306" y="75" type="line"/>
      <point x="548" y="75" type="line"/>
      <point x="580" y="0" type="line"/>
      <point x="1076" y="0" type="line"/>
      <point x="975" y="240" type="line"/>
      <point x="767" y="240" type="line"/>
      <point x="707" y="378" type="line"/>
      <point x="916" y="378" type="line"/>
      <point x="836" y="570" type="line"/>
      <point x="628" y="570" type="line"/>
      <point x="587" y="666" type="line"/>
      <point x="854" y="666" type="line"/>
      <point x="756" y="900" type="line"/>
      <point x="353" y="900" type="line"/>
    </contour>
    <contour>
      <point x="363" y="237" type="line"/>
      <point x="374" y="266" type="line" smooth="yes"/>
      <point x="396" y="324"/>
      <point x="408" y="362"/>
      <point x="427" y="431" type="curve"/>
      <point x="445" y="362"/>
      <point x="459" y="322"/>
      <point x="480" y="266" type="curve" smooth="yes"/>
      <point x="491" y="237" type="line"/>
    </contour>
  </outline>
</glyph>
<glyph name="Ccedilla" format="2">
  <advance width="830"/>
  <unicode hex="00C7"/>
  <outline>
    <contour>
      <point x="208" y="-220" type="line"/>
      <point x="574" y="-220" type="line"/>
      <point x="644" y="-6" type="line"/>
      <point x="707" y="8"/>
      <point x="766" y="34"/>
      <point x="814" y="68" type="curve"/>
      <point x="743" y="357" type="line"/>
      <point x="691" y="293"/>
      <point x="625" y="256"/>
      <point x="552" y="256" type="curve" smooth="yes"/>
      <point x="444" y="256"/>
      <point x="356" y="338"/>
      <point x="356" y="450" type="curve" smooth="yes"/>
      <point x="356" y="562"/>
      <point x="444" y="644"/>
      <point x="552" y="644" type="curve" smooth="yes"/>
      <point x="625" y="644"/>
      <point x="691" y="607"/>
      <point x="743" y="543" type="curve"/>
      <point x="814" y="832" type="line"/>
      <point x="736" y="888"/>
      <point x="629" y="920"/>
      <point x="522" y="920" type="curve" smooth="yes"/>
      <point x="249" y="920"/>
      <point x="38" y="715"/>
      <point x="38" y="450" type="curve" smooth="yes"/>
      <point x="38" y="234"/>
      <point x="178" y="58"/>
      <point x="377" y="1" type="curve"/>
    </contour>
  </outline>
</glyph>
<glyph name="Eth" format="2">
  <advance width="980"/>
  <unicode hex="00D0"/>
  <outline>
    <contour>
      <point x="105" y="0" type="line"/>
      <point x="472" y="0" type="line" smooth="yes"/>
      <point x="738" y="0"/>
      <point x="942" y="196"/>
      <point x="942" y="450" type="curve" smooth="yes"/>
      <point x="942" y="704"/>
      <point x="737" y="900"/>
      <point x="472" y="900" type="curve" smooth="yes"/>
      <point x="105" y="900" type="line"/>
      <point x="105" y="540" type="line"/>
      <point x="30" y="540" type="line"/>
      <point x="30" y="372" type="line"/>
      <point x="105" y="372" type="line"/>
    </contour>
    <contour>
      <point x="393" y="276" type="line"/>
      <point x="393" y="372" type="line"/>
      <point x="510" y="372" type="line"/>
      <point x="510" y="540" type="line"/>
      <point x="393" y="540" type="line"/>
      <point x="393" y="624" type="line"/>
      <point x="460" y="624" type="line" smooth="yes"/>
      <point x="568" y="624"/>
      <point x="649" y="550"/>
      <point x="649" y="450" type="curve" smooth="yes"/>
      <point x="649" y="350"/>
      <point x="568" y="276"/>
      <point x="460" y="276" type="curve" smooth="yes"/>
    </contour>
  </outline>
</glyph>
<glyph name="multiply" format="2">
  <advance width="750"/>
  <unicode hex="00D7"/>
  <outline>
    <contour>
      <point x="210" y="141" type="line"/>
      <point x="378" y="309" type="line"/>
      <point x="546" y="141" type="line"/>
      <point x="684" y="279" type="line"/>
      <point x="516" y="447" type="line"/>
      <point x="684" y="615" type="line"/>
      <point x="540" y="759" type="line"/>
      <point x="372" y="591" type="line"/>
      <point x="204" y="759" type="line"/>
      <point x="66" y="621" type="line"/>
      <point x="234" y="453" type="line"/>
      <point x="66" y="285" type="line"/>
    </contour>
  </outline>
</glyph>
<glyph name="Oslash" format="2">
  <advance width="1040"/>
  <unicode hex="00D8"/>
  <anchor x="520" y="0" name="bottom"/>
  <anchor x="520" y="900" name="top"/>
  <outline>
    <contour>
      <point x="520" y="-20" type="curve" smooth="yes"/>
      <point x="790" y="-20"/>
      <point x="1002" y="189"/>
      <point x="1002" y="450" type="curve" smooth="yes"/>
      <point x="1002" y="572"/>
      <point x="955" y="683"/>
      <point x="878" y="766" type="curve"/>
      <point x="941" y="842" type="line"/>
      <point x="828" y="934" type="line"/>
      <point x="764" y="857" type="line"/>
      <point x="692" y="897"/>
      <point x="609" y="920"/>
      <point x="520" y="920" type="curve" smooth="yes"/>
      <point x="250" y="920"/>
      <point x="38" y="710"/>
      <point x="38" y="450" type="curve" smooth="yes"/>
      <point x="38" y="328"/>
      <point x="84" y="217"/>
      <point x="161" y="134" type="curve"/>
      <point x="99" y="59" type="line"/>
      <point x="212" y="-34" type="line"/>
      <point x="276" y="43" type="line"/>
      <point x="347" y="3"/>
      <point x="430" y="-20"/>
    </contour>
    <contour>
      <point x="343" y="352" type="line"/>
      <point x="327" y="381"/>
      <point x="318" y="415"/>
      <point x="318" y="450" type="curve" smooth="yes"/>
      <point x="318" y="560"/>
      <point x="407" y="650"/>
      <point x="520" y="650" type="curve" smooth="yes"/>
      <point x="542" y="650"/>
      <point x="563" y="647"/>
      <point x="583" y="640" type="curve"/>
    </contour>
    <contour>
      <point x="520" y="250" type="curve" smooth="yes"/>
      <point x="498" y="250"/>
      <point x="476" y="253"/>
      <point x="457" y="260" type="curve"/>
      <point x="696" y="548" type="line"/>
      <point x="713" y="519"/>
      <point x="722" y="486"/>
      <point x="722" y="450" type="curve" smooth="yes"/>
      <point x="722" y="340"/>
      <point x="633" y="250"/>
    </contour>
  </outline>
</glyph>
<glyph name="Thorn" format="2">
  <advance width="800"/>
  <unicode hex="00DE"/>
  <outline>
    <contour>
      <point x="60" y="0" type="line"/>
      <point x="348" y="0" type="line"/>
      <point x="348" y="138" type="line"/>
      <point x="429" y="138" type="line" smooth="yes"/>
      <point x="634" y="138"/>
      <point x="782" y="268"/>
      <point x="782" y="458" type="curve" smooth="yes"/>
      <point x="782" y="651"/>
      <point x="635" y="780"/>
      <point x="429" y="780" type="curve" smooth="yes"/>
      <point x="348" y="780" type="line"/>
      <point x="348" y="900" type="line"/>
      <point x="60" y="900" type="line"/>
    </contour>
    <contour>
      <point x="348" y="360" type="line"/>
      <point x="348" y="546" type="line"/>
      <point x="396" y="546" type="line" smooth="yes"/>
      <point x="452" y="546"/>
      <point x="494" y="510"/>
      <point x="494" y="453" type="curve" smooth="yes"/>
      <point x="494" y="394"/>
      <point x="454" y="360"/>
      <point x="396" y="360" type="curve" smooth="yes"/>
    </contour>
  </outline>
</glyph>
<glyph name="germandbls" format="2">
  <advance width="740"/>
  <unicode hex="00DF"/>
  <outline>
    <contour>
      <point x="383" y="-12" type="line"/>
      <point x="573" y="-12"/>
      <point x="716" y="147"/>
      <point x="716" y="346" type="curve" smooth="yes"/>
      <point x="716" y="441"/>
      <point x="683" y="516"/>
      <point x="612" y="582" type="curve"/>
      <point x="645" y="617"/>
      <point x="662" y="665"/>
      <point x="662" y="721" type="curve" smooth="yes"/>
      <point x="662" y="872"/>
      <point x="540" y="972"/>
      <point x="359" y="972" type="curve" smooth="yes"/>
      <point x="173" y="972"/>
      <point x="48" y="867"/>
      <point x="48" y="689" type="curve" smooth="yes"/>
      <point x="48" y="0" type="line"/>
      <point x="306" y="0" type="line"/>
      <point x="306" y="696" type="line" smooth="yes"/>
      <point x="306" y="731"/>
      <point x="328" y="756"/>
      <point x="360" y="756" type="curve" smooth="yes"/>
      <point x="394" y="756"/>
      <point x="416" y="728"/>
      <point x="416" y="690" type="curve" smooth="yes"/>
      <point x="416" y="646"/>
      <point x="387" y="602"/>
      <point x="331" y="542" type="curve"/>
      <point x="331" y="540" type="line"/>
      <point x="416" y="473"/>
      <point x="452" y="419"/>
      <point x="452" y="352" type="curve" smooth="yes"/>
      <point x="452" y="277"/>
      <point x="408" y="229"/>
      <point x="330" y="222" type="curve"/>
    </contour>
  </outline>
</glyph>
<glyph name="ae" format="2">
  <advance width="1100"/>
  <unicode hex="00E6"/>
  <anchor x="550" y="0" name="bottom"/>
  <anchor x="550" y="630" name="top"/>
  <outline>
    <contour>
      <point x="273" y="-20" type="curve" smooth="yes"/>
      <point x="371" y="-20"/>
      <point x="463" y="13"/>
      <point x="524" y="69" type="curve"/>
      <point x="593" y="11"/>
      <point x="684" y="-20"/>
      <point x="788" y="-20" type="curve" smooth="yes"/>
      <point x="874" y="-20"/>
      <point x="953" y="1"/>
      <point x="1014" y="39" type="curve"/>
      <point x="966" y="235" type="line"/>
      <point x="926" y="202"/>
      <point x="868" y="184"/>
      <point x="803" y="184" type="curve" smooth="yes"/>
      <point x="731" y="184"/>
      <point x="685" y="206"/>
      <point x="657" y="253" type="curve"/>
      <point x="686" y="249"/>
      <point x="716" y="247"/>
      <point x="741" y="247" type="curve" smooth="yes"/>
      <point x="1079" y="247" type="line"/>
      <point x="1079" y="323" type="line" smooth="yes"/>
      <point x="1079" y="512"/>
      <point x="943" y="650"/>
      <point x="755" y="650" type="curve" smooth="yes"/>
      <point x="680" y="650"/>
      <point x="610" y="629"/>
      <point x="553" y="589" type="curve"/>
      <point x="500" y="629"/>
      <point x="422" y="650"/>
      <point x="326" y="650" type="curve" smooth="yes"/>
      <point x="223" y="650"/>
      <point x="125" y="629"/>
      <point x="50" y="590" type="curve"/>
      <point x="99" y="392" type="line"/>
      <point x="150" y="428"/>
      <point x="211" y="446"/>
      <point x="281" y="446" type="curve" smooth="yes"/>
      <point x="365" y="446"/>
      <point x="424" y="417"/>
      <point x="424" y="376" type="curve" smooth="yes"/>
      <point x="424" y="374"/>
      <point x="424" y="372"/>
      <point x="424" y="370" type="curve"/>
      <point x="376" y="387"/>
      <point x="329" y="396"/>
      <point x="278" y="396" type="curve" smooth="yes"/>
      <point x="120" y="396"/>
      <point x="18" y="312"/>
      <point x="18" y="183" type="curve" smooth="yes"/>
      <point x="18" y="57"/>
      <point x="119" y="-20"/>
    </contour>
    <contour>
      <point x="311" y="152" type="curve" smooth="yes"/>
      <point x="276" y="152"/>
      <point x="252" y="172"/>
      <point x="252" y="200" type="curve" smooth="yes"/>
      <point x="252" y="232"/>
      <point x="281" y="252"/>
      <point x="328" y="252" type="curve" smooth="yes"/>
      <point x="356" y="252"/>
      <point x="390" y="244"/>
      <point x="418" y="234" type="curve"/>
      <point x="419" y="230" type="line"/>
      <point x="411" y="190"/>
      <point x="360" y="152"/>
    </contour>
    <contour>
      <point x="651" y="385" type="curve"/>
      <point x="668" y="435"/>
      <point x="703" y="460"/>
      <point x="748" y="460" type="curve" smooth="yes"/>
      <point x="793" y="460"/>
      <point x="828" y="435"/>
      <point x="845" y="385" type="curve"/>
      <point x="820" y="388"/>
      <point x="782" y="391"/>
      <point x="761" y="391" type="curve" smooth="yes"/>
      <point x="732" y="391" type="line" smooth="yes"/>
      <point x="710" y="391"/>
      <point x="680" y="388"/>
    </contour>
  </outline>
</glyph>
<glyph name="ccedilla" format="2">
  <advance width="600"/>
  <unicode hex="00E7"/>
  <outline>
    <contour>
      <point x="98" y="-220" type="line"/>
      <point x="380" y="-220" type="line"/>
      <point x="472" y="-10" type="line"/>
      <point x="515" y="0"/>
      <point x="555" y="16"/>
      <point x="588" y="39" type="curve"/>
      <point x="529" y="279" type="line"/>
      <point x="491" y="238"/>
      <point x="448" y="220"/>
      <point x="402" y="220" type="curve" smooth="yes"/>
      <point x="342" y="220"/>
      <point x="297" y="257"/>
      <point x="297" y="315" type="curve" smooth="yes"/>
      <point x="297" y="372"/>
      <point x="340" y="410"/>
      <point x="399" y="410" type="curve" smooth="yes"/>
      <point x="442" y="410"/>
      <point x="486" y="392"/>
      <point x="523" y="351" type="curve"/>
      <point x="582" y="591" type="line"/>
      <point x="526" y="629"/>
      <point x="453" y="650"/>
      <point x="377" y="650" type="curve" smooth="yes"/>
      <point x="178" y="650"/>
      <point x="27" y="506"/>
      <point x="27" y="315" type="curve" smooth="yes"/>
      <point x="27" y="163"/>
      <point x="123" y="41"/>
      <point x="264" y="-3" type="curve"/>
    </contour>
  </outline>
</glyph>
<glyph name="eth" format="2">
  <advance width="740"/>
  <unicode hex="00F0"/>
  <outline>
    <contour>
      <point x="367" y="-20" type="curve" smooth="yes"/>
      <point x="568" y="-20"/>
      <point x="713" y="132"/>
      <point x="713" y="343" type="curve" smooth="yes"/>
      <point x="713" y="436"/>
      <point x="685" y="532"/>
      <point x="629" y="634" type="curve" smooth="yes"/>
      <point x="596" y="694"/>
      <point x="555" y="748"/>
      <point x="512" y="800" type="curve"/>
      <point x="626" y="855" type="line"/>
      <point x="575" y="960" type="line"/>
      <point x="432" y="892" type="line"/>
      <point x="410" y="915"/>
      <point x="387" y="939"/>
      <point x="366" y="960" type="curve"/>
      <point x="60" y="960" type="line"/>
      <point x="112" y="915"/>
      <point x="167" y="862"/>
      <point x="218" y="805" type="curve"/>
      <point x="71" y="735" type="line"/>
      <point x="123" y="628" type="line"/>
      <point x="297" y="711" type="line"/>
      <point x="317" y="687"/>
      <point x="334" y="663"/>
      <point x="348" y="637" type="curve"/>
      <point x="332" y="636"/>
      <point x="316" y="633"/>
      <point x="300" y="630" type="curve" smooth="yes"/>
      <point x="139" y="597"/>
      <point x="27" y="468"/>
      <point x="27" y="306" type="curve" smooth="yes"/>
      <point x="27" y="120"/>
      <point x="174" y="-20"/>
    </contour>
    <contour>
      <point x="370" y="220" type="curve" smooth="yes"/>
      <point x="318" y="220"/>
      <point x="277" y="262"/>
      <point x="277" y="315" type="curve" smooth="yes"/>
      <point x="277" y="368"/>
      <point x="318" y="410"/>
      <point x="370" y="410" type="curve" smooth="yes"/>
      <point x="422" y="410"/>
      <point x="463" y="368"/>
      <point x="463" y="315" type="curve" smooth="yes"/>
      <point x="463" y="262"/>
      <point x="422" y="220"/>
    </contour>
  </outline>
</glyph>
<glyph name="divide" format="2">
  <advance width="750"/>
  <unicode hex="00F7"/>
  <outline>
    <contour>
      <point x="40" y="352" type="line"/>
      <point x="710" y="352" type="line"/>
      <point x="710" y="548" type="line"/>
      <point x="40" y="548" type="line"/>
    </contour>
    <contour>
      <point x="375" y="84" type="curve" smooth="yes"/>
      <point x="442" y="84"/>
      <point x="491" y="135"/>
      <point x="491" y="200" type="curve" smooth="yes"/>
      <point x="491" y="267"/>
      <point x="442" y="316"/>
      <point x="375" y="316" type="curve" smooth="yes"/>
      <point x="310" y="316"/>
      <point x="259" y="267"/>
      <point x="259" y="200" type="curve" smooth="yes"/>
      <point x="259" y="135"/>
      <point x="310" y="84"/>
    </contour>
    <contour>
      <point x="375" y="584" type="curve" smooth="yes"/>
      <point x="442" y="584"/>
      <point x="491" y="635"/>
      <point x="491" y="700" type="curve" smooth="yes"/>
      <point x="491" y="767"/>
      <point x="442" y="816"/>
      <point x="375" y="816" type="curve" smooth="yes"/>
      <point x="310" y="816"/>
      <point x="259" y="767"/>
      <point x="259" y="700" type="curve" smooth="yes"/>
      <point x="259" y="635"/>
      <point x="310" y="584"/>
    </contour>
  </outline>
</glyph>
<glyph name="oslash" format="2">
  <advance width="740"/>
  <unicode hex="00F8"/>
  <anchor x="370" y="630" name="top"/>
  <outline>
    <contour>
      <point x="370" y="-20" type="curve" smooth="yes"/>
      <point x="564" y="-20"/>
      <point x="713" y="126"/>
      <point x="713" y="315" type="curve" smooth="yes"/>
      <point x="713" y="399"/>
      <point x="684" y="475"/>
      <point x="634" y="533" type="curve"/>
      <point x="676" y="583" type="line"/>
      <point x="579" y="667" type="line"/>
      <point x="533" y="612" type="line"/>
      <point x="485" y="636"/>
      <point x="429" y="650"/>
      <point x="370" y="650" type="curve" smooth="yes"/>
      <point x="176" y="650"/>
      <point x="27" y="504"/>
      <point x="27" y="315" type="curve" smooth="yes"/>
      <point x="27" y="233"/>
      <point x="55" y="158"/>
      <point x="103" y="101" type="curve"/>
      <point x="64" y="54" type="line"/>
      <point x="161" y="-30" type="line"/>
      <point x="203" y="20" type="line"/>
      <point x="252" y="-5"/>
      <point x="309" y="-20"/>
    </contour>
    <contour>
      <point x="254" y="269" type="line"/>
      <point x="250" y="284"/>
      <point x="247" y="299"/>
      <point x="247" y="315" type="curve" smooth="yes"/>
      <point x="247" y="385"/>
      <point x="301" y="441"/>
      <point x="370" y="441" type="curve" smooth="yes"/>
      <point x="379" y="441"/>
      <point x="388" y="441"/>
      <point x="396" y="438" type="curve"/>
    </contour>
    <contour>
      <point x="370" y="189" type="curve" smooth="yes"/>
      <point x="358" y="189"/>
      <point x="346" y="191"/>
      <point x="338" y="192" type="curve"/>
      <point x="483" y="365" type="line"/>
      <point x="490" y="350"/>
      <point x="493" y="333"/>
      <point x="493" y="315" type="curve" smooth="yes"/>
      <point x="493" y="245"/>
      <point x="439" y="189"/>
    </contour>
  </outline>
</glyph>
<glyph name="thorn" format="2">
  <advance width="760"/>
  <unicode hex="00FE"/>
  <outline>
    <contour>
      <point x="48" y="-270" type="line"/>
      <point x="306" y="-270" type="line"/>
      <point x="306" y="10" type="line"/>
      <point x="342" y="-6"/>
      <point x="383" y="-14"/>
      <point x="424" y="-14" type="curve" smooth="yes"/>
      <point x="598" y="-14"/>
      <point x="733" y="130"/>
      <point x="733" y="315" type="curve" smooth="yes"/>
      <point x="733" y="500"/>
      <point x="601" y="644"/>
      <point x="432" y="644" type="curve" smooth="yes"/>
      <point x="391" y="644"/>
      <point x="350" y="636"/>
      <point x="314" y="620" type="curve"/>
      <point x="314" y="960" type="line"/>
      <point x="48" y="960" type="line"/>
    </contour>
    <contour>
      <point x="390" y="220" type="curve" smooth="yes"/>
      <point x="337" y="220"/>
      <point x="297" y="260"/>
      <point x="297" y="315" type="curve" smooth="yes"/>
      <point x="297" y="370"/>
      <point x="337" y="410"/>
      <point x="390" y="410" type="curve" smooth="yes"/>
      <point x="443" y="410"/>
      <point x="483" y="369"/>
      <point x="483" y="315" type="curve" smooth="yes"/>
      <point x="483" y="261"/>
      <point x="443" y="220"/>
    </contour>
  </outline>
</glyph>
<glyph name="Aogonek" format="2">
  <advance width="860"/>
  <unicode hex="0104"/>
  <outline>
    <contour>
      <point x="810" y="-290" type="curve"/>
      <point x="849" y="-124" type="line"/>
      <point x="808" y="-122"/>
      <point x="782" y="-101"/>
      <point x="782" y="-72" type="curve" smooth="yes"/>
      <point x="782" y="-39"/>
      <point x="815" y="-14"/>
      <point x="876" y="0" type="curve"/>
      <point x="505" y="900" type="line"/>
      <point x="353" y="900" type="line"/>
      <point x="-16" y="0" type="line"/>
      <point x="274" y="0" type="line"/>
      <point x="306" y="75" type="line"/>
      <point x="548" y="75" type="line"/>
      <point x="580" y="0" type="line"/>
      <point x="543" y="-29"/>
      <point x="518" y="-77"/>
      <point x="518" y="-120" type="curve" smooth="yes"/>
      <point x="518" y="-232"/>
      <point x="618" y="-290"/>
    </contour>
    <contour>
      <point x="363" y="237" type="line"/>
      <point x="374" y="266" type="line" smooth="yes"/>
      <point x="396" y="324"/>
      <point x="408" y="362"/>
      <point x="427" y="431" type="curve"/>
      <point x="445" y="362"/>
      <point x="459" y="322"/>
      <point x="480" y="266" type="curve" smooth="yes"/>
      <point x="491" y="237" type="line"/>
    </contour>
  </outline>
</glyph>
<glyph name="aogonek" format="2">
  <advance width="760"/>
  <unicode hex="0105"/>
  <outline>
    <contour>
      <point x="683" y="-290" type="curve"/>
      <point x="722" y="-124" type="line"/>
      <point x="686" y="-122"/>
      <point x="656" y="-105"/>
      <point x="656" y="-76" type="curve" smooth="yes"/>
      <point x="656" y="-49"/>
      <point x="673" y="-27"/>
      <point x="712" y="0" type="curve"/>
      <point x="712" y="630" type="line"/>
      <point x="502" y="630" type="line"/>
      <point x="502" y="586" type="line"/>
      <point x="460" y="624"/>
      <point x="405" y="644"/>
      <point x="340" y="644" type="curve" smooth="yes"/>
      <point x="167" y="644"/>
      <point x="27" y="497"/>
      <point x="27" y="315" type="curve" smooth="yes"/>
      <point x="27" y="133"/>
      <point x="167" y="-14"/>
      <point x="340" y="-14" type="curve" smooth="yes"/>
      <point x="405" y="-14"/>
      <point x="460" y="6"/>
      <point x="502" y="44" type="curve"/>
      <point x="502" y="0" type="line"/>
      <point x="451" y="-44"/>
      <point x="428" y="-89"/>
      <point x="428" y="-135" type="curve" smooth="yes"/>
      <point x="428" y="-246"/>
      <point x="524" y="-290"/>
    </contour>
    <contour>
      <point x="370" y="220" type="curve" smooth="yes"/>
      <point x="317" y="220"/>
      <point x="277" y="260"/>
      <point x="277" y="315" type="curve" smooth="yes"/>
      <point x="277" y="370"/>
      <point x="317" y="410"/>
      <point x="370" y="410" type="curve" smooth="yes"/>
      <point x="423" y="410"/>
      <point x="463" y="369"/>
      <point x="463" y="315" type="curve" smooth="yes"/>
      <point x="463" y="261"/>
      <point x="423" y="220"/>
    </contour>
  </outline>
</glyph>
<glyph name="dcroat" format="2">
  <advance width="760"/>
  <unicode hex="0111"/>
  <outline>
    <contour>
      <point x="328" y="-14" type="curve" smooth="yes"/>
      <point x="393" y="-14"/>
      <point x="448" y="5"/>
      <point x="490" y="42" type="curve"/>
      <point x="490" y="0" type="line"/>
      <point x="712" y="0" type="line"/>
      <point x="712" y="707" type="line"/>
      <point x="760" y="707" type="line"/>
      <point x="760" y="853" type="line"/>
      <point x="712" y="853" type="line"/>
      <point x="712" y="960" type="line"/>
      <point x="466" y="960" type="line"/>
      <point x="466" y="853" type="line"/>
      <point x="312" y="853" type="line"/>
      <point x="312" y="707" type="line"/>
      <point x="466" y="707" type="line"/>
      <point x="466" y="615" type="line"/>
      <point x="427" y="634"/>
      <point x="382" y="644"/>
      <point x="336" y="644" type="curve" smooth="yes"/>
      <point x="162" y="644"/>
      <point x="27" y="500"/>
      <point x="27" y="315" type="curve" smooth="yes"/>
      <point x="27" y="130"/>
      <point x="159" y="-14"/>
    </contour>
    <contour>
      <point x="370" y="220" type="curve" smooth="yes"/>
      <point x="317" y="220"/>
      <point x="277" y="261"/>
      <point x="277" y="315" type="curve" smooth="yes"/>
      <point x="277" y="369"/>
      <point x="317" y="410"/>
      <point x="370" y="410" type="curve" smooth="yes"/>
      <point x="423" y="410"/>
      <point x="463" y="370"/>
      <point x="463" y="315" type="curve" smooth="yes"/>
      <point x="463" y="260"/>
      <point x="423" y="220"/>
    </contour>
  </outline>
</glyph>
<glyph name="Eogonek" format="2">
  <advance width="660"/>
  <unicode hex="0118"/>
  <anchor x="325" y="900" name="top"/>
  <outline>
    <contour>
      <point x="595" y="-290" type="curve"/>
      <point x="634" y="-124" type="line"/>
      <point x="593" y="-122"/>
      <point x="567" y="-101"/>
      <point x="567" y="-72" type="curve" smooth="yes"/>
      <point x="567" y="-45"/>
      <point x="588" y="-16"/>
      <point x="618" y="0" type="curve"/>
      <point x="618" y="240" type="line"/>
      <point x="342" y="240" type="line"/>
      <point x="342" y="378" type="line"/>
      <point x="576" y="378" type="line"/>
      <point x="576" y="570" type="line"/>
      <point x="342" y="570" type="line"/>
      <point x="342" y="666" type="line"/>
      <point x="618" y="666" type="line"/>
      <point x="618" y="900" type="line"/>
      <point x="60" y="900" type="line"/>
      <point x="60" y="0" type="line"/>
      <point x="395" y="0" type="line"/>
      <point x="340" y="-42"/>
      <point x="315" y="-85"/>
      <point x="315" y="-139" type="curve" smooth="yes"/>
      <point x="315" y="-238"/>
      <point x="406" y="-290"/>
    </contour>
  </outline>
</glyph>
<glyph name="eogonek" format="2">
  <advance width="720"/>
  <unicode hex="0119"/>
  <anchor x="355" y="630" name="top"/>
  <outline>
    <contour>
      <point x="599" y="-290" type="curve"/>
      <point x="638" y="-124" type="line"/>
      <point x="597" y="-122"/>
      <point x="571" y="-95"/>
      <point x="571" y="-57" type="curve" smooth="yes"/>
      <point x="571" y="-23"/>
      <point x="592" y="14"/>
      <point x="629" y="39" type="curve"/>
      <point x="580" y="235" type="line"/>
      <point x="540" y="201"/>
      <point x="481" y="184"/>
      <point x="419" y="184" type="curve" smooth="yes"/>
      <point x="350" y="184"/>
      <point x="304" y="205"/>
      <point x="276" y="253" type="curve"/>
      <point x="306" y="249"/>
      <point x="335" y="247"/>
      <point x="358" y="247" type="curve" smooth="yes"/>
      <point x="699" y="247" type="line"/>
      <point x="699" y="323" type="line" smooth="yes"/>
      <point x="699" y="512"/>
      <point x="561" y="650"/>
      <point x="370" y="650" type="curve" smooth="yes"/>
      <point x="173" y="650"/>
      <point x="27" y="508"/>
      <point x="27" y="316" type="curve" smooth="yes"/>
      <point x="27" y="119"/>
      <point x="174" y="-15"/>
      <point x="383" y="-20" type="curve" smooth="yes"/>
      <point x="387" y="-20"/>
      <point x="390" y="-20"/>
      <point x="394" y="-20" type="curve"/>
      <point x="355" y="-52"/>
      <point x="332" y="-95"/>
      <point x="332" y="-140" type="curve" smooth="yes"/>
      <point x="332" y="-239"/>
      <point x="423" y="-290"/>
    </contour>
    <contour>
      <point x="271" y="385" type="curve"/>
      <point x="287" y="435"/>
      <point x="321" y="460"/>
      <point x="365" y="460" type="curve" smooth="yes"/>
      <point x="409" y="460"/>
      <point x="443" y="435"/>
      <point x="460" y="385" type="curve"/>
      <point x="436" y="388"/>
      <point x="399" y="391"/>
      <point x="378" y="391" type="curve" smooth="yes"/>
      <point x="350" y="391" type="line" smooth="yes"/>
      <point x="328" y="391"/>
      <point x="299" y="388"/>
    </contour>
  </outline>
</glyph>
<glyph name="Hbar" format="2">
  <advance width="900"/>
  <unicode hex="0126"/>
  <outline>
    <contour>
      <point x="60" y="0" type="line"/>
      <point x="354" y="0" type="line"/>
      <point x="354" y="330" type="line"/>
      <point x="546" y="330" type="line"/>
      <point x="546" y="0" type="line"/>
      <point x="840" y="0" type="line"/>
      <point x="840" y="681" type="line"/>
      <point x="888" y="681" type="line"/>
      <point x="888" y="819" type="line"/>
      <point x="840" y="819" type="line"/>
      <point x="840" y="900" type="line"/>
      <point x="558" y="900" type="line"/>
      <point x="558" y="819" type="line"/>
      <point x="342" y="819" type="line"/>
      <point x="342" y="900" type="line"/>
      <point x="60" y="900" type="line"/>
      <point x="60" y="819" type="line"/>
      <point x="12" y="819" type="line"/>
      <point x="12" y="681" type="line"/>
      <point x="60" y="681" type="line"/>
    </contour>
    <contour>
      <point x="342" y="570" type="line"/>
      <point x="342" y="681" type="line"/>
      <point x="558" y="681" type="line"/>
      <point x="558" y="570" type="line"/>
    </contour>
  </outline>
</glyph>
<glyph name="hbar" format="2">
  <advance width="740"/>
  <unicode hex="0127"/>
  <outline>
    <contour>
      <point x="48" y="0" type="line"/>
      <point x="312" y="0" type="line"/>
      <point x="312" y="352" type="line" smooth="yes"/>
      <point x="312" y="390"/>
      <point x="338" y="416"/>
      <point x="373" y="416" type="curve" smooth="yes"/>
      <point x="407" y="416"/>
      <point x="434" y="390"/>
      <point x="434" y="352" type="curve" smooth="yes"/>
      <point x="434" y="0" type="line"/>
      <point x="698" y="0" type="line"/>
      <point x="698" y="383" type="line" smooth="yes"/>
      <point x="698" y="556"/>
      <point x="573" y="650"/>
      <point x="444" y="650" type="curve" smooth="yes"/>
      <point x="389" y="650"/>
      <point x="342" y="637"/>
      <point x="294" y="604" type="curve"/>
      <point x="294" y="707" type="line"/>
      <point x="452" y="707" type="line"/>
      <point x="452" y="853" type="line"/>
      <point x="294" y="853" type="line"/>
      <point x="294" y="960" type="line"/>
      <point x="48" y="960" type="line"/>
      <point x="48" y="853" type="line"/>
      <point x="0" y="853" type="line"/>
      <point x="0" y="707" type="line"/>
      <point x="48" y="707" type="line"/>
    </contour>
  </outline>
</glyph>
<glyph name="Iogonek" format="2">
  <advance width="420"/>
  <unicode hex="012E"/>
  <outline>
    <contour>
      <point x="311" y="-290" type="curve"/>
      <point x="350" y="-124" type="line"/>
      <point x="309" y="-122"/>
      <point x="283" y="-101"/>
      <point x="283" y="-72" type="curve" smooth="yes"/>
      <point x="283" y="-39"/>
      <point x="316" y="-14"/>
      <point x="345" y="0" type="curve"/>
      <point x="345" y="900" type="line"/>
      <point x="75" y="900" type="line"/>
      <point x="75" y="0" type="line"/>
      <point x="44" y="-29"/>
      <point x="19" y="-77"/>
      <point x="19" y="-120" type="curve" smooth="yes"/>
      <point x="19" y="-232"/>
      <point x="119" y="-290"/>
    </contour>
  </outline>
</glyph>
<glyph name="idotless" format="2">
  <advance width="360"/>
  <unicode hex="0131"/>
  <anchor x="180" y="0" name="bottom"/>
  <anchor x="180" y="0" name="ogonek"/>
  <anchor x="180" y="630" name="top"/>
  <outline>
    <contour>
      <point x="48" y="0" type="line"/>
      <point x="312" y="0" type="line"/>
      <point x="312" y="630" type="line"/>
      <point x="48" y="630" type="line"/>
    </contour>
  </outline>
</glyph>
<glyph name="kgreenlandic" format="2">
  <advance width="740"/>
  <unicode hex="0138"/>
  <anchor x="385" y="0" name="bottom"/>
  <anchor x="373" y="630" name="top"/>
  <outline>
    <contour>
      <point x="460" y="0" type="line"/>
      <point x="756" y="0" type="line"/>
      <point x="554" y="355" type="line"/>
      <point x="709" y="630" type="line"/>
      <point x="437" y="630" type="line"/>
      <point x="280" y="335" type="line"/>
    </contour>
    <contour>
      <point x="48" y="0" type="line"/>
      <point x="312" y="0" type="line"/>
      <point x="312" y="630" type="line"/>
      <point x="48" y="630" type="line"/>
    </contour>
  </outline>
</glyph>
<glyph name="Lslash" format="2">
  <advance width="680"/>
  <unicode hex="0141"/>
  <outline>
    <contour>
      <point x="106" y="0" type="line"/>
      <point x="640" y="0" type="line"/>
      <point x="640" y="252" type="line"/>
      <point x="400" y="252" type="line"/>
      <point x="400" y="456" type="line"/>
      <point x="585" y="539" type="line"/>
      <point x="518" y="676" type="line"/>
      <point x="400" y="623" type="line"/>
      <point x="400" y="900" type="line"/>
      <point x="106" y="900" type="line"/>
      <point x="106" y="492" type="line"/>
      <point x="-15" y="438" type="line"/>
      <point x="52" y="301" type="line"/>
      <point x="106" y="325" type="line"/>
    </contour>
  </outline>
</glyph>
<glyph name="lslash" format="2">
  <advance width="460"/>
  <unicode hex="0142"/>
  <outline>
    <contour>
      <point x="98" y="0" type="line"/>
      <point x="362" y="0" type="line"/>
      <point x="362" y="494" type="line"/>
      <point x="475" y="569" type="line"/>
      <point x="409" y="672" type="line"/>
      <point x="362" y="641" type="line"/>
      <point x="362" y="960" type="line"/>
      <point x="98" y="960" type="line"/>
      <point x="98" y="467" type="line"/>
      <point x="-15" y="392" type="line"/>
      <point x="51" y="289" type="line"/>
      <point x="98" y="320" type="line"/>
    </contour>
  </outline>
</glyph>
<glyph name="Eng" format="2">
  <advance width="920"/>
  <unicode hex="014A"/>
  <anchor x="460" y="0" name="bottom"/>
  <anchor x="460" y="900" name="top"/>
  <outline>
    <contour>
      <point x="558" y="-200" type="curve" smooth="yes"/>
      <point x="742" y="-200"/>
      <point x="860" y="-81"/>
      <point x="860" y="104" type="curve" smooth="yes"/>
      <point x="860" y="900" type="line"/>
      <point x="578" y="900" type="line"/>
      <point x="578" y="521" type="line"/>
      <point x="222" y="900" type="line"/>
      <point x="60" y="900" type="line"/>
      <point x="60" y="0" type="line"/>
      <point x="342" y="0" type="line"/>
      <point x="342" y="381" type="line"/>
      <point x="576" y="130" type="line"/>
      <point x="576" y="124" type="line" smooth="yes"/>
      <point x="576" y="85"/>
      <point x="546" y="58"/>
      <point x="510" y="58" type="curve" smooth="yes"/>
      <point x="470" y="58"/>
      <point x="445" y="73"/>
      <point x="424" y="102" type="curve"/>
      <point x="356" y="-134" type="line"/>
      <point x="403" y="-176"/>
      <point x="473" y="-200"/>
    </contour>
  </outline>
</glyph>
<glyph name="eng" format="2">
  <advance width="740"/>
  <unicode hex="014B"/>
  <outline>
    <contour>
      <point x="432" y="-290" type="line"/>
      <point x="586" y="-290"/>
      <point x="698" y="-200"/>
      <point x="698" y="-44" type="curve" smooth="yes"/>
      <point x="698" y="383" type="line" smooth="yes"/>
      <point x="698" y="556"/>
      <point x="573" y="650"/>
      <point x="444" y="650" type="curve" smooth="yes"/>
      <point x="377" y="650"/>
      <point x="316" y="625"/>
      <point x="270" y="574" type="curve"/>
      <point x="270" y="630" type="line"/>
      <point x="48" y="630" type="line"/>
      <point x="48" y="0" type="line"/>
      <point x="312" y="0" type="line"/>
      <point x="312" y="351" type="line" smooth="yes"/>
      <point x="312" y="390"/>
      <point x="337" y="416"/>
      <point x="373" y="416" type="curve" smooth="yes"/>
      <point x="408" y="416"/>
      <point x="434" y="390"/>
      <point x="434" y="351" type="curve" smooth="yes"/>
      <point x="434" y="-7" type="line" smooth="yes"/>
      <point x="434" y="-41"/>
      <point x="417" y="-62"/>
      <point x="377" y="-62" type="curve"/>
    </contour>
  </outline>
</glyph>
<glyph name="OE" format="2">
  <advance width="1320"/>
  <unicode hex="0152"/>
  <anchor x="770" y="0" name="bottom"/>
  <anchor x="770" y="900" name="top"/>
  <outline>
    <contour>
      <point x="520" y="-20" type="curve" smooth="yes"/>
      <point x="615" y="-20"/>
      <point x="700" y="8"/>
      <point x="770" y="58" type="curve"/>
      <point x="770" y="0" type="line"/>
      <point x="1278" y="0" type="line"/>
      <point x="1278" y="240" type="line"/>
      <point x="1002" y="240" type="line"/>
      <point x="1002" y="378" type="line"/>
      <point x="1236" y="378" type="line"/>
      <point x="1236" y="570" type="line"/>
      <point x="1002" y="570" type="line"/>
      <point x="1002" y="666" type="line"/>
      <point x="1278" y="666" type="line"/>
      <point x="1278" y="900" type="line"/>
      <point x="770" y="900" type="line"/>
      <point x="770" y="842" type="line"/>
      <point x="700" y="892"/>
      <point x="615" y="920"/>
      <point x="520" y="920" type="curve" smooth="yes"/>
      <point x="250" y="920"/>
      <point x="38" y="710"/>
      <point x="38" y="450" type="curve" smooth="yes"/>
      <point x="38" y="189"/>
      <point x="250" y="-20"/>
    </contour>
    <contour>
      <point x="520" y="268" type="curve" smooth="yes"/>
      <point x="417" y="268"/>
      <point x="336" y="350"/>
      <point x="336" y="450" type="curve" smooth="yes"/>
      <point x="336" y="550"/>
      <point x="417" y="632"/>
      <point x="520" y="632" type="curve" smooth="yes"/>
      <point x="623" y="632"/>
      <point x="704" y="550"/>
      <point x="704" y="450" type="curve" smooth="yes"/>
      <point x="704" y="350"/>
      <point x="623" y="268"/>
    </contour>
  </outline>
</glyph>
<glyph name="oe" format="2">
  <advance width="1130"/>
  <unicode hex="0153"/>
  <anchor x="577" y="0" name="bottom"/>
  <anchor x="574" y="630" name="top"/>
  <outline>
    <contour>
      <point x="370" y="-20" type="curve" smooth="yes"/>
      <point x="449" y="-20"/>
      <point x="520" y="4"/>
      <point x="577" y="45" type="curve"/>
      <point x="640" y="3"/>
      <point x="721" y="-20"/>
      <point x="814" y="-20" type="curve" smooth="yes"/>
      <point x="902" y="-20"/>
      <point x="982" y="1"/>
      <point x="1039" y="39" type="curve"/>
      <point x="990" y="235" type="line"/>
      <point x="950" y="201"/>
      <point x="891" y="184"/>
      <point x="829" y="184" type="curve" smooth="yes"/>
      <point x="760" y="184"/>
      <point x="714" y="205"/>
      <point x="686" y="253" type="curve"/>
      <point x="716" y="249"/>
      <point x="745" y="247"/>
      <point x="768" y="247" type="curve" smooth="yes"/>
      <point x="1109" y="247" type="line"/>
      <point x="1109" y="323" type="line" smooth="yes"/>
      <point x="1109" y="512"/>
      <point x="971" y="650"/>
      <point x="780" y="650" type="curve" smooth="yes"/>
      <point x="701" y="650"/>
      <point x="630" y="627"/>
      <point x="574" y="587" type="curve"/>
      <point x="517" y="627"/>
      <point x="447" y="650"/>
      <point x="370" y="650" type="curve" smooth="yes"/>
      <point x="176" y="650"/>
      <point x="27" y="504"/>
      <point x="27" y="315" type="curve" smooth="yes"/>
      <point x="27" y="126"/>
      <point x="176" y="-20"/>
    </contour>
    <contour>
      <point x="370" y="220" type="curve" smooth="yes"/>
      <point x="318" y="220"/>
      <point x="277" y="262"/>
      <point x="277" y="315" type="curve" smooth="yes"/>
      <point x="277" y="368"/>
      <point x="318" y="410"/>
      <point x="370" y="410" type="curve" smooth="yes"/>
      <point x="422" y="410"/>
      <point x="463" y="368"/>
      <point x="463" y="315" type="curve" smooth="yes"/>
      <point x="463" y="262"/>
      <point x="422" y="220"/>
    </contour>
    <contour>
      <point x="681" y="385" type="curve"/>
      <point x="697" y="435"/>
      <point x="731" y="460"/>
      <point x="775" y="460" type="curve" smooth="yes"/>
      <point x="819" y="460"/>
      <point x="853" y="435"/>
      <point x="870" y="385" type="curve"/>
      <point x="846" y="388"/>
      <point x="809" y="391"/>
      <point x="788" y="391" type="curve" smooth="yes"/>
      <point x="760" y="391" type="line" smooth="yes"/>
      <point x="738" y="391"/>
      <point x="709" y="388"/>
    </contour>
  </outline>
</glyph>
<glyph name="scedilla" format="2">
  <advance width="560"/>
  <unicode hex="015F"/>
  <outline>
    <contour>
      <point x="-4" y="-220" type="line"/>
      <point x="278" y="-220" type="line"/>
      <point x="371" y="-6" type="line"/>
      <point x="477" y="24"/>
      <point x="542" y="99"/>
      <point x="542" y="200" type="curve" smooth="yes"/>
      <point x="542" y="292"/>
      <point x="493" y="347"/>
      <point x="367" y="397" type="curve" smooth="yes"/>
      <point x="292" y="427" type="line" smooth="yes"/>
      <point x="279" y="432"/>
      <point x="273" y="439"/>
      <point x="273" y="446" type="curve" smooth="yes"/>
      <point x="273" y="455"/>
      <point x="283" y="460"/>
      <point x="300" y="460" type="curve" smooth="yes"/>
      <point x="347" y="460"/>
      <point x="434" y="420"/>
      <point x="477" y="379" type="curve"/>
      <point x="529" y="583" type="line"/>
      <point x="464" y="626"/>
      <point x="379" y="650"/>
      <point x="295" y="650" type="curve" smooth="yes"/>
      <point x="135" y="650"/>
      <point x="25" y="561"/>
      <point x="25" y="431" type="curve" smooth="yes"/>
      <point x="25" y="339"/>
      <point x="78" y="278"/>
      <point x="196" y="233" type="curve" smooth="yes"/>
      <point x="274" y="203" type="line" smooth="yes"/>
      <point x="287" y="198"/>
      <point x="294" y="192"/>
      <point x="294" y="185" type="curve" smooth="yes"/>
      <point x="294" y="175"/>
      <point x="283" y="170"/>
      <point x="262" y="170" type="curve" smooth="yes"/>
      <point x="203" y="170"/>
      <point x="122" y="204"/>
      <point x="66" y="251" type="curve"/>
      <point x="14" y="47" type="line"/>
      <point x="54" y="21"/>
      <point x="104" y="2"/>
      <point x="157" y="-9" type="curve"/>
    </contour>
  </outline>
</glyph>
<glyph name="Tcedilla" format="2">
  <advance width="730"/>
  <unicode hex="0162"/>
  <outline>
    <contour>
      <point x="47" y="-220" type="line"/>
      <point x="419" y="-220" type="line"/>
      <point x="515" y="0" type="line"/>
      <point x="515" y="648" type="line"/>
      <point x="694" y="648" type="line"/>
      <point x="694" y="900" type="line"/>
      <point x="36" y="900" type="line"/>
      <point x="36" y="648" type="line"/>
      <point x="215" y="648" type="line"/>
      <point x="215" y="0" type="line"/>
    </contour>
  </outline>
</glyph>
<glyph name="tcedilla" format="2">
  <advance width="450"/>
  <unicode hex="0163"/>
  <outline>
    <contour>
      <point x="-51" y="-220" type="line"/>
      <point x="231" y="-220" type="line"/>
      <point x="351" y="0" type="line"/>
      <point x="351" y="426" type="line"/>
      <point x="432" y="426" type="line"/>
      <point x="432" y="630" type="line"/>
      <point x="348" y="630" type="line"/>
      <point x="348" y="822" type="line"/>
      <point x="96" y="822" type="line"/>
      <point x="96" y="630" type="line"/>
      <point x="18" y="630" type="line"/>
      <point x="18" y="426" type="line"/>
      <point x="93" y="426" type="line"/>
      <point x="93" y="0" type="line"/>
    </contour>
  </outline>
</glyph>
<glyph name="Tbar" format="2">
  <advance width="730"/>
  <unicode hex="0166"/>
  <outline>
    <contour>
      <point x="215" y="0" type="line"/>
      <point x="515" y="0" type="line"/>
      <point x="515" y="356" type="line"/>
      <point x="616" y="356" type="line"/>
      <point x="616" y="530" type="line"/>
      <point x="515" y="530" type="line"/>
      <point x="515" y="648" type="line"/>
      <point x="694" y="648" type="line"/>
      <point x="694" y="900" type="line"/>
      <point x="36" y="900" type="line"/>
      <point x="36" y="648" type="line"/>
      <point x="215" y="648" type="line"/>
      <point x="215" y="530" type="line"/>
      <point x="114" y="530" type="line"/>
      <point x="114" y="356" type="line"/>
      <point x="215" y="356" type="line"/>
    </contour>
  </outline>
</glyph>
<glyph name="tbar" format="2">
  <advance width="450"/>
  <unicode hex="0167"/>
  <outline>
    <contour>
      <point x="93" y="0" type="line"/>
      <point x="351" y="0" type="line"/>
      <point x="351" y="227" type="line"/>
      <point x="422" y="227" type="line"/>
      <point x="422" y="373" type="line"/>
      <point x="351" y="373" type="line"/>
      <point x="351" y="438" type="line"/>
      <point x="432" y="438" type="line"/>
      <point x="432" y="630" type="line"/>
      <point x="348" y="630" type="line"/>
      <point x="348" y="822" type="line"/>
      <point x="96" y="822" type="line"/>
      <point x="96" y="630" type="line"/>
      <point x="18" y="630" type="line"/>
      <point x="18" y="438" type="line"/>
      <point x="93" y="438" type="line"/>
      <point x="93" y="373" type="line"/>
      <point x="28" y="373" type="line"/>
      <point x="28" y="227" type="line"/>
      <point x="93" y="227" type="line"/>
    </contour>
  </outline>
</glyph>
<glyph name="Uogonek" format="2">
  <advance width="860"/>
  <unicode hex="0172"/>
  <outline>
    <contour>
      <point x="545" y="-290" type="curve"/>
      <point x="584" y="-124" type="line"/>
      <point x="543" y="-122"/>
      <point x="517" y="-101"/>
      <point x="517" y="-72" type="curve" smooth="yes"/>
      <point x="517" y="-49"/>
      <point x="533" y="-24"/>
      <point x="550" y="-7" type="curve"/>
      <point x="706" y="29"/>
      <point x="808" y="142"/>
      <point x="808" y="329" type="curve" smooth="yes"/>
      <point x="808" y="900" type="line"/>
      <point x="520" y="900" type="line"/>
      <point x="520" y="364" type="line" smooth="yes"/>
      <point x="520" y="290"/>
      <point x="483" y="256"/>
      <point x="433" y="256" type="curve" smooth="yes"/>
      <point x="383" y="256"/>
      <point x="346" y="290"/>
      <point x="346" y="364" type="curve" smooth="yes"/>
      <point x="346" y="900" type="line"/>
      <point x="52" y="900" type="line"/>
      <point x="52" y="329" type="line" smooth="yes"/>
      <point x="52" y="136"/>
      <point x="160" y="23"/>
      <point x="324" y="-10" type="curve"/>
      <point x="286" y="-50"/>
      <point x="265" y="-90"/>
      <point x="265" y="-139" type="curve" smooth="yes"/>
      <point x="265" y="-239"/>
      <point x="356" y="-290"/>
    </contour>
  </outline>
</glyph>
<glyph name="uogonek" format="2">
  <advance width="720"/>
  <unicode hex="0173"/>
  <outline>
    <contour>
      <point x="649" y="-290" type="curve"/>
      <point x="688" y="-124" type="line"/>
      <point x="647" y="-122"/>
      <point x="621" y="-101"/>
      <point x="621" y="-72" type="curve" smooth="yes"/>
      <point x="621" y="-45"/>
      <point x="642" y="-16"/>
      <point x="672" y="0" type="curve"/>
      <point x="672" y="630" type="line"/>
      <point x="414" y="630" type="line"/>
      <point x="414" y="272" type="line" smooth="yes"/>
      <point x="414" y="237"/>
      <point x="391" y="214"/>
      <point x="360" y="214" type="curve" smooth="yes"/>
      <point x="330" y="214"/>
      <point x="306" y="237"/>
      <point x="306" y="272" type="curve" smooth="yes"/>
      <point x="306" y="630" type="line"/>
      <point x="48" y="630" type="line"/>
      <point x="48" y="247" type="line" smooth="yes"/>
      <point x="48" y="74"/>
      <point x="173" y="-20"/>
      <point x="302" y="-20" type="curve" smooth="yes"/>
      <point x="363" y="-20"/>
      <point x="418" y="0"/>
      <point x="462" y="42" type="curve"/>
      <point x="462" y="0" type="line"/>
      <point x="407" y="-42"/>
      <point x="382" y="-85"/>
      <point x="382" y="-139" type="curve" smooth="yes"/>
      <point x="382" y="-238"/>
      <point x="473" y="-290"/>
    </contour>
  </outline>
</glyph>
<glyph name="Schwa" format="2">
  <advance width="1040"/>
  <unicode hex="018F"/>
  <outline>
    <contour>
      <point x="520" y="-20" type="curve" smooth="yes"/>
      <point x="790" y="-20"/>
      <point x="1002" y="189"/>
      <point x="1002" y="450" type="curve" smooth="yes"/>
      <point x="1002" y="715"/>
      <point x="791" y="920"/>
      <point x="518" y="920" type="curve" smooth="yes"/>
      <point x="411" y="920"/>
      <point x="304" y="888"/>
      <point x="226" y="832" type="curve"/>
      <point x="286" y="583" type="line"/>
      <point x="343" y="634"/>
      <point x="417" y="664"/>
      <point x="499" y="664" type="curve" smooth="yes"/>
      <point x="587" y="664"/>
      <point x="664" y="614"/>
      <point x="693" y="537" type="curve"/>
      <point x="645" y="542"/>
      <point x="611" y="544"/>
      <point x="578" y="544" type="curve" smooth="yes"/>
      <point x="40" y="544" type="line"/>
      <point x="36" y="513"/>
      <point x="34" y="481"/>
      <point x="34" y="450" type="curve" smooth="yes"/>
      <point x="34" y="189"/>
      <point x="250" y="-20"/>
    </contour>
    <contour>
      <point x="520" y="236" type="curve" smooth="yes"/>
      <point x="437" y="236"/>
      <point x="368" y="289"/>
      <point x="345" y="362" type="curve"/>
      <point x="578" y="362" type="line" smooth="yes"/>
      <point x="612" y="362"/>
      <point x="647" y="365"/>
      <point x="695" y="370" type="curve"/>
      <point x="673" y="290"/>
      <point x="603" y="236"/>
    </contour>
  </outline>
</glyph>
<glyph name="florin" format="2">
  <advance width="750"/>
  <unicode hex="0192"/>
  <outline>
    <contour>
      <point x="250" y="-201" type="curve" smooth="yes"/>
      <point x="412" y="-201"/>
      <point x="510" y="-115"/>
      <point x="510" y="32" type="curve" smooth="yes"/>
      <point x="510" y="348" type="line"/>
      <point x="702" y="348" type="line"/>
      <point x="702" y="552" type="line"/>
      <point x="507" y="552" type="line"/>
      <point x="507" y="711" type="line" smooth="yes"/>
      <point x="507" y="739"/>
      <point x="524" y="756"/>
      <point x="546" y="756" type="curve" smooth="yes"/>
      <point x="561" y="756"/>
      <point x="575" y="750"/>
      <point x="585" y="740" type="curve"/>
      <point x="635" y="942" type="line"/>
      <point x="606" y="959"/>
      <point x="562" y="972"/>
      <point x="497" y="972" type="curve" smooth="yes"/>
      <point x="335" y="972"/>
      <point x="243" y="886"/>
      <point x="243" y="739" type="curve" smooth="yes"/>
      <point x="243" y="552" type="line"/>
      <point x="48" y="552" type="line"/>
      <point x="48" y="348" type="line"/>
      <point x="240" y="348" type="line"/>
      <point x="240" y="60" type="line" smooth="yes"/>
      <point x="240" y="32"/>
      <point x="223" y="15"/>
      <point x="201" y="15" type="curve" smooth="yes"/>
      <point x="186" y="15"/>
      <point x="172" y="21"/>
      <point x="162" y="31" type="curve"/>
      <point x="112" y="-171" type="line"/>
      <point x="141" y="-188"/>
      <point x="185" y="-201"/>
    </contour>
  </outline>
</glyph>
<glyph name="Ohorn" format="2">
  <advance width="1050"/>
  <unicode hex="01A0"/>
  <anchor x="523" y="0" name="bottom"/>
  <anchor x="523" y="900" name="top"/>
  <outline>
    <contour>
      <point x="520" y="-20" type="curve" smooth="yes"/>
      <point x="790" y="-20"/>
      <point x="1002" y="189"/>
      <point x="1002" y="450" type="curve" smooth="yes"/>
      <point x="1002" y="531"/>
      <point x="982" y="607"/>
      <point x="945" y="673" type="curve"/>
      <point x="1008" y="701"/>
      <point x="1050" y="765"/>
      <point x="1050" y="853" type="curve" smooth="yes"/>
      <point x="1050" y="898"/>
      <point x="1045" y="928"/>
      <point x="1026" y="960" type="curve"/>
      <point x="829" y="960" type="line"/>
      <point x="847" y="927"/>
      <point x="852" y="891"/>
      <point x="852" y="868" type="curve" smooth="yes"/>
      <point x="852" y="840"/>
      <point x="839" y="823"/>
      <point x="824" y="816" type="curve"/>
      <point x="741" y="881"/>
      <point x="636" y="920"/>
      <point x="520" y="920" type="curve" smooth="yes"/>
      <point x="250" y="920"/>
      <point x="38" y="710"/>
      <point x="38" y="450" type="curve" smooth="yes"/>
      <point x="38" y="189"/>
      <point x="250" y="-20"/>
    </contour>
    <contour>
      <point x="520" y="268" type="curve" smooth="yes"/>
      <point x="417" y="268"/>
      <point x="336" y="350"/>
      <point x="336" y="450" type="curve" smooth="yes"/>
      <point x="336" y="550"/>
      <point x="417" y="632"/>
      <point x="520" y="632" type="curve" smooth="yes"/>
      <point x="623" y="632"/>
      <point x="704" y="550"/>
      <point x="704" y="450" type="curve" smooth="yes"/>
      <point x="704" y="350"/>
      <point x="623" y="268"/>
    </contour>
  </outline>
</glyph>
<glyph name="ohorn" format="2">
  <advance width="810"/>
  <unicode hex="01A1"/>
  <anchor x="370" y="0" name="bottom"/>
  <anchor x="370" y="630" name="top"/>
  <outline>
    <contour>
      <point x="370" y="-20" type="curve" smooth="yes"/>
      <point x="564" y="-20"/>
      <point x="713" y="126"/>
      <point x="713" y="315" type="curve" smooth="yes"/>
      <point x="713" y="352"/>
      <point x="707" y="387"/>
      <point x="697" y="419" type="curve"/>
      <point x="771" y="450"/>
      <point x="818" y="509"/>
      <point x="818" y="598" type="curve" smooth="yes"/>
      <point x="818" y="628"/>
      <point x="813" y="658"/>
      <point x="793" y="690" type="curve"/>
      <point x="597" y="690" type="line"/>
      <point x="615" y="657"/>
      <point x="620" y="621"/>
      <point x="620" y="598" type="curve" smooth="yes"/>
      <point x="620" y="584"/>
      <point x="617" y="571"/>
      <point x="610" y="558" type="curve"/>
      <point x="549" y="615"/>
      <point x="465" y="650"/>
      <point x="370" y="650" type="curve" smooth="yes"/>
      <point x="176" y="650"/>
      <point x="27" y="504"/>
      <point x="27" y="315" type="curve" smooth="yes"/>
      <point x="27" y="126"/>
      <point x="176" y="-20"/>
    </contour>
    <contour>
      <point x="370" y="220" type="curve" smooth="yes"/>
      <point x="318" y="220"/>
      <point x="277" y="262"/>
      <point x="277" y="315" type="curve" smooth="yes"/>
      <point x="277" y="368"/>
      <point x="318" y="410"/>
      <point x="370" y="410" type="curve" smooth="yes"/>
      <point x="422" y="410"/>
      <point x="463" y="368"/>
      <point x="463" y="315" type="curve" smooth="yes"/>
      <point x="463" y="262"/>
      <point x="422" y="220"/>
    </contour>
  </outline>
</glyph>
<glyph name="Uhorn" format="2">
  <advance width="1060"/>
  <unicode hex="01AF"/>
  <anchor x="433" y="0" name="bottom"/>
  <anchor x="433" y="900" name="top"/>
  <outline>
    <contour>
      <point x="430" y="-20" type="curve" smooth="yes"/>
      <point x="651" y="-20"/>
      <point x="808" y="97"/>
      <point x="808" y="329" type="curve" smooth="yes"/>
      <point x="808" y="664" type="line"/>
      <point x="827" y="658"/>
      <point x="848" y="656"/>
      <point x="869" y="656" type="curve" smooth="yes"/>
      <point x="973" y="656"/>
      <point x="1054" y="731"/>
      <point x="1054" y="853" type="curve" smooth="yes"/>
      <point x="1054" y="898"/>
      <point x="1049" y="928"/>
      <point x="1030" y="960" type="curve"/>
      <point x="833" y="960" type="line"/>
      <point x="851" y="927"/>
      <point x="856" y="891"/>
      <point x="856" y="868" type="curve" smooth="yes"/>
      <point x="856" y="830"/>
      <point x="833" y="813"/>
      <point x="812" y="813" type="curve" smooth="yes"/>
      <point x="807" y="813"/>
      <point x="801" y="813"/>
      <point x="796" y="814" type="curve"/>
      <point x="796" y="900" type="line"/>
      <point x="520" y="900" type="line"/>
      <point x="520" y="364" type="line" smooth="yes"/>
      <point x="520" y="290"/>
      <point x="483" y="256"/>
      <point x="433" y="256" type="curve" smooth="yes"/>
      <point x="383" y="256"/>
      <point x="346" y="290"/>
      <point x="346" y="364" type="curve" smooth="yes"/>
      <point x="346" y="900" type="line"/>
      <point x="52" y="900" type="line"/>
      <point x="52" y="329" type="line" smooth="yes"/>
      <point x="52" y="97"/>
      <point x="209" y="-20"/>
    </contour>
  </outline>
</glyph>
<glyph name="uhorn" format="2">
  <advance width="930"/>
  <unicode hex="01B0"/>
  <anchor x="367" y="0" name="bottom"/>
  <anchor x="367" y="630" name="top"/>
  <outline>
    <contour>
      <point x="296" y="-20" type="curve" smooth="yes"/>
      <point x="363" y="-20"/>
      <point x="423" y="5"/>
      <point x="469" y="56" type="curve"/>
      <point x="469" y="0" type="line"/>
      <point x="692" y="0" type="line"/>
      <point x="692" y="394" type="line"/>
      <point x="711" y="388"/>
      <point x="732" y="386"/>
      <point x="753" y="386" type="curve" smooth="yes"/>
      <point x="857" y="386"/>
      <point x="938" y="461"/>
      <point x="938" y="583" type="curve" smooth="yes"/>
      <point x="938" y="628"/>
      <point x="933" y="658"/>
      <point x="914" y="690" type="curve"/>
      <point x="717" y="690" type="line"/>
      <point x="735" y="657"/>
      <point x="740" y="621"/>
      <point x="740" y="598" type="curve" smooth="yes"/>
      <point x="740" y="560"/>
      <point x="717" y="543"/>
      <point x="696" y="543" type="curve" smooth="yes"/>
      <point x="691" y="543"/>
      <point x="685" y="543"/>
      <point x="680" y="544" type="curve"/>
      <point x="680" y="630" type="line"/>
      <point x="428" y="630" type="line"/>
      <point x="428" y="278" type="line" smooth="yes"/>
      <point x="428" y="240"/>
      <point x="402" y="214"/>
      <point x="367" y="214" type="curve" smooth="yes"/>
      <point x="333" y="214"/>
      <point x="306" y="240"/>
      <point x="306" y="278" type="curve" smooth="yes"/>
      <point x="306" y="630" type="line"/>
      <point x="42" y="630" type="line"/>
      <point x="42" y="247" type="line" smooth="yes"/>
      <point x="42" y="74"/>
      <point x="167" y="-20"/>
    </contour>
  </outline>
</glyph>
<glyph name="Ezh" format="2">
  <advance width="710"/>
  <unicode hex="01B7"/>
  <anchor x="293" y="0" name="bottom"/>
  <anchor x="367" y="900" name="top"/>
  <outline>
    <contour>
      <point x="321" y="-20" type="curve" smooth="yes"/>
      <point x="529" y="-20"/>
      <point x="685" y="121"/>
      <point x="685" y="311" type="curve" smooth="yes"/>
      <point x="685" y="427"/>
      <point x="624" y="531"/>
      <point x="523" y="589" type="curve"/>
      <point x="686" y="898" type="line"/>
      <point x="686" y="900" type="line"/>
      <point x="47" y="900" type="line"/>
      <point x="47" y="678" type="line"/>
      <point x="296" y="678" type="line"/>
      <point x="151" y="387" type="line"/>
      <point x="153" y="385" type="line"/>
      <point x="196" y="397"/>
      <point x="247" y="404"/>
      <point x="286" y="404" type="curve" smooth="yes"/>
      <point x="364" y="404"/>
      <point x="415" y="369"/>
      <point x="415" y="316" type="curve" smooth="yes"/>
      <point x="415" y="263"/>
      <point x="368" y="226"/>
      <point x="302" y="226" type="curve" smooth="yes"/>
      <point x="239" y="226"/>
      <point x="177" y="261"/>
      <point x="120" y="328" type="curve"/>
      <point x="6" y="102" type="line"/>
      <point x="79" y="24"/>
      <point x="193" y="-20"/>
    </contour>
  </outline>
</glyph>
<glyph name="Gstroke" format="2">
  <advance width="910"/>
  <unicode hex="01E4"/>
  <outline>
    <contour>
      <point x="521" y="-20" type="curve" smooth="yes"/>
      <point x="640" y="-20"/>
      <point x="765" y="19"/>
      <point x="847" y="87" type="curve"/>
      <point x="847" y="306" type="line"/>
      <point x="910" y="306" type="line"/>
      <point x="910" y="474" type="line"/>
      <point x="847" y="474" type="line"/>
      <point x="847" y="524" type="line"/>
      <point x="613" y="524" type="line"/>
      <point x="613" y="474" type="line"/>
      <point x="490" y="474" type="line"/>
      <point x="490" y="306" type="line"/>
      <point x="613" y="306" type="line"/>
      <point x="613" y="251" type="line"/>
      <point x="586" y="237"/>
      <point x="560" y="232"/>
      <point x="532" y="232" type="curve" smooth="yes"/>
      <point x="414" y="232"/>
      <point x="324" y="317"/>
      <point x="324" y="445" type="curve" smooth="yes"/>
      <point x="324" y="572"/>
      <point x="414" y="662"/>
      <point x="543" y="662" type="curve" smooth="yes"/>
      <point x="628" y="662"/>
      <point x="715" y="623"/>
      <point x="780" y="550" type="curve"/>
      <point x="847" y="826" type="line"/>
      <point x="763" y="887"/>
      <point x="645" y="920"/>
      <point x="532" y="920" type="curve" smooth="yes"/>
      <point x="252" y="920"/>
      <point x="38" y="716"/>
      <point x="38" y="450" type="curve" smooth="yes"/>
      <point x="38" y="185"/>
      <point x="249" y="-20"/>
    </contour>
  </outline>
</glyph>
<glyph name="gstroke" format="2">
  <advance width="760"/>
  <unicode hex="01E5"/>
  <outline>
    <contour>
      <point x="345" y="-290" type="curve" smooth="yes"/>
      <point x="566" y="-290"/>
      <point x="712" y="-155"/>
      <point x="712" y="52" type="curve" smooth="yes"/>
      <point x="712" y="242" type="line"/>
      <point x="742" y="242" type="line"/>
      <point x="742" y="388" type="line"/>
      <point x="712" y="388" type="line"/>
      <point x="712" y="630" type="line"/>
      <point x="490" y="630" type="line"/>
      <point x="490" y="586" type="line"/>
      <point x="449" y="624"/>
      <point x="395" y="644"/>
      <point x="335" y="644" type="curve" smooth="yes"/>
      <point x="163" y="644"/>
      <point x="27" y="499"/>
      <point x="27" y="315" type="curve" smooth="yes"/>
      <point x="27" y="131"/>
      <point x="163" y="-8"/>
      <point x="335" y="-8" type="curve" smooth="yes"/>
      <point x="395" y="-8"/>
      <point x="449" y="6"/>
      <point x="490" y="44" type="curve"/>
      <point x="490" y="32" type="line" smooth="yes"/>
      <point x="490" y="-20"/>
      <point x="429" y="-68"/>
      <point x="337" y="-68" type="curve" smooth="yes"/>
      <point x="252" y="-68"/>
      <point x="180" y="-40"/>
      <point x="124" y="10" type="curve"/>
      <point x="70" y="-209" type="line"/>
      <point x="137" y="-259"/>
      <point x="240" y="-290"/>
    </contour>
    <contour>
      <point x="390" y="190" type="curve" smooth="yes"/>
      <point x="320" y="190"/>
      <point x="268" y="243"/>
      <point x="268" y="315" type="curve" smooth="yes"/>
      <point x="268" y="387"/>
      <point x="320" y="440"/>
      <point x="390" y="440" type="curve" smooth="yes"/>
      <point x="433" y="440"/>
      <point x="469" y="420"/>
      <point x="490" y="388" type="curve"/>
      <point x="324" y="388" type="line"/>
      <point x="324" y="242" type="line"/>
      <point x="490" y="242" type="line"/>
      <point x="469" y="210"/>
      <point x="433" y="190"/>
    </contour>
  </outline>
</glyph>
<glyph name="Oogonek" format="2">
  <advance width="1040"/>
  <unicode hex="01EA"/>
  <anchor x="520" y="900" name="top"/>
  <outline>
    <contour>
      <point x="656" y="-290" type="curve"/>
      <point x="695" y="-124" type="line"/>
      <point x="654" y="-122"/>
      <point x="628" y="-99"/>
      <point x="628" y="-68" type="curve" smooth="yes"/>
      <point x="628" y="-32"/>
      <point x="660" y="-6"/>
      <point x="689" y="9" type="curve"/>
      <point x="873" y="76"/>
      <point x="1002" y="247"/>
      <point x="1002" y="450" type="curve" smooth="yes"/>
      <point x="1002" y="710"/>
      <point x="790" y="920"/>
      <point x="520" y="920" type="curve" smooth="yes"/>
      <point x="250" y="920"/>
      <point x="38" y="710"/>
      <point x="38" y="450" type="curve" smooth="yes"/>
      <point x="38" y="226"/>
      <point x="194" y="39"/>
      <point x="411" y="-9" type="curve"/>
      <point x="384" y="-38"/>
      <point x="364" y="-81"/>
      <point x="364" y="-120" type="curve" smooth="yes"/>
      <point x="364" y="-232"/>
      <point x="464" y="-290"/>
    </contour>
    <contour>
      <point x="520" y="250" type="curve" smooth="yes"/>
      <point x="407" y="250"/>
      <point x="318" y="340"/>
      <point x="318" y="450" type="curve" smooth="yes"/>
      <point x="318" y="560"/>
      <point x="407" y="650"/>
      <point x="520" y="650" type="curve" smooth="yes"/>
      <point x="633" y="650"/>
      <point x="722" y="560"/>
      <point x="722" y="450" type="curve" smooth="yes"/>
      <point x="722" y="340"/>
      <point x="633" y="250"/>
    </contour>
  </outline>
</glyph>
<glyph name="oogonek" format="2">
  <advance width="740"/>
  <unicode hex="01EB"/>
  <anchor x="370" y="630" name="top"/>
  <outline>
    <contour>
      <point x="497" y="-290" type="curve"/>
      <point x="536" y="-124" type="line"/>
      <point x="495" y="-122"/>
      <point x="469" y="-100"/>
      <point x="469" y="-68" type="curve" smooth="yes"/>
      <point x="469" y="-40"/>
      <point x="489" y="-10"/>
      <point x="509" y="7" type="curve"/>
      <point x="631" y="58"/>
      <point x="713" y="175"/>
      <point x="713" y="315" type="curve" smooth="yes"/>
      <point x="713" y="504"/>
      <point x="564" y="650"/>
      <point x="370" y="650" type="curve" smooth="yes"/>
      <point x="176" y="650"/>
      <point x="27" y="504"/>
      <point x="27" y="315" type="curve" smooth="yes"/>
      <point x="27" y="154"/>
      <point x="135" y="24"/>
      <point x="288" y="-11" type="curve"/>
      <point x="251" y="-50"/>
      <point x="230" y="-90"/>
      <point x="230" y="-139" type="curve" smooth="yes"/>
      <point x="230" y="-239"/>
      <point x="321" y="-290"/>
    </contour>
    <contour>
      <point x="370" y="220" type="curve" smooth="yes"/>
      <point x="318" y="220"/>
      <point x="277" y="262"/>
      <point x="277" y="315" type="curve" smooth="yes"/>
      <point x="277" y="368"/>
      <point x="318" y="410"/>
      <point x="370" y="410" type="curve" smooth="yes"/>
      <point x="422" y="410"/>
      <point x="463" y="368"/>
      <point x="463" y="315" type="curve" smooth="yes"/>
      <point x="463" y="262"/>
      <point x="422" y="220"/>
    </contour>
  </outline>
</glyph>
<glyph name="jdotless" format="2">
  <advance width="360"/>
  <unicode hex="0237"/>
  <anchor x="180" y="-300" name="bottom"/>
  <anchor x="180" y="630" name="top"/>
  <outline>
    <contour>
      <point x="46" y="-290" type="line"/>
      <point x="200" y="-290"/>
      <point x="312" y="-200"/>
      <point x="312" y="-44" type="curve" smooth="yes"/>
      <point x="312" y="630" type="line"/>
      <point x="48" y="630" type="line"/>
      <point x="48" y="-7" type="line" smooth="yes"/>
      <point x="48" y="-41"/>
      <point x="31" y="-62"/>
      <point x="-9" y="-62" type="curve"/>
    </contour>
  </outline>
</glyph>
<glyph name="schwa" format="2">
  <advance width="720"/>
  <unicode hex="0259"/>
  <outline>
    <contour>
      <point x="350" y="-20" type="curve" smooth="yes"/>
      <point x="547" y="-20"/>
      <point x="693" y="122"/>
      <point x="693" y="314" type="curve" smooth="yes"/>
      <point x="693" y="514"/>
      <point x="541" y="650"/>
      <point x="316" y="650" type="curve" smooth="yes"/>
      <point x="228" y="650"/>
      <point x="148" y="629"/>
      <point x="91" y="591" type="curve"/>
      <point x="140" y="395" type="line"/>
      <point x="180" y="429"/>
      <point x="239" y="446"/>
      <point x="301" y="446" type="curve" smooth="yes"/>
      <point x="370" y="446"/>
      <point x="416" y="425"/>
      <point x="444" y="377" type="curve"/>
      <point x="414" y="381"/>
      <point x="385" y="383"/>
      <point x="362" y="383" type="curve" smooth="yes"/>
      <point x="21" y="383" type="line"/>
      <point x="21" y="307" type="line" smooth="yes"/>
      <point x="21" y="118"/>
      <point x="159" y="-20"/>
    </contour>
    <contour>
      <point x="355" y="170" type="curve" smooth="yes"/>
      <point x="311" y="170"/>
      <point x="277" y="195"/>
      <point x="260" y="245" type="curve"/>
      <point x="284" y="242"/>
      <point x="321" y="239"/>
      <point x="342" y="239" type="curve" smooth="yes"/>
      <point x="370" y="239" type="line" smooth="yes"/>
      <point x="392" y="239"/>
      <point x="421" y="242"/>
      <point x="449" y="245" type="curve"/>
      <point x="433" y="195"/>
      <point x="399" y="170"/>
    </contour>
  </outline>
</glyph>
<glyph name="ezh" format="2">
  <advance width="660"/>
  <unicode hex="0292"/>
  <anchor x="276" y="-282" name="bottom"/>
  <anchor x="367" y="630" name="top"/>
  <outline>
    <contour>
      <point x="276" y="-282" type="curve" smooth="yes"/>
      <point x="482" y="-282"/>
      <point x="635" y="-147"/>
      <point x="635" y="39" type="curve" smooth="yes"/>
      <point x="635" y="156"/>
      <point x="575" y="250"/>
      <point x="475" y="306" type="curve"/>
      <point x="640" y="628" type="line"/>
      <point x="640" y="630" type="line"/>
      <point x="30" y="630" type="line"/>
      <point x="30" y="414" type="line"/>
      <point x="282" y="414" type="line"/>
      <point x="130" y="111" type="line"/>
      <point x="132" y="109" type="line"/>
      <point x="171" y="121"/>
      <point x="217" y="128"/>
      <point x="252" y="128" type="curve" smooth="yes"/>
      <point x="320" y="128"/>
      <point x="361" y="93"/>
      <point x="361" y="40" type="curve" smooth="yes"/>
      <point x="361" y="-13"/>
      <point x="318" y="-50"/>
      <point x="253" y="-50" type="curve" smooth="yes"/>
      <point x="197" y="-50"/>
      <point x="136" y="-22"/>
      <point x="86" y="26" type="curve"/>
      <point x="-18" y="-179" type="line"/>
      <point x="51" y="-240"/>
      <point x="163" y="-282"/>
    </contour>
  </outline>
</glyph>
<glyph name="gravecomb" format="2">
  <unicode hex="0300"/>
  <anchor x="435" y="630" name="_top"/>
  <anchor x="312" y="912" name="top"/>
  <outline>
    <contour>
      <point x="339" y="692" type="line"/>
      <point x="549" y="692" type="line"/>
      <point x="453" y="912" type="line"/>
      <point x="171" y="912" type="line"/>
    </contour>
  </outline>
</glyph>
<glyph name="acutecomb" format="2">
  <unicode hex="0301"/>
  <anchor x="285" y="630" name="_top"/>
  <anchor x="408" y="912" name="top"/>
  <outline>
    <contour>
      <point x="171" y="692" type="line"/>
      <point x="381" y="692" type="line"/>
      <point x="549" y="912" type="line"/>
      <point x="267" y="912" type="line"/>
    </contour>
  </outline>
</glyph>
<glyph name="circumflexcomb" format="2">
  <unicode hex="0302"/>
  <anchor x="360" y="630" name="_top"/>
  <anchor x="360" y="912" name="top"/>
  <outline>
    <contour>
      <point x="79" y="692" type="line"/>
      <point x="300" y="692" type="line"/>
      <point x="320" y="714"/>
      <point x="342" y="746"/>
      <point x="358" y="771" type="curve"/>
      <point x="374" y="746"/>
      <point x="396" y="714"/>
      <point x="416" y="692" type="curve"/>
      <point x="643" y="692" type="line"/>
      <point x="466" y="912" type="line"/>
      <point x="256" y="912" type="line"/>
    </contour>
  </outline>
</glyph>
<glyph name="tildecomb" format="2">
  <unicode hex="0303"/>
  <anchor x="360" y="630" name="_top"/>
  <anchor x="361" y="909" name="top"/>
  <outline>
    <contour>
      <point x="156" y="672" type="line"/>
      <point x="175" y="710"/>
      <point x="208" y="729"/>
      <point x="253" y="729" type="curve" smooth="yes"/>
      <point x="313" y="729"/>
      <point x="391" y="675"/>
      <point x="466" y="675" type="curve" smooth="yes"/>
      <point x="528" y="675"/>
      <point x="584" y="708"/>
      <point x="612" y="766" type="curve"/>
      <point x="564" y="912" type="line"/>
      <point x="545" y="874"/>
      <point x="515" y="855"/>
      <point x="470" y="855" type="curve" smooth="yes"/>
      <point x="410" y="855"/>
      <point x="332" y="909"/>
      <point x="257" y="909" type="curve" smooth="yes"/>
      <point x="195" y="909"/>
      <point x="136" y="876"/>
      <point x="108" y="818" type="curve"/>
    </contour>
  </outline>
</glyph>
<glyph name="macroncomb" format="2">
  <unicode hex="0304"/>
  <anchor x="360" y="630" name="_top"/>
  <anchor x="360" y="893" name="top"/>
  <outline>
    <contour>
      <point x="132" y="699" type="line"/>
      <point x="588" y="699" type="line"/>
      <point x="588" y="885" type="line"/>
      <point x="132" y="885" type="line"/>
    </contour>
  </outline>
</glyph>
<glyph name="brevecomb" format="2">
  <unicode hex="0306"/>
  <anchor x="360" y="630" name="_top"/>
  <anchor x="360" y="900" name="top"/>
  <outline>
    <contour>
      <point x="360" y="680" type="curve" smooth="yes"/>
      <point x="493" y="680"/>
      <point x="594" y="762"/>
      <point x="594" y="888" type="curve"/>
      <point x="421" y="888" type="line"/>
      <point x="422" y="856"/>
      <point x="394" y="829"/>
      <point x="360" y="829" type="curve" smooth="yes"/>
      <point x="326" y="829"/>
      <point x="298" y="856"/>
      <point x="298" y="888" type="curve"/>
      <point x="126" y="888" type="line"/>
      <point x="126" y="765"/>
      <point x="228" y="680"/>
    </contour>
  </outline>
</glyph>
<glyph name="dotaccentcomb" format="2">
  <unicode hex="0307"/>
  <anchor x="360" y="630" name="_top"/>
  <anchor x="360" y="930" name="top"/>
  <outline>
    <contour>
      <point x="360" y="672" type="curve" smooth="yes"/>
      <point x="433" y="673"/>
      <point x="489" y="730"/>
      <point x="489" y="802" type="curve" smooth="yes"/>
      <point x="489" y="876"/>
      <point x="433" y="930"/>
      <point x="360" y="930" type="curve" smooth="yes"/>
      <point x="288" y="930"/>
      <point x="231" y="876"/>
      <point x="231" y="802" type="curve" smooth="yes"/>
      <point x="231" y="730"/>
      <point x="288" y="673"/>
    </contour>
  </outline>
</glyph>
<glyph name="hookabovecomb" format="2">
  <unicode hex="0309"/>
  <anchor x="393" y="630" name="_top"/>
  <anchor x="363" y="950" name="top"/>
  <outline>
    <contour>
      <point x="296" y="692" type="curve"/>
      <point x="490" y="692" type="line"/>
      <point x="515" y="726"/>
      <point x="529" y="767"/>
      <point x="529" y="804" type="curve" smooth="yes"/>
      <point x="529" y="890"/>
      <point x="454" y="950"/>
      <point x="346" y="950" type="curve" smooth="yes"/>
      <point x="277" y="950"/>
      <point x="215" y="926"/>
      <point x="175" y="902" type="curve"/>
      <point x="216" y="760" type="line"/>
      <point x="236" y="778"/>
      <point x="257" y="790"/>
      <point x="281" y="790" type="curve" smooth="yes"/>
      <point x="308" y="790"/>
      <point x="325" y="775"/>
      <point x="325" y="753" type="curve" smooth="yes"/>
      <point x="325" y="737"/>
      <point x="315" y="717"/>
    </contour>
  </outline>
</glyph>
<glyph name="ringcomb" format="2">
  <unicode hex="030A"/>
  <anchor x="360" y="630" name="_top"/>
  <anchor x="360" y="965" name="top"/>
  <outline>
    <contour>
      <point x="360" y="671" type="curve" smooth="yes"/>
      <point x="447" y="671"/>
      <point x="516" y="736"/>
      <point x="516" y="821" type="curve" smooth="yes"/>
      <point x="516" y="904"/>
      <point x="445" y="971"/>
      <point x="360" y="971" type="curve" smooth="yes"/>
      <point x="274" y="971"/>
      <point x="204" y="904"/>
      <point x="204" y="821" type="curve" smooth="yes"/>
      <point x="204" y="737"/>
      <point x="274" y="671"/>
    </contour>
    <contour>
      <point x="359" y="779" type="curve" smooth="yes"/>
      <point x="336" y="779"/>
      <point x="318" y="797"/>
      <point x="318" y="821" type="curve" smooth="yes"/>
      <point x="318" y="844"/>
      <point x="336" y="863"/>
      <point x="359" y="863" type="curve" smooth="yes"/>
      <point x="381" y="863"/>
      <point x="402" y="844"/>
      <point x="402" y="821" type="curve" smooth="yes"/>
      <point x="402" y="797"/>
      <point x="382" y="779"/>
    </contour>
  </outline>
</glyph>
<glyph name="hungarumlautcomb" format="2">
  <unicode hex="030B"/>
  <anchor x="300" y="630" name="_top"/>
  <anchor x="386" y="900" name="top"/>
  <outline>
    <contour>
      <point x="353" y="692" type="line"/>
      <point x="524" y="692" type="line"/>
      <point x="646" y="900" type="line"/>
      <point x="403" y="900" type="line"/>
    </contour>
    <contour>
      <point x="74" y="692" type="line"/>
      <point x="245" y="692" type="line"/>
      <point x="367" y="900" type="line"/>
      <point x="124" y="900" type="line"/>
    </contour>
  </outline>
</glyph>
<glyph name="caroncomb" format="2">
  <unicode hex="030C"/>
  <anchor x="360" y="630" name="_top"/>
  <anchor x="360" y="912" name="top"/>
  <outline>
    <contour>
      <point x="254" y="692" type="line"/>
      <point x="466" y="692" type="line"/>
      <point x="643" y="912" type="line"/>
      <point x="420" y="912" type="line"/>
      <point x="400" y="890"/>
      <point x="378" y="858"/>
      <point x="362" y="833" type="curve"/>
      <point x="346" y="858"/>
      <point x="324" y="890"/>
      <point x="304" y="912" type="curve"/>
      <point x="77" y="912" type="line"/>
    </contour>
  </outline>
</glyph>
<glyph name="dblgravecomb" format="2">
  <unicode hex="030F"/>
  <anchor x="420" y="630" name="_top"/>
  <anchor x="334" y="900" name="top"/>
  <outline>
    <contour>
      <point x="475" y="692" type="line"/>
      <point x="646" y="692" type="line"/>
      <point x="596" y="900" type="line"/>
      <point x="353" y="900" type="line"/>
    </contour>
    <contour>
      <point x="196" y="692" type="line"/>
      <point x="367" y="692" type="line"/>
      <point x="317" y="900" type="line"/>
      <point x="74" y="900" type="line"/>
    </contour>
  </outline>
</glyph>
<glyph name="breveinvertedcomb" format="2">
  <unicode hex="0311"/>
  <anchor x="360" y="630" name="_top"/>
  <anchor x="360" y="920" name="top"/>
  <outline>
    <contour>
      <point x="126" y="692" type="curve"/>
      <point x="299" y="692" type="line"/>
      <point x="298" y="724"/>
      <point x="326" y="751"/>
      <point x="360" y="751" type="curve" smooth="yes"/>
      <point x="394" y="751"/>
      <point x="422" y="724"/>
      <point x="422" y="692" type="curve"/>
      <point x="594" y="692" type="line"/>
      <point x="594" y="815"/>
      <point x="492" y="900"/>
      <point x="360" y="900" type="curve" smooth="yes"/>
      <point x="227" y="900"/>
      <point x="126" y="818"/>
    </contour>
  </outline>
</glyph>
<glyph name="commaturnedabovecomb" format="2">
  <unicode hex="0312"/>
  <anchor x="305" y="630" name="_top"/>
  <anchor x="405" y="930" name="top"/>
  <outline>
    <contour>
      <point x="176" y="692" type="curve"/>
      <point x="434" y="692" type="line"/>
      <point x="442" y="780"/>
      <point x="472" y="852"/>
      <point x="524" y="912" type="curve"/>
      <point x="249" y="912" type="line"/>
      <point x="206" y="847"/>
      <point x="182" y="773"/>
    </contour>
  </outline>
</glyph>
<glyph name="horncomb" format="2">
  <unicode hex="031B"/>
  <anchor x="231" y="630" name="_topright"/>
  <outline>
    <contour>
      <point x="304" y="386" type="curve" smooth="yes"/>
      <point x="408" y="386"/>
      <point x="489" y="461"/>
      <point x="489" y="583" type="curve" smooth="yes"/>
      <point x="489" y="628"/>
      <point x="484" y="658"/>
      <point x="465" y="690" type="curve"/>
      <point x="268" y="690" type="line"/>
      <point x="286" y="657"/>
      <point x="291" y="621"/>
      <point x="291" y="598" type="curve" smooth="yes"/>
      <point x="291" y="560"/>
      <point x="268" y="543"/>
      <point x="247" y="543" type="curve" smooth="yes"/>
      <point x="242" y="543"/>
      <point x="236" y="543"/>
      <point x="231" y="544" type="curve"/>
      <point x="231" y="399" type="line"/>
      <point x="253" y="389"/>
      <point x="278" y="386"/>
    </contour>
  </outline>
</glyph>
<glyph name="dotbelowcomb" format="2">
  <unicode hex="0323"/>
  <anchor x="360" y="0" name="_bottom"/>
  <anchor x="360" y="-298" name="bottom"/>
  <outline>
    <contour>
      <point x="360" y="-294" type="curve" smooth="yes"/>
      <point x="431" y="-294"/>
      <point x="486" y="-238"/>
      <point x="486" y="-168" type="curve" smooth="yes"/>
      <point x="486" y="-98"/>
      <point x="431" y="-42"/>
      <point x="360" y="-42" type="curve" smooth="yes"/>
      <point x="291" y="-42"/>
      <point x="234" y="-98"/>
      <point x="234" y="-168" type="curve" smooth="yes"/>
      <point x="234" y="-238"/>
      <point x="291" y="-294"/>
    </contour>
  </outline>
</glyph>
<glyph name="dieresisbelowcomb" format="2">
  <unicode hex="0324"/>
  <anchor x="360" y="0" name="_bottom"/>
  <anchor x="360" y="-282" name="bottom"/>
  <outline>
    <contour>
      <point x="508" y="-282" type="curve" smooth="yes"/>
      <point x="574" y="-282"/>
      <point x="628" y="-229"/>
      <point x="628" y="-162" type="curve" smooth="yes"/>
      <point x="628" y="-95"/>
      <point x="574" y="-42"/>
      <point x="508" y="-42" type="curve" smooth="yes"/>
      <point x="440" y="-42"/>
      <point x="388" y="-95"/>
      <point x="388" y="-162" type="curve" smooth="yes"/>
      <point x="388" y="-229"/>
      <point x="440" y="-282"/>
    </contour>
    <contour>
      <point x="212" y="-282" type="curve" smooth="yes"/>
      <point x="279" y="-282"/>
      <point x="332" y="-229"/>
      <point x="332" y="-162" type="curve" smooth="yes"/>
      <point x="332" y="-95"/>
      <point x="279" y="-42"/>
      <point x="212" y="-42" type="curve" smooth="yes"/>
      <point x="144" y="-42"/>
      <point x="92" y="-95"/>
      <point x="92" y="-162" type="curve" smooth="yes"/>
      <point x="92" y="-229"/>
      <point x="144" y="-282"/>
    </contour>
  </outline>
</glyph>
<glyph name="commaaccentcomb" format="2">
  <unicode hex="0326"/>
  <anchor x="405" y="0" name="_bottom"/>
  <anchor x="324" y="-282" name="bottom"/>
  <outline>
    <contour>
      <point x="186" y="-282" type="curve"/>
      <point x="461" y="-282" type="line"/>
      <point x="504" y="-217"/>
      <point x="528" y="-143"/>
      <point x="534" y="-62" type="curve"/>
      <point x="276" y="-62" type="line"/>
      <point x="268" y="-150"/>
      <point x="238" y="-222"/>
    </contour>
  </outline>
</glyph>
<glyph name="cedillacomb" format="2">
  <unicode hex="0327"/>
  <anchor x="415" y="0" name="_bottom"/>
  <anchor x="283" y="-220" name="bottom"/>
  <outline>
    <contour>
      <point x="142" y="-220" type="line"/>
      <point x="424" y="-220" type="line"/>
      <point x="520" y="0" type="line"/>
      <point x="310" y="0" type="line"/>
    </contour>
  </outline>
</glyph>
<glyph name="brevebelowcomb" format="2">
  <unicode hex="032E"/>
  <anchor x="360" y="0" name="_bottom"/>
  <anchor x="360" y="-270" name="bottom"/>
  <outline>
    <contour>
      <point x="360" y="-270" type="curve" smooth="yes"/>
      <point x="493" y="-270"/>
      <point x="594" y="-188"/>
      <point x="594" y="-62" type="curve"/>
      <point x="421" y="-62" type="line"/>
      <point x="422" y="-94"/>
      <point x="394" y="-121"/>
      <point x="360" y="-121" type="curve" smooth="yes"/>
      <point x="326" y="-121"/>
      <point x="298" y="-94"/>
      <point x="298" y="-62" type="curve"/>
      <point x="126" y="-62" type="line"/>
      <point x="126" y="-185"/>
      <point x="228" y="-270"/>
    </contour>
  </outline>
</glyph>
<glyph name="macronbelowcomb" format="2">
  <unicode hex="0331"/>
  <anchor x="360" y="0" name="_bottom"/>
  <anchor x="360" y="-255" name="bottom"/>
  <outline>
    <contour>
      <point x="132" y="-255" type="line"/>
      <point x="588" y="-255" type="line"/>
      <point x="588" y="-69" type="line"/>
      <point x="132" y="-69" type="line"/>
    </contour>
  </outline>
</glyph>
<glyph name="strokeshortcomb" format="2">
  <unicode hex="0335"/>
  <anchor x="336" y="300" name="_center"/>
  <outline>
    <contour>
      <point x="46" y="227" type="line"/>
      <point x="494" y="227" type="line"/>
      <point x="494" y="373" type="line"/>
      <point x="46" y="373" type="line"/>
    </contour>
  </outline>
</glyph>
<glyph name="strokelongcomb" format="2">
  <unicode hex="0336"/>
  <anchor x="459" y="450" name="_center"/>
  <outline>
    <contour>
      <point x="12" y="381" type="line"/>
      <point x="908" y="381" type="line"/>
      <point x="908" y="519" type="line"/>
      <point x="12" y="519" type="line"/>
    </contour>
  </outline>
</glyph>
<glyph name="slashshortcomb" format="2">
  <unicode hex="0337"/>
  <anchor x="275" y="300" name="_center"/>
  <outline>
    <contour>
      <point x="30" y="212" type="line"/>
      <point x="96" y="109" type="line"/>
      <point x="520" y="389" type="line"/>
      <point x="454" y="492" type="line"/>
    </contour>
  </outline>
</glyph>
<glyph name="slashlongcomb" format="2">
  <unicode hex="0338"/>
  <anchor x="275" y="315" name="_center"/>
  <outline>
    <contour>
      <point x="66" y="-30" type="line"/>
      <point x="581" y="583" type="line"/>
      <point x="484" y="667" type="line"/>
      <point x="-31" y="54" type="line"/>
    </contour>
  </outline>
</glyph>
<glyph name="pi" format="2">
  <advance width="740"/>
  <unicode hex="03C0"/>
  <outline>
    <contour>
      <point x="48" y="0" type="line"/>
      <point x="312" y="0" type="line"/>
      <point x="312" y="414" type="line"/>
      <point x="428" y="414" type="line"/>
      <point x="428" y="0" type="line"/>
      <point x="692" y="0" type="line"/>
      <point x="692" y="630" type="line"/>
      <point x="48" y="630" type="line"/>
    </contour>
  </outline>
</glyph>
<glyph name="baht" format="2">
  <advance width="750"/>
  <unicode hex="0E3F"/>
  <outline>
    <contour>
      <point x="301" y="-120" type="line"/>
      <point x="439" y="-120" type="line"/>
      <point x="439" y="1" type="line"/>
      <point x="608" y="12"/>
      <point x="726" y="128"/>
      <point x="726" y="296" type="curve" smooth="yes"/>
      <point x="726" y="379"/>
      <point x="696" y="452"/>
      <point x="635" y="503" type="curve"/>
      <point x="669" y="542"/>
      <point x="684" y="592"/>
      <point x="684" y="646" type="curve" smooth="yes"/>
      <point x="684" y="790"/>
      <point x="583" y="890"/>
      <point x="439" y="899" type="curve"/>
      <point x="439" y="990" type="line"/>
      <point x="301" y="990" type="line"/>
      <point x="301" y="900" type="line"/>
      <point x="60" y="900" type="line"/>
      <point x="60" y="0" type="line"/>
      <point x="301" y="0" type="line"/>
    </contour>
    <contour>
      <point x="318" y="222" type="line"/>
      <point x="318" y="396" type="line"/>
      <point x="377" y="396" type="line" smooth="yes"/>
      <point x="428" y="396"/>
      <point x="468" y="364"/>
      <point x="468" y="309" type="curve" smooth="yes"/>
      <point x="468" y="256"/>
      <point x="426" y="222"/>
      <point x="377" y="222" type="curve" smooth="yes"/>
    </contour>
    <contour>
      <point x="318" y="564" type="line"/>
      <point x="318" y="708" type="line"/>
      <point x="371" y="708" type="line" smooth="yes"/>
      <point x="413" y="708"/>
      <point x="446" y="680"/>
      <point x="446" y="636" type="curve" smooth="yes"/>
      <point x="446" y="591"/>
      <point x="414" y="564"/>
      <point x="371" y="564" type="curve" smooth="yes"/>
    </contour>
  </outline>
</glyph>
<glyph name="Germandbls" format="2">
  <advance width="1080"/>
  <unicode hex="1E9E"/>
  <outline>
    <contour>
      <point x="692" y="-20" type="curve" smooth="yes"/>
      <point x="897" y="-20"/>
      <point x="1050" y="121"/>
      <point x="1050" y="311" type="curve" smooth="yes"/>
      <point x="1050" y="427"/>
      <point x="989" y="531"/>
      <point x="888" y="589" type="curve"/>
      <point x="1050" y="898" type="line"/>
      <point x="1050" y="900" type="line"/>
      <point x="60" y="900" type="line"/>
      <point x="60" y="0" type="line"/>
      <point x="354" y="0" type="line"/>
      <point x="354" y="666" type="line"/>
      <point x="667" y="666" type="line"/>
      <point x="527" y="387" type="line"/>
      <point x="529" y="385" type="line"/>
      <point x="572" y="397"/>
      <point x="623" y="404"/>
      <point x="662" y="404" type="curve" smooth="yes"/>
      <point x="733" y="404"/>
      <point x="780" y="369"/>
      <point x="780" y="316" type="curve" smooth="yes"/>
      <point x="780" y="263"/>
      <point x="735" y="226"/>
      <point x="672" y="226" type="curve" smooth="yes"/>
      <point x="612" y="226"/>
      <point x="551" y="261"/>
      <point x="497" y="328" type="curve"/>
      <point x="382" y="102" type="line"/>
      <point x="454" y="24"/>
      <point x="567" y="-20"/>
    </contour>
  </outline>
</glyph>
<glyph name="endash" format="2">
  <advance width="720"/>
  <unicode hex="2013"/>
  <outline>
    <contour>
      <point x="40" y="217" type="line"/>
      <point x="680" y="217" type="line"/>
      <point x="680" y="413" type="line"/>
      <point x="40" y="413" type="line"/>
    </contour>
  </outline>
</glyph>
<glyph name="emdash" format="2">
  <advance width="1440"/>
  <unicode hex="2014"/>
  <outline>
    <contour>
      <point x="60" y="213" type="line"/>
      <point x="1380" y="213" type="line"/>
      <point x="1380" y="417" type="line"/>
      <point x="60" y="417" type="line"/>
    </contour>
  </outline>
</glyph>
<glyph name="dblverticalbar" format="2">
  <advance width="480"/>
  <unicode hex="2016"/>
  <outline>
    <contour>
      <point x="282" y="-180" type="line"/>
      <point x="438" y="-180" type="line"/>
      <point x="438" y="960" type="line"/>
      <point x="282" y="960" type="line"/>
    </contour>
    <contour>
      <point x="42" y="-180" type="line"/>
      <point x="198" y="-180" type="line"/>
      <point x="198" y="960" type="line"/>
      <point x="42" y="960" type="line"/>
    </contour>
  </outline>
</glyph>
